M48
; DRILL file {KiCad 7.0.1} date Mon Mar 13 20:18:59 2023
; FORMAT={-:-/ absolute / inch / decimal}
; #@! TF.CreationDate,2023-03-13T20:18:59+00:00
; #@! TF.GenerationSoftware,Kicad,Pcbnew,7.0.1
; #@! TF.FileFunction,Plated,1,2,PTH
FMAT,2
INCH
; #@! TA.AperFunction,Plated,PTH,ViaDrill
T1C0.0157
; #@! TA.AperFunction,Plated,PTH,ComponentDrill
T2C0.0295
; #@! TA.AperFunction,Plated,PTH,ComponentDrill
T3C0.0315
; #@! TA.AperFunction,Plated,PTH,ComponentDrill
T4C0.0354
; #@! TA.AperFunction,Plated,PTH,ComponentDrill
T5C0.0394
; #@! TA.AperFunction,Plated,PTH,ComponentDrill
T6C0.0402
; #@! TA.AperFunction,Plated,PTH,ComponentDrill
T7C0.0433
; #@! TA.AperFunction,Plated,PTH,ComponentDrill
T8C0.0469
; #@! TA.AperFunction,Plated,PTH,ComponentDrill
T9C0.1260
%
G90
G05
T1
X1.8189Y-1.7716
X2.1312Y-1.0937
X2.4845Y-5.1686
X2.5254Y-2.9115
X2.5749Y-5.1962
X3.287Y-2.8699
X3.3165Y-2.3518
X3.3671Y-3.6028
X3.8856Y-2.3957
X4.4668Y-3.2291
X4.5325Y-2.2789
X4.7363Y-4.0498
X4.8599Y-1.0242
T2
X2.7028Y-6.5582
X2.7528Y-6.5582
X2.8028Y-6.5582
T3
X1.7297Y-6.801
X1.7383Y-6.4217
X1.7383Y-6.5217
X1.7383Y-6.6217
X1.7689Y-6.9752
X1.7689Y-7.2752
X1.7709Y-4.808
X1.7709Y-5.207
X1.8285Y-4.9637
X1.8285Y-5.0424
X1.9266Y-6.801
X2.0383Y-6.4217
X2.0383Y-6.5217
X2.0383Y-6.6217
X2.0619Y-6.7585
X2.0619Y-6.8585
X2.1194Y-4.9637
X2.1194Y-5.0424
X2.1709Y-4.808
X2.1709Y-5.207
X2.2481Y-6.5211
X2.2481Y-6.6211
X2.3697Y-2.0181
X2.3697Y-2.2149
X2.3708Y-3.2554
X2.3708Y-3.4522
X2.3784Y-4.5081
X2.3784Y-4.7049
X2.4091Y-1.1913
X2.4091Y-1.2913
X2.4091Y-1.4669
X2.4091Y-1.5456
X2.4091Y-1.7212
X2.4091Y-1.8212
X2.4102Y-2.4286
X2.4102Y-2.5286
X2.4102Y-2.7042
X2.4102Y-2.7829
X2.4102Y-2.9585
X2.4102Y-3.0585
X2.4178Y-3.6813
X2.4178Y-3.7813
X2.4178Y-3.9569
X2.4178Y-4.0356
X2.4178Y-4.2112
X2.4178Y-4.3112
X2.4242Y-6.5012
X2.4242Y-6.6012
X2.5634Y-1.9
X2.5645Y-3.1372
X2.5721Y-4.39
X2.6059Y-1.1913
X2.6059Y-1.2913
X2.6059Y-2.1362
X2.6059Y-2.2362
X2.607Y-2.4286
X2.607Y-2.5286
X2.607Y-3.3735
X2.607Y-3.4735
X2.6146Y-3.6813
X2.6146Y-3.7813
X2.6146Y-4.6262
X2.6146Y-4.7262
X2.6453Y-1.5063
X2.6453Y-1.7031
X2.6464Y-2.7435
X2.6464Y-2.9404
X2.654Y-3.9963
X2.654Y-4.1931
X2.6634Y-2.0
X2.6645Y-3.2372
X2.6721Y-4.49
X2.7257Y-6.1655
X2.7257Y-6.2655
X2.7634Y-1.9
X2.7645Y-3.1372
X2.7721Y-4.39
X2.8028Y-1.1913
X2.8028Y-1.2913
X2.8028Y-2.1362
X2.8028Y-2.2362
X2.8039Y-2.4286
X2.8039Y-2.5286
X2.8039Y-3.3735
X2.8039Y-3.4735
X2.8115Y-3.6813
X2.8115Y-3.7813
X2.8115Y-4.6262
X2.8115Y-4.7262
X2.874Y-7.2047
X2.8815Y-1.4425
X2.8815Y-1.7425
X2.8826Y-2.6798
X2.8826Y-2.9798
X2.8902Y-3.9325
X2.8902Y-4.2325
X2.9276Y-6.1925
X2.9276Y-6.2925
X2.9276Y-6.3925
X2.9276Y-6.4925
X2.9276Y-6.5925
X2.9276Y-6.6925
X2.9276Y-6.7925
X2.9565Y-1.9198
X2.974Y-7.2047
X2.9815Y-1.4425
X2.9815Y-1.7425
X2.9826Y-2.6798
X2.9826Y-2.9798
X2.9833Y-3.1531
X2.9878Y-4.4116
X2.9902Y-3.9325
X2.9902Y-4.2325
X2.9976Y-2.1889
X2.9996Y-1.1913
X2.9996Y-1.2913
X3.0007Y-2.4286
X3.0007Y-2.5286
X3.0026Y-4.6751
X3.0063Y-3.4228
X3.0083Y-3.6813
X3.0083Y-3.7813
X3.0815Y-1.4425
X3.0815Y-1.7425
X3.0826Y-2.6798
X3.0826Y-2.9798
X3.0902Y-3.9325
X3.0902Y-4.2325
X3.1533Y-1.9198
X3.1802Y-3.1531
X3.1815Y-1.4425
X3.1815Y-1.7425
X3.1826Y-2.6798
X3.1826Y-2.9798
X3.1847Y-4.4116
X3.1902Y-3.9325
X3.1902Y-4.2325
X3.1945Y-2.1889
X3.1965Y-1.1913
X3.1965Y-1.2913
X3.1976Y-2.4286
X3.1976Y-2.5286
X3.1994Y-4.6751
X3.2032Y-3.4228
X3.2052Y-3.6813
X3.2052Y-3.7813
X3.2276Y-6.1925
X3.2276Y-6.2925
X3.2276Y-6.3925
X3.2276Y-6.4925
X3.2276Y-6.5925
X3.2276Y-6.6925
X3.2276Y-6.7925
X3.2677Y-7.2047
X3.2815Y-1.4425
X3.2815Y-1.7425
X3.2826Y-2.6798
X3.2826Y-2.9798
X3.2902Y-3.9325
X3.2902Y-4.2325
X3.2937Y-3.1474
X3.2957Y-1.9247
X3.3056Y-4.41
X3.3677Y-7.2047
X3.3815Y-1.4425
X3.3815Y-1.7425
X3.3826Y-2.6798
X3.3826Y-2.9798
X3.3902Y-3.9325
X3.3902Y-4.2325
X3.3933Y-1.1913
X3.3933Y-1.2913
X3.3944Y-2.4286
X3.3944Y-2.5286
X3.402Y-3.6813
X3.402Y-3.7813
X3.4223Y-2.1777
X3.4355Y-3.4013
X3.4469Y-4.6312
X3.4815Y-1.4425
X3.4815Y-1.7425
X3.4826Y-2.6798
X3.4826Y-2.9798
X3.4902Y-3.9325
X3.4902Y-4.2325
X3.4906Y-3.1474
X3.4926Y-1.9247
X3.5025Y-4.41
X3.5223Y-2.1777
X3.5355Y-3.4013
X3.5469Y-4.6312
X3.5902Y-1.1913
X3.5902Y-1.2913
X3.5913Y-2.4286
X3.5913Y-2.5286
X3.5989Y-3.6813
X3.5989Y-3.7813
X3.6295Y-1.485
X3.6295Y-1.585
X3.6295Y-1.7425
X3.6295Y-1.8425
X3.6306Y-2.7223
X3.6306Y-2.8223
X3.6306Y-2.9798
X3.6306Y-3.0798
X3.6383Y-3.975
X3.6383Y-4.075
X3.6383Y-4.2325
X3.6383Y-4.3325
X3.6429Y-2.0267
X3.6429Y-2.1267
X3.6511Y-3.315
X3.6511Y-3.415
X3.6585Y-4.5489
X3.6585Y-4.6489
X3.6614Y-7.2047
X3.7614Y-7.2047
X3.935Y-3.2558
X3.935Y-3.4527
X3.9501Y-2.0291
X3.9501Y-2.2259
X3.9544Y-4.4992
X3.9544Y-4.6961
X3.9741Y-1.1937
X3.9741Y-1.2937
X3.9741Y-1.4693
X3.9741Y-1.548
X3.9741Y-1.7236
X3.9741Y-1.8236
X3.9744Y-2.4291
X3.9744Y-2.5291
X3.9744Y-2.7046
X3.9744Y-2.7834
X3.9744Y-2.959
X3.9744Y-3.059
X3.9784Y-3.6638
X3.9784Y-3.7638
X3.9784Y-3.9394
X3.9784Y-4.0181
X3.9784Y-4.1937
X3.9784Y-4.2937
X4.0551Y-7.2047
X4.1284Y-1.9023
X4.1287Y-3.1377
X4.1328Y-4.3724
X4.1551Y-7.2047
X4.1709Y-1.1937
X4.1709Y-1.2937
X4.1709Y-2.1385
X4.1709Y-2.2385
X4.1713Y-2.4291
X4.1713Y-2.5291
X4.1713Y-3.3739
X4.1713Y-3.4739
X4.1753Y-3.6638
X4.1753Y-3.7638
X4.1753Y-4.6087
X4.1753Y-4.7087
X4.2103Y-1.5086
X4.2103Y-1.7055
X4.2106Y-2.744
X4.2106Y-2.9409
X4.2146Y-3.9787
X4.2146Y-4.1756
X4.2284Y-2.0023
X4.2287Y-3.2377
X4.2328Y-4.4724
X4.2569Y-6.5234
X4.2575Y-6.3021
X4.3284Y-1.9023
X4.3287Y-3.1377
X4.3328Y-4.3724
X4.3678Y-1.1937
X4.3678Y-1.2937
X4.3678Y-2.1385
X4.3678Y-2.2385
X4.3681Y-2.4291
X4.3681Y-2.5291
X4.3681Y-3.3739
X4.3681Y-3.4739
X4.3721Y-3.6638
X4.3721Y-3.7638
X4.3721Y-4.6087
X4.3721Y-4.7087
X4.4465Y-1.4448
X4.4465Y-1.7448
X4.4469Y-2.6802
X4.4469Y-2.9802
X4.4509Y-3.915
X4.4509Y-4.215
X4.4537Y-6.5234
X4.4544Y-6.3021
X4.5141Y-4.3849
X4.5372Y-3.1451
X4.5465Y-1.4448
X4.5465Y-1.7448
X4.5469Y-2.6802
X4.5469Y-2.9802
X4.5509Y-3.915
X4.5509Y-4.215
X4.5509Y-2.1924
X4.5561Y-4.6654
X4.5569Y-1.9146
X4.5646Y-1.1937
X4.5646Y-1.2937
X4.565Y-2.4291
X4.565Y-2.5291
X4.569Y-3.6638
X4.569Y-3.7638
X4.5806Y-3.4107
X4.6465Y-1.4448
X4.6465Y-1.7448
X4.6469Y-2.6802
X4.6469Y-2.9802
X4.6509Y-3.915
X4.6509Y-4.215
X4.711Y-4.3849
X4.7341Y-3.1451
X4.7465Y-1.4448
X4.7465Y-1.7448
X4.7469Y-2.6802
X4.7469Y-2.9802
X4.7478Y-2.1924
X4.7509Y-3.915
X4.7509Y-4.215
X4.7529Y-4.6654
X4.7537Y-1.9146
X4.7615Y-1.1937
X4.7615Y-1.2937
X4.7618Y-2.4291
X4.7618Y-2.5291
X4.7658Y-3.6638
X4.7658Y-3.7638
X4.7775Y-3.4107
X4.8465Y-1.4448
X4.8465Y-1.7448
X4.8469Y-2.6802
X4.8469Y-2.9802
X4.8477Y-3.1465
X4.8509Y-3.915
X4.8509Y-4.215
X4.8639Y-4.3865
X4.8646Y-6.2702
X4.8646Y-6.5702
X4.8652Y-1.9153
X4.9313Y-2.1563
X4.9465Y-1.4448
X4.9465Y-1.7448
X4.9469Y-2.6802
X4.9469Y-2.9802
X4.9509Y-3.915
X4.9509Y-4.215
X4.9555Y-4.6263
X4.9583Y-1.1937
X4.9583Y-1.2937
X4.9587Y-2.4291
X4.9587Y-2.5291
X4.9627Y-3.6638
X4.9627Y-3.7638
X4.9796Y-3.4105
X5.0313Y-2.1563
X5.0356Y-7.2144
X5.0356Y-7.3144
X5.0445Y-3.1465
X5.0465Y-1.4448
X5.0465Y-1.7448
X5.0469Y-2.6802
X5.0469Y-2.9802
X5.0509Y-3.915
X5.0509Y-4.215
X5.0555Y-4.6263
X5.0608Y-4.3865
X5.062Y-1.9153
X5.0796Y-3.4105
X5.1552Y-1.1937
X5.1552Y-1.2937
X5.1555Y-2.4291
X5.1555Y-2.5291
X5.1595Y-3.6638
X5.1595Y-3.7638
X5.1946Y-1.4874
X5.1946Y-1.5874
X5.1946Y-1.7448
X5.1946Y-1.8448
X5.1949Y-2.7228
X5.1949Y-2.8228
X5.1949Y-2.9802
X5.1949Y-3.0802
X5.1989Y-3.9575
X5.1989Y-4.0575
X5.1989Y-4.215
X5.1989Y-4.315
X5.2662Y-4.4729
X5.2662Y-4.5729
X5.2691Y-2.0594
X5.2691Y-2.1594
X5.2775Y-3.307
X5.2775Y-3.407
T4
X2.4429Y-6.3161
X2.5429Y-6.3161
X2.8346Y-7.4409
X2.9346Y-7.4409
X3.2283Y-7.4409
X3.3283Y-7.4409
X3.622Y-7.4409
X3.722Y-7.4409
X4.0157Y-7.4409
X4.1157Y-7.4409
T5
X1.9109Y-3.7631
X1.9109Y-3.8631
X1.9109Y-3.9631
X1.9196Y-1.3052
X1.9196Y-1.4052
X1.9196Y-1.5052
X1.9196Y-1.6052
X1.9196Y-2.132
X1.9196Y-2.232
X1.9196Y-2.332
X1.9196Y-2.432
X1.9196Y-2.9588
X1.9196Y-3.0588
X1.9196Y-3.1588
X1.9196Y-3.2588
X1.9196Y-5.7157
X1.9196Y-5.8157
X1.9196Y-5.9157
X1.9196Y-6.0157
X1.9196Y-6.1157
X2.0109Y-3.7631
X2.0109Y-3.8631
X2.0109Y-3.9631
X2.0196Y-1.3052
X2.0196Y-1.4052
X2.0196Y-1.5052
X2.0196Y-1.6052
X2.0196Y-2.132
X2.0196Y-2.232
X2.0196Y-2.332
X2.0196Y-2.432
X2.0196Y-2.9588
X2.0196Y-3.0588
X2.0196Y-3.1588
X2.0196Y-3.2588
X2.0196Y-5.7157
X2.0196Y-5.8157
X2.0196Y-5.9157
X2.0196Y-6.0157
X2.0196Y-6.1157
X3.4646Y-6.6535
X3.563Y-6.6535
X3.6614Y-6.6535
X5.0948Y-5.1161
X5.0948Y-5.2161
X5.0948Y-5.3161
X5.0948Y-5.4161
X5.0948Y-5.5161
X5.0948Y-5.6161
X5.1948Y-5.1161
X5.1948Y-5.2161
X5.1948Y-5.3161
X5.1948Y-5.4161
X5.1948Y-5.5161
X5.1948Y-5.6161
T6
X2.695Y-5.1174
X2.695Y-5.8174
X2.704Y-5.3674
X2.704Y-5.4674
X2.704Y-5.5674
X2.795Y-5.1174
X2.795Y-5.8174
X2.895Y-5.1174
X2.895Y-5.8174
X2.995Y-5.1174
X2.995Y-5.8174
X3.095Y-5.1174
X3.095Y-5.8174
X3.195Y-5.1174
X3.195Y-5.8174
X3.295Y-5.1174
X3.295Y-5.8174
X3.395Y-5.1174
X3.395Y-5.8174
X3.495Y-5.1174
X3.495Y-5.8174
X3.595Y-5.1174
X3.595Y-5.8174
X3.695Y-5.1174
X3.695Y-5.8174
X3.795Y-5.1174
X3.795Y-5.8174
X3.895Y-5.1174
X3.895Y-5.8174
X3.995Y-5.1174
X3.995Y-5.8174
X4.095Y-5.1174
X4.095Y-5.8174
X4.195Y-5.1174
X4.195Y-5.8174
X4.295Y-5.1174
X4.295Y-5.8174
X4.395Y-5.1174
X4.395Y-5.8174
X4.495Y-5.1174
X4.495Y-5.8174
X4.595Y-5.1174
X4.595Y-5.8174
T7
X4.6Y-6.3122
X4.6Y-6.4122
X4.6Y-6.5122
T8
X1.9278Y-7.18
X2.0278Y-7.18
X3.6426Y-6.9335
X3.7426Y-6.9335
X4.988Y-6.8835
X5.088Y-6.8835
T9
X1.7977Y-0.9093
X1.7982Y-7.4838
X5.2228Y-7.4837
X5.2229Y-0.9092
T0
M30
