%TF.GenerationSoftware,KiCad,Pcbnew,(5.1.7)-1*%
%TF.CreationDate,2023-03-07T08:06:47+00:00*%
%TF.ProjectId,KOSMO-POLY6-PICO-DCO-MB,4b4f534d-4f2d-4504-9f4c-59362d504943,v0.1.1*%
%TF.SameCoordinates,Original*%
%TF.FileFunction,Soldermask,Top*%
%TF.FilePolarity,Negative*%
%FSLAX46Y46*%
G04 Gerber Fmt 4.6, Leading zero omitted, Abs format (unit mm)*
G04 Created by KiCad (PCBNEW (5.1.7)-1) date 2023-03-07 08:06:47*
%MOMM*%
%LPD*%
G01*
G04 APERTURE LIST*
%ADD10C,1.600000*%
%ADD11O,1.700000X1.700000*%
%ADD12R,1.700000X1.700000*%
%ADD13R,1.700000X3.500000*%
%ADD14O,1.800000X1.800000*%
%ADD15O,1.500000X1.500000*%
%ADD16R,3.500000X1.700000*%
%ADD17C,1.700000*%
%ADD18O,1.600000X1.600000*%
%ADD19C,1.800000*%
%ADD20R,1.800000X1.800000*%
%ADD21R,1.600000X1.600000*%
%ADD22R,1.050000X1.500000*%
%ADD23O,1.050000X1.500000*%
%ADD24O,1.740000X2.190000*%
%ADD25C,5.600000*%
%ADD26C,4.000000*%
%ADD27O,2.000000X1.905000*%
%ADD28R,2.000000X1.905000*%
%ADD29O,1.600000X2.400000*%
%ADD30R,1.600000X2.400000*%
%ADD31R,1.500000X1.500000*%
%ADD32C,1.500000*%
%ADD33O,2.400000X1.600000*%
%ADD34R,2.400000X1.600000*%
G04 APERTURE END LIST*
D10*
%TO.C,C41*%
X88963000Y-112015000D03*
X83963000Y-112015000D03*
%TD*%
%TO.C,C40*%
X128544000Y-111416000D03*
X123544000Y-111416000D03*
%TD*%
%TO.C,C39*%
X88661000Y-79943000D03*
X83661000Y-79943000D03*
%TD*%
%TO.C,C38*%
X128131000Y-79920000D03*
X123131000Y-79920000D03*
%TD*%
%TO.C,C37*%
X88711000Y-48888000D03*
X83711000Y-48888000D03*
%TD*%
%TO.C,C36*%
X128575000Y-48648000D03*
X123575000Y-48648000D03*
%TD*%
D11*
%TO.C,MCU1*%
X116712000Y-129983000D03*
X114172000Y-129983000D03*
D12*
X111632000Y-129983000D03*
D11*
X109092000Y-129983000D03*
X106552000Y-129983000D03*
X104012000Y-129983000D03*
X101472000Y-129983000D03*
D12*
X98932000Y-129983000D03*
D11*
X96392000Y-129983000D03*
X93852000Y-129983000D03*
X91312000Y-129983000D03*
X88772000Y-129983000D03*
D12*
X86232000Y-129983000D03*
D11*
X83692000Y-129983000D03*
X81152000Y-129983000D03*
X78612000Y-129983000D03*
X76072000Y-129983000D03*
D12*
X73532000Y-129983000D03*
D11*
X70992000Y-129983000D03*
X68452000Y-129983000D03*
X68452000Y-147763000D03*
X70992000Y-147763000D03*
D12*
X73532000Y-147763000D03*
D11*
X76072000Y-147763000D03*
X78612000Y-147763000D03*
X81152000Y-147763000D03*
X83692000Y-147763000D03*
D12*
X86232000Y-147763000D03*
D11*
X88772000Y-147763000D03*
X91312000Y-147763000D03*
X93852000Y-147763000D03*
X96392000Y-147763000D03*
D12*
X98932000Y-147763000D03*
D11*
X101472000Y-147763000D03*
X104012000Y-147763000D03*
X106552000Y-147763000D03*
X109092000Y-147763000D03*
D12*
X111632000Y-147763000D03*
D11*
X114172000Y-147763000D03*
X116712000Y-147763000D03*
D13*
X116712000Y-129083000D03*
X114172000Y-129083000D03*
X111632000Y-129083000D03*
X109092000Y-129083000D03*
X106552000Y-129083000D03*
X104012000Y-129083000D03*
X101472000Y-129083000D03*
X98932000Y-129083000D03*
X96392000Y-129083000D03*
X93852000Y-129083000D03*
X91312000Y-129083000D03*
X88772000Y-129083000D03*
X86232000Y-129083000D03*
X83692000Y-129083000D03*
X81152000Y-129083000D03*
X78612000Y-129083000D03*
X76072000Y-129083000D03*
X73532000Y-129083000D03*
X70992000Y-129083000D03*
X68452000Y-129083000D03*
X116712000Y-148663000D03*
X114172000Y-148663000D03*
X111632000Y-148663000D03*
X109092000Y-148663000D03*
X106552000Y-148663000D03*
X104012000Y-148663000D03*
X101472000Y-148663000D03*
X98932000Y-148663000D03*
X96392000Y-148663000D03*
X93852000Y-148663000D03*
X91312000Y-148663000D03*
X88772000Y-148663000D03*
X86232000Y-148663000D03*
X83692000Y-148663000D03*
X81152000Y-148663000D03*
X78612000Y-148663000D03*
X76072000Y-148663000D03*
X73532000Y-148663000D03*
X70992000Y-148663000D03*
X68452000Y-148663000D03*
D14*
X116582000Y-136148000D03*
X116582000Y-141598000D03*
D15*
X113552000Y-136448000D03*
X113552000Y-141298000D03*
D16*
X67782000Y-136333000D03*
D11*
X68682000Y-136333000D03*
D16*
X67782000Y-138873000D03*
D12*
X68682000Y-138873000D03*
D16*
X67782000Y-141413000D03*
D11*
X68682000Y-141413000D03*
%TD*%
D17*
%TO.C,MOD1*%
X129408000Y-129948000D03*
X129408000Y-132488000D03*
X129408000Y-135028000D03*
X129408000Y-137568000D03*
X129408000Y-140108000D03*
X129408000Y-142648000D03*
X131948000Y-129948000D03*
X131948000Y-132488000D03*
X131948000Y-135028000D03*
X131948000Y-137568000D03*
X131948000Y-140108000D03*
G36*
G01*
X132798000Y-142048000D02*
X132798000Y-143248000D01*
G75*
G02*
X132548000Y-143498000I-250000J0D01*
G01*
X131348000Y-143498000D01*
G75*
G02*
X131098000Y-143248000I0J250000D01*
G01*
X131098000Y-142048000D01*
G75*
G02*
X131348000Y-141798000I250000J0D01*
G01*
X132548000Y-141798000D01*
G75*
G02*
X132798000Y-142048000I0J-250000D01*
G01*
G37*
%TD*%
%TO.C,Power-OUT1*%
X51077000Y-100664000D03*
X51077000Y-98124000D03*
X51077000Y-95584000D03*
X48537000Y-100664000D03*
X48537000Y-98124000D03*
G36*
G01*
X47687000Y-96184000D02*
X47687000Y-94984000D01*
G75*
G02*
X47937000Y-94734000I250000J0D01*
G01*
X49137000Y-94734000D01*
G75*
G02*
X49387000Y-94984000I0J-250000D01*
G01*
X49387000Y-96184000D01*
G75*
G02*
X49137000Y-96434000I-250000J0D01*
G01*
X47937000Y-96434000D01*
G75*
G02*
X47687000Y-96184000I0J250000D01*
G01*
G37*
%TD*%
D18*
%TO.C,R93*%
X75540000Y-183000000D03*
D10*
X73000000Y-183000000D03*
%TD*%
D19*
%TO.C,D7*%
X74540000Y-189000000D03*
D20*
X72000000Y-189000000D03*
%TD*%
D18*
%TO.C,R91*%
X61574000Y-165130000D03*
D10*
X61574000Y-167670000D03*
%TD*%
D19*
%TO.C,D6*%
X62050000Y-160430000D03*
D20*
X64590000Y-160430000D03*
%TD*%
D18*
%TO.C,U9*%
X81981000Y-157289000D03*
X74361000Y-172529000D03*
X81981000Y-159829000D03*
X74361000Y-169989000D03*
X81981000Y-162369000D03*
X74361000Y-167449000D03*
X81981000Y-164909000D03*
X74361000Y-164909000D03*
X81981000Y-167449000D03*
X74361000Y-162369000D03*
X81981000Y-169989000D03*
X74361000Y-159829000D03*
X81981000Y-172529000D03*
D21*
X74361000Y-157289000D03*
%TD*%
D18*
%TO.C,R92*%
X69234000Y-156604000D03*
D10*
X69234000Y-159144000D03*
%TD*%
D22*
%TO.C,Q7*%
X68650000Y-166578000D03*
D23*
X71190000Y-166578000D03*
X69920000Y-166578000D03*
%TD*%
D24*
%TO.C,PWM_IN1*%
X129236000Y-174841000D03*
G36*
G01*
X125826000Y-175686001D02*
X125826000Y-173995999D01*
G75*
G02*
X126075999Y-173746000I249999J0D01*
G01*
X127316001Y-173746000D01*
G75*
G02*
X127566000Y-173995999I0J-249999D01*
G01*
X127566000Y-175686001D01*
G75*
G02*
X127316001Y-175936000I-249999J0D01*
G01*
X126075999Y-175936000D01*
G75*
G02*
X125826000Y-175686001I0J249999D01*
G01*
G37*
%TD*%
D17*
%TO.C,POWER1*%
X51299000Y-155339000D03*
X51299000Y-152799000D03*
X51299000Y-150259000D03*
X51299000Y-147719000D03*
X51299000Y-145179000D03*
X48759000Y-155339000D03*
X48759000Y-152799000D03*
X48759000Y-150259000D03*
X48759000Y-147719000D03*
G36*
G01*
X47909000Y-145779000D02*
X47909000Y-144579000D01*
G75*
G02*
X48159000Y-144329000I250000J0D01*
G01*
X49359000Y-144329000D01*
G75*
G02*
X49609000Y-144579000I0J-250000D01*
G01*
X49609000Y-145779000D01*
G75*
G02*
X49359000Y-146029000I-250000J0D01*
G01*
X48159000Y-146029000D01*
G75*
G02*
X47909000Y-145779000I0J250000D01*
G01*
G37*
%TD*%
%TO.C,RAMP1*%
X51299000Y-40773000D03*
X51299000Y-38233000D03*
X51299000Y-35693000D03*
X51299000Y-33153000D03*
X48759000Y-40773000D03*
X48759000Y-38233000D03*
X48759000Y-35693000D03*
G36*
G01*
X47909000Y-33753000D02*
X47909000Y-32553000D01*
G75*
G02*
X48159000Y-32303000I250000J0D01*
G01*
X49359000Y-32303000D01*
G75*
G02*
X49609000Y-32553000I0J-250000D01*
G01*
X49609000Y-33753000D01*
G75*
G02*
X49359000Y-34003000I-250000J0D01*
G01*
X48159000Y-34003000D01*
G75*
G02*
X47909000Y-33753000I0J250000D01*
G01*
G37*
%TD*%
D18*
%TO.C,R90*%
X105540000Y-183000000D03*
D10*
X103000000Y-183000000D03*
%TD*%
D18*
%TO.C,R89*%
X95540000Y-183000000D03*
D10*
X93000000Y-183000000D03*
%TD*%
D17*
%TO.C,PULSE1*%
X51299000Y-61773000D03*
X51299000Y-59233000D03*
X51299000Y-56693000D03*
X51299000Y-54153000D03*
X48759000Y-61773000D03*
X48759000Y-59233000D03*
X48759000Y-56693000D03*
G36*
G01*
X47909000Y-54753000D02*
X47909000Y-53553000D01*
G75*
G02*
X48159000Y-53303000I250000J0D01*
G01*
X49359000Y-53303000D01*
G75*
G02*
X49609000Y-53553000I0J-250000D01*
G01*
X49609000Y-54753000D01*
G75*
G02*
X49359000Y-55003000I-250000J0D01*
G01*
X48159000Y-55003000D01*
G75*
G02*
X47909000Y-54753000I0J250000D01*
G01*
G37*
%TD*%
D24*
%TO.C,MIDI_IN1*%
X51505000Y-182371000D03*
G36*
G01*
X48095000Y-183216001D02*
X48095000Y-181525999D01*
G75*
G02*
X48344999Y-181276000I249999J0D01*
G01*
X49585001Y-181276000D01*
G75*
G02*
X49835000Y-181525999I0J-249999D01*
G01*
X49835000Y-183216001D01*
G75*
G02*
X49585001Y-183466000I-249999J0D01*
G01*
X48344999Y-183466000D01*
G75*
G02*
X48095000Y-183216001I0J249999D01*
G01*
G37*
%TD*%
D25*
%TO.C,H4*%
X45674000Y-190089000D03*
%TD*%
%TO.C,H3*%
X132660000Y-190087000D03*
%TD*%
%TO.C,H2*%
X132662000Y-23093000D03*
%TD*%
%TO.C,H1*%
X45662000Y-23095000D03*
%TD*%
D17*
%TO.C,GATE1*%
X51299000Y-82773000D03*
X51299000Y-80233000D03*
X51299000Y-77693000D03*
X51299000Y-75153000D03*
X48759000Y-82773000D03*
X48759000Y-80233000D03*
X48759000Y-77693000D03*
G36*
G01*
X47909000Y-75753000D02*
X47909000Y-74553000D01*
G75*
G02*
X48159000Y-74303000I250000J0D01*
G01*
X49359000Y-74303000D01*
G75*
G02*
X49609000Y-74553000I0J-250000D01*
G01*
X49609000Y-75753000D01*
G75*
G02*
X49359000Y-76003000I-250000J0D01*
G01*
X48159000Y-76003000D01*
G75*
G02*
X47909000Y-75753000I0J250000D01*
G01*
G37*
%TD*%
D18*
%TO.C,FB2*%
X55142000Y-122122000D03*
D10*
X44982000Y-122122000D03*
%TD*%
D18*
%TO.C,FB1*%
X55142000Y-132259000D03*
D10*
X44982000Y-132259000D03*
%TD*%
D19*
%TO.C,D5*%
X104540000Y-189000000D03*
D20*
X102000000Y-189000000D03*
%TD*%
D19*
%TO.C,D4*%
X94540000Y-189000000D03*
D20*
X92000000Y-189000000D03*
%TD*%
D10*
%TO.C,C9*%
X53833000Y-126077000D03*
D21*
X53833000Y-128077000D03*
%TD*%
D10*
%TO.C,C8*%
X46445000Y-126077000D03*
D21*
X46445000Y-128077000D03*
%TD*%
D18*
%TO.C,R88*%
X85540000Y-183000000D03*
D10*
X83000000Y-183000000D03*
%TD*%
D18*
%TO.C,R87*%
X86412000Y-96045000D03*
D10*
X86412000Y-93505000D03*
%TD*%
D18*
%TO.C,R86*%
X81412000Y-96045000D03*
D10*
X81412000Y-93505000D03*
%TD*%
D18*
%TO.C,R85*%
X61412000Y-96045000D03*
D10*
X61412000Y-93505000D03*
%TD*%
D18*
%TO.C,R84*%
X66412000Y-96045000D03*
D10*
X66412000Y-93505000D03*
%TD*%
D18*
%TO.C,R83*%
X61412000Y-106965000D03*
D10*
X61412000Y-109505000D03*
%TD*%
D18*
%TO.C,R82*%
X71412000Y-96045000D03*
D10*
X71412000Y-93505000D03*
%TD*%
D18*
%TO.C,R81*%
X76412000Y-96045000D03*
D10*
X76412000Y-93505000D03*
%TD*%
D18*
%TO.C,R80*%
X91412000Y-96045000D03*
D10*
X91412000Y-93505000D03*
%TD*%
D18*
%TO.C,R79*%
X71412000Y-120045000D03*
D10*
X71412000Y-117505000D03*
%TD*%
D18*
%TO.C,R78*%
X90092000Y-117632000D03*
D10*
X87552000Y-117632000D03*
%TD*%
D18*
%TO.C,R77*%
X66412000Y-120045000D03*
D10*
X66412000Y-117505000D03*
%TD*%
D18*
%TO.C,R74*%
X92412000Y-110045000D03*
D10*
X92412000Y-107505000D03*
%TD*%
D18*
%TO.C,R73*%
X126052000Y-95600000D03*
D10*
X126052000Y-93060000D03*
%TD*%
D18*
%TO.C,R72*%
X121052000Y-95600000D03*
D10*
X121052000Y-93060000D03*
%TD*%
D18*
%TO.C,R71*%
X101052000Y-95600000D03*
D10*
X101052000Y-93060000D03*
%TD*%
D18*
%TO.C,R70*%
X106052000Y-95600000D03*
D10*
X106052000Y-93060000D03*
%TD*%
D18*
%TO.C,R69*%
X101052000Y-106520000D03*
D10*
X101052000Y-109060000D03*
%TD*%
D18*
%TO.C,R68*%
X111052000Y-95600000D03*
D10*
X111052000Y-93060000D03*
%TD*%
D18*
%TO.C,R67*%
X116052000Y-95600000D03*
D10*
X116052000Y-93060000D03*
%TD*%
D18*
%TO.C,R66*%
X131052000Y-95600000D03*
D10*
X131052000Y-93060000D03*
%TD*%
D18*
%TO.C,R65*%
X111052000Y-119600000D03*
D10*
X111052000Y-117060000D03*
%TD*%
D18*
%TO.C,R64*%
X128410000Y-117509000D03*
D10*
X125870000Y-117509000D03*
%TD*%
D18*
%TO.C,R63*%
X106052000Y-119600000D03*
D10*
X106052000Y-117060000D03*
%TD*%
D18*
%TO.C,R60*%
X132052000Y-109600000D03*
D10*
X132052000Y-107060000D03*
%TD*%
D18*
%TO.C,R59*%
X86218000Y-64226000D03*
D10*
X86218000Y-61686000D03*
%TD*%
D18*
%TO.C,R58*%
X81218000Y-64226000D03*
D10*
X81218000Y-61686000D03*
%TD*%
D18*
%TO.C,R57*%
X61218000Y-64226000D03*
D10*
X61218000Y-61686000D03*
%TD*%
D18*
%TO.C,R56*%
X66218000Y-64226000D03*
D10*
X66218000Y-61686000D03*
%TD*%
D18*
%TO.C,R55*%
X61218000Y-75146000D03*
D10*
X61218000Y-77686000D03*
%TD*%
D18*
%TO.C,R54*%
X71218000Y-64226000D03*
D10*
X71218000Y-61686000D03*
%TD*%
D18*
%TO.C,R53*%
X76218000Y-64226000D03*
D10*
X76218000Y-61686000D03*
%TD*%
D18*
%TO.C,R52*%
X91218000Y-64226000D03*
D10*
X91218000Y-61686000D03*
%TD*%
D18*
%TO.C,R51*%
X71218000Y-88226000D03*
D10*
X71218000Y-85686000D03*
%TD*%
D18*
%TO.C,R50*%
X89802000Y-86392000D03*
D10*
X87262000Y-86392000D03*
%TD*%
D18*
%TO.C,R49*%
X66218000Y-88226000D03*
D10*
X66218000Y-85686000D03*
%TD*%
D18*
%TO.C,R46*%
X92218000Y-78226000D03*
D10*
X92218000Y-75686000D03*
%TD*%
D18*
%TO.C,R45*%
X125950000Y-64238000D03*
D10*
X125950000Y-61698000D03*
%TD*%
D18*
%TO.C,R44*%
X120950000Y-64238000D03*
D10*
X120950000Y-61698000D03*
%TD*%
D18*
%TO.C,R43*%
X100950000Y-64238000D03*
D10*
X100950000Y-61698000D03*
%TD*%
D18*
%TO.C,R42*%
X105950000Y-64238000D03*
D10*
X105950000Y-61698000D03*
%TD*%
D18*
%TO.C,R41*%
X100950000Y-75158000D03*
D10*
X100950000Y-77698000D03*
%TD*%
D18*
%TO.C,R40*%
X110950000Y-64238000D03*
D10*
X110950000Y-61698000D03*
%TD*%
D18*
%TO.C,R39*%
X115950000Y-64238000D03*
D10*
X115950000Y-61698000D03*
%TD*%
D18*
%TO.C,R38*%
X130950000Y-64238000D03*
D10*
X130950000Y-61698000D03*
%TD*%
D18*
%TO.C,R37*%
X110950000Y-88238000D03*
D10*
X110950000Y-85698000D03*
%TD*%
D18*
%TO.C,R36*%
X134048000Y-86539000D03*
D10*
X134048000Y-83999000D03*
%TD*%
D18*
%TO.C,R35*%
X105950000Y-88238000D03*
D10*
X105950000Y-85698000D03*
%TD*%
D18*
%TO.C,R32*%
X131950000Y-78238000D03*
D10*
X131950000Y-75698000D03*
%TD*%
D18*
%TO.C,R31*%
X86190000Y-32799000D03*
D10*
X86190000Y-30259000D03*
%TD*%
D18*
%TO.C,R30*%
X81190000Y-32799000D03*
D10*
X81190000Y-30259000D03*
%TD*%
D18*
%TO.C,R29*%
X61190000Y-32799000D03*
D10*
X61190000Y-30259000D03*
%TD*%
D18*
%TO.C,R28*%
X66190000Y-32799000D03*
D10*
X66190000Y-30259000D03*
%TD*%
D18*
%TO.C,R27*%
X61190000Y-43719000D03*
D10*
X61190000Y-46259000D03*
%TD*%
D18*
%TO.C,R26*%
X71190000Y-32799000D03*
D10*
X71190000Y-30259000D03*
%TD*%
D18*
%TO.C,R25*%
X76190000Y-32799000D03*
D10*
X76190000Y-30259000D03*
%TD*%
D18*
%TO.C,R24*%
X91190000Y-32799000D03*
D10*
X91190000Y-30259000D03*
%TD*%
D18*
%TO.C,R23*%
X71190000Y-56799000D03*
D10*
X71190000Y-54259000D03*
%TD*%
D18*
%TO.C,R22*%
X89466000Y-55313000D03*
D10*
X86926000Y-55313000D03*
%TD*%
D18*
%TO.C,R21*%
X66190000Y-56799000D03*
D10*
X66190000Y-54259000D03*
%TD*%
D18*
%TO.C,R18*%
X92190000Y-46799000D03*
D10*
X92190000Y-44259000D03*
%TD*%
D18*
%TO.C,R17*%
X57101000Y-168177000D03*
D10*
X57101000Y-165637000D03*
%TD*%
D18*
%TO.C,R16*%
X52372000Y-174207000D03*
D10*
X52372000Y-171667000D03*
%TD*%
D18*
%TO.C,R15*%
X125942000Y-32859000D03*
D10*
X125942000Y-30319000D03*
%TD*%
D18*
%TO.C,R14*%
X120942000Y-32859000D03*
D10*
X120942000Y-30319000D03*
%TD*%
D18*
%TO.C,R13*%
X100942000Y-32859000D03*
D10*
X100942000Y-30319000D03*
%TD*%
D18*
%TO.C,R12*%
X105942000Y-32859000D03*
D10*
X105942000Y-30319000D03*
%TD*%
D18*
%TO.C,R11*%
X100942000Y-43779000D03*
D10*
X100942000Y-46319000D03*
%TD*%
D18*
%TO.C,R10*%
X110942000Y-32859000D03*
D10*
X110942000Y-30319000D03*
%TD*%
D18*
%TO.C,R9*%
X115942000Y-32859000D03*
D10*
X115942000Y-30319000D03*
%TD*%
D18*
%TO.C,R8*%
X130942000Y-32859000D03*
D10*
X130942000Y-30319000D03*
%TD*%
D18*
%TO.C,R7*%
X110942000Y-56859000D03*
D10*
X110942000Y-54319000D03*
%TD*%
D18*
%TO.C,R6*%
X133834000Y-54849000D03*
D10*
X133834000Y-52309000D03*
%TD*%
D18*
%TO.C,R5*%
X105942000Y-56859000D03*
D10*
X105942000Y-54319000D03*
%TD*%
D18*
%TO.C,R4*%
X127903000Y-185785000D03*
D10*
X127903000Y-183245000D03*
%TD*%
D18*
%TO.C,R1*%
X131942000Y-46859000D03*
D10*
X131942000Y-44319000D03*
%TD*%
D18*
%TO.C,R75*%
X92412000Y-100965000D03*
D10*
X92412000Y-103505000D03*
%TD*%
D18*
%TO.C,R61*%
X132052000Y-100520000D03*
D10*
X132052000Y-103060000D03*
%TD*%
D18*
%TO.C,R47*%
X92218000Y-69146000D03*
D10*
X92218000Y-71686000D03*
%TD*%
D18*
%TO.C,R33*%
X131950000Y-69158000D03*
D10*
X131950000Y-71698000D03*
%TD*%
D18*
%TO.C,R19*%
X92190000Y-37719000D03*
D10*
X92190000Y-40259000D03*
%TD*%
D18*
%TO.C,R2*%
X131942000Y-37779000D03*
D10*
X131942000Y-40319000D03*
%TD*%
D18*
%TO.C,R76*%
X92926000Y-118082000D03*
D10*
X92926000Y-115542000D03*
%TD*%
D18*
%TO.C,R62*%
X133762000Y-113612000D03*
D10*
X133762000Y-116152000D03*
%TD*%
D18*
%TO.C,R48*%
X92738000Y-86741000D03*
D10*
X92738000Y-84201000D03*
%TD*%
D18*
%TO.C,R34*%
X126481000Y-86627000D03*
D10*
X129021000Y-86627000D03*
%TD*%
D18*
%TO.C,R20*%
X92529000Y-54019000D03*
D10*
X92529000Y-51479000D03*
%TD*%
D18*
%TO.C,R3*%
X125254000Y-54771000D03*
D10*
X127794000Y-54771000D03*
%TD*%
D19*
%TO.C,PW_POT1*%
X93000000Y-169000000D03*
X90500000Y-169000000D03*
X88000000Y-169000000D03*
D26*
X94900000Y-162000000D03*
X86100000Y-162000000D03*
%TD*%
D19*
%TO.C,D3*%
X84540000Y-189000000D03*
D20*
X82000000Y-189000000D03*
%TD*%
D18*
%TO.C,D2*%
X123561000Y-166883000D03*
D21*
X123561000Y-159263000D03*
%TD*%
D27*
%TO.C,U1*%
X116841000Y-165411000D03*
X116841000Y-162871000D03*
D28*
X116841000Y-160331000D03*
%TD*%
D10*
%TO.C,C16*%
X116348000Y-86633000D03*
X121348000Y-86633000D03*
%TD*%
D29*
%TO.C,U8*%
X73412000Y-99885000D03*
X88652000Y-107505000D03*
X75952000Y-99885000D03*
X86112000Y-107505000D03*
X78492000Y-99885000D03*
X83572000Y-107505000D03*
X81032000Y-99885000D03*
X81032000Y-107505000D03*
X83572000Y-99885000D03*
X78492000Y-107505000D03*
X86112000Y-99885000D03*
X75952000Y-107505000D03*
X88652000Y-99885000D03*
D30*
X73412000Y-107505000D03*
%TD*%
D29*
%TO.C,U7*%
X113052000Y-99440000D03*
X128292000Y-107060000D03*
X115592000Y-99440000D03*
X125752000Y-107060000D03*
X118132000Y-99440000D03*
X123212000Y-107060000D03*
X120672000Y-99440000D03*
X120672000Y-107060000D03*
X123212000Y-99440000D03*
X118132000Y-107060000D03*
X125752000Y-99440000D03*
X115592000Y-107060000D03*
X128292000Y-99440000D03*
D30*
X113052000Y-107060000D03*
%TD*%
D29*
%TO.C,U6*%
X73218000Y-68066000D03*
X88458000Y-75686000D03*
X75758000Y-68066000D03*
X85918000Y-75686000D03*
X78298000Y-68066000D03*
X83378000Y-75686000D03*
X80838000Y-68066000D03*
X80838000Y-75686000D03*
X83378000Y-68066000D03*
X78298000Y-75686000D03*
X85918000Y-68066000D03*
X75758000Y-75686000D03*
X88458000Y-68066000D03*
D30*
X73218000Y-75686000D03*
%TD*%
D29*
%TO.C,U5*%
X112950000Y-68078000D03*
X128190000Y-75698000D03*
X115490000Y-68078000D03*
X125650000Y-75698000D03*
X118030000Y-68078000D03*
X123110000Y-75698000D03*
X120570000Y-68078000D03*
X120570000Y-75698000D03*
X123110000Y-68078000D03*
X118030000Y-75698000D03*
X125650000Y-68078000D03*
X115490000Y-75698000D03*
X128190000Y-68078000D03*
D30*
X112950000Y-75698000D03*
%TD*%
D31*
%TO.C,Q6*%
X70412000Y-111505000D03*
D32*
X65332000Y-111505000D03*
X67872000Y-114045000D03*
%TD*%
D31*
%TO.C,Q5*%
X110052000Y-111060000D03*
D32*
X104972000Y-111060000D03*
X107512000Y-113600000D03*
%TD*%
D31*
%TO.C,Q4*%
X70218000Y-79686000D03*
D32*
X65138000Y-79686000D03*
X67678000Y-82226000D03*
%TD*%
D31*
%TO.C,Q3*%
X109950000Y-79698000D03*
D32*
X104870000Y-79698000D03*
X107410000Y-82238000D03*
%TD*%
D10*
%TO.C,C35*%
X80891000Y-112055000D03*
X75891000Y-112055000D03*
%TD*%
%TO.C,C34*%
X61412000Y-100505000D03*
D21*
X61412000Y-102505000D03*
%TD*%
D10*
%TO.C,C33*%
X67412000Y-101505000D03*
X67412000Y-106505000D03*
%TD*%
%TO.C,C32*%
X60412000Y-114505000D03*
X60412000Y-119505000D03*
%TD*%
%TO.C,C31*%
X76265000Y-118747000D03*
X81265000Y-118747000D03*
%TD*%
%TO.C,C30*%
X119659000Y-111377000D03*
X114659000Y-111377000D03*
%TD*%
%TO.C,C29*%
X101052000Y-100060000D03*
D21*
X101052000Y-102060000D03*
%TD*%
D10*
%TO.C,C28*%
X107052000Y-101060000D03*
X107052000Y-106060000D03*
%TD*%
%TO.C,C27*%
X100442000Y-119280000D03*
X100442000Y-114280000D03*
%TD*%
%TO.C,C26*%
X115724000Y-118502000D03*
X120724000Y-118502000D03*
%TD*%
%TO.C,C25*%
X80776000Y-80089000D03*
X75776000Y-80089000D03*
%TD*%
%TO.C,C24*%
X61218000Y-68686000D03*
D21*
X61218000Y-70686000D03*
%TD*%
D10*
%TO.C,C23*%
X67218000Y-69686000D03*
X67218000Y-74686000D03*
%TD*%
%TO.C,C22*%
X60218000Y-82686000D03*
X60218000Y-87686000D03*
%TD*%
%TO.C,C21*%
X76361000Y-86939000D03*
X81361000Y-86939000D03*
%TD*%
%TO.C,C20*%
X120246000Y-79885000D03*
X115246000Y-79885000D03*
%TD*%
%TO.C,C19*%
X100950000Y-68698000D03*
D21*
X100950000Y-70698000D03*
%TD*%
D10*
%TO.C,C18*%
X106950000Y-69698000D03*
X106950000Y-74698000D03*
%TD*%
%TO.C,C17*%
X99950000Y-82698000D03*
X99950000Y-87698000D03*
%TD*%
D29*
%TO.C,U4*%
X73190000Y-36639000D03*
X88430000Y-44259000D03*
X75730000Y-36639000D03*
X85890000Y-44259000D03*
X78270000Y-36639000D03*
X83350000Y-44259000D03*
X80810000Y-36639000D03*
X80810000Y-44259000D03*
X83350000Y-36639000D03*
X78270000Y-44259000D03*
X85890000Y-36639000D03*
X75730000Y-44259000D03*
X88430000Y-36639000D03*
D30*
X73190000Y-44259000D03*
%TD*%
D31*
%TO.C,Q2*%
X70190000Y-48259000D03*
D32*
X65110000Y-48259000D03*
X67650000Y-50799000D03*
%TD*%
D10*
%TO.C,C15*%
X80095000Y-48763000D03*
X75095000Y-48763000D03*
%TD*%
%TO.C,C14*%
X61190000Y-37259000D03*
D21*
X61190000Y-39259000D03*
%TD*%
D10*
%TO.C,C13*%
X67190000Y-38259000D03*
X67190000Y-43259000D03*
%TD*%
%TO.C,C12*%
X60190000Y-51259000D03*
X60190000Y-56259000D03*
%TD*%
%TO.C,C11*%
X76140000Y-55597000D03*
X81140000Y-55597000D03*
%TD*%
D33*
%TO.C,U3*%
X51772000Y-163110000D03*
X44152000Y-168190000D03*
X51772000Y-165650000D03*
X44152000Y-165650000D03*
X51772000Y-168190000D03*
D34*
X44152000Y-163110000D03*
%TD*%
D18*
%TO.C,D1*%
X44929000Y-184789000D03*
D21*
X44929000Y-177169000D03*
%TD*%
D10*
%TO.C,C10*%
X43935000Y-172745000D03*
X48935000Y-172745000D03*
%TD*%
%TO.C,C7*%
X108125000Y-165695000D03*
X113125000Y-165695000D03*
%TD*%
%TO.C,C6*%
X113141000Y-160073000D03*
X108141000Y-160073000D03*
%TD*%
D29*
%TO.C,U2*%
X112942000Y-36699000D03*
X128182000Y-44319000D03*
X115482000Y-36699000D03*
X125642000Y-44319000D03*
X118022000Y-36699000D03*
X123102000Y-44319000D03*
X120562000Y-36699000D03*
X120562000Y-44319000D03*
X123102000Y-36699000D03*
X118022000Y-44319000D03*
X125642000Y-36699000D03*
X115482000Y-44319000D03*
X128182000Y-36699000D03*
D30*
X112942000Y-44319000D03*
%TD*%
D10*
%TO.C,C5*%
X120744000Y-48632000D03*
X115744000Y-48632000D03*
%TD*%
D31*
%TO.C,Q1*%
X109942000Y-48319000D03*
D32*
X104862000Y-48319000D03*
X107402000Y-50859000D03*
%TD*%
D10*
%TO.C,C4*%
X100942000Y-37319000D03*
D21*
X100942000Y-39319000D03*
%TD*%
D10*
%TO.C,C3*%
X106942000Y-38319000D03*
X106942000Y-43319000D03*
%TD*%
%TO.C,C2*%
X100332000Y-56539000D03*
X100332000Y-51539000D03*
%TD*%
%TO.C,C1*%
X115594000Y-55688000D03*
X120594000Y-55688000D03*
%TD*%
M02*
