%TF.GenerationSoftware,KiCad,Pcbnew,7.0.1*%
%TF.CreationDate,2023-03-13T20:19:02+00:00*%
%TF.ProjectId,KOSMO-POLY6-PICO-DCO-MB,4b4f534d-4f2d-4504-9f4c-59362d504943,v0.1.1*%
%TF.SameCoordinates,Original*%
%TF.FileFunction,Legend,Bot*%
%TF.FilePolarity,Positive*%
%FSLAX46Y46*%
G04 Gerber Fmt 4.6, Leading zero omitted, Abs format (unit mm)*
G04 Created by KiCad (PCBNEW 7.0.1) date 2023-03-13 20:19:02*
%MOMM*%
%LPD*%
G01*
G04 APERTURE LIST*
%ADD10C,0.150000*%
%ADD11C,0.200000*%
%ADD12C,0.120000*%
%ADD13C,0.100000*%
G04 APERTURE END LIST*
D10*
%TO.C,PW_POT1*%
X98612619Y-159854762D02*
X97612619Y-159854762D01*
X97612619Y-159854762D02*
X97612619Y-160235714D01*
X97612619Y-160235714D02*
X97660238Y-160330952D01*
X97660238Y-160330952D02*
X97707857Y-160378571D01*
X97707857Y-160378571D02*
X97803095Y-160426190D01*
X97803095Y-160426190D02*
X97945952Y-160426190D01*
X97945952Y-160426190D02*
X98041190Y-160378571D01*
X98041190Y-160378571D02*
X98088809Y-160330952D01*
X98088809Y-160330952D02*
X98136428Y-160235714D01*
X98136428Y-160235714D02*
X98136428Y-159854762D01*
X97612619Y-160759524D02*
X98612619Y-160997619D01*
X98612619Y-160997619D02*
X97898333Y-161188095D01*
X97898333Y-161188095D02*
X98612619Y-161378571D01*
X98612619Y-161378571D02*
X97612619Y-161616667D01*
X98707857Y-161759524D02*
X98707857Y-162521428D01*
X98612619Y-162759524D02*
X97612619Y-162759524D01*
X97612619Y-162759524D02*
X97612619Y-163140476D01*
X97612619Y-163140476D02*
X97660238Y-163235714D01*
X97660238Y-163235714D02*
X97707857Y-163283333D01*
X97707857Y-163283333D02*
X97803095Y-163330952D01*
X97803095Y-163330952D02*
X97945952Y-163330952D01*
X97945952Y-163330952D02*
X98041190Y-163283333D01*
X98041190Y-163283333D02*
X98088809Y-163235714D01*
X98088809Y-163235714D02*
X98136428Y-163140476D01*
X98136428Y-163140476D02*
X98136428Y-162759524D01*
X97612619Y-163950000D02*
X97612619Y-164140476D01*
X97612619Y-164140476D02*
X97660238Y-164235714D01*
X97660238Y-164235714D02*
X97755476Y-164330952D01*
X97755476Y-164330952D02*
X97945952Y-164378571D01*
X97945952Y-164378571D02*
X98279285Y-164378571D01*
X98279285Y-164378571D02*
X98469761Y-164330952D01*
X98469761Y-164330952D02*
X98565000Y-164235714D01*
X98565000Y-164235714D02*
X98612619Y-164140476D01*
X98612619Y-164140476D02*
X98612619Y-163950000D01*
X98612619Y-163950000D02*
X98565000Y-163854762D01*
X98565000Y-163854762D02*
X98469761Y-163759524D01*
X98469761Y-163759524D02*
X98279285Y-163711905D01*
X98279285Y-163711905D02*
X97945952Y-163711905D01*
X97945952Y-163711905D02*
X97755476Y-163759524D01*
X97755476Y-163759524D02*
X97660238Y-163854762D01*
X97660238Y-163854762D02*
X97612619Y-163950000D01*
X97612619Y-164664286D02*
X97612619Y-165235714D01*
X98612619Y-164950000D02*
X97612619Y-164950000D01*
X98612619Y-166092857D02*
X98612619Y-165521429D01*
X98612619Y-165807143D02*
X97612619Y-165807143D01*
X97612619Y-165807143D02*
X97755476Y-165711905D01*
X97755476Y-165711905D02*
X97850714Y-165616667D01*
X97850714Y-165616667D02*
X97898333Y-165521429D01*
X98562619Y-169469523D02*
X98562619Y-168898095D01*
X98562619Y-169183809D02*
X97562619Y-169183809D01*
X97562619Y-169183809D02*
X97705476Y-169088571D01*
X97705476Y-169088571D02*
X97800714Y-168993333D01*
X97800714Y-168993333D02*
X97848333Y-168898095D01*
X97562619Y-170088571D02*
X97562619Y-170183809D01*
X97562619Y-170183809D02*
X97610238Y-170279047D01*
X97610238Y-170279047D02*
X97657857Y-170326666D01*
X97657857Y-170326666D02*
X97753095Y-170374285D01*
X97753095Y-170374285D02*
X97943571Y-170421904D01*
X97943571Y-170421904D02*
X98181666Y-170421904D01*
X98181666Y-170421904D02*
X98372142Y-170374285D01*
X98372142Y-170374285D02*
X98467380Y-170326666D01*
X98467380Y-170326666D02*
X98515000Y-170279047D01*
X98515000Y-170279047D02*
X98562619Y-170183809D01*
X98562619Y-170183809D02*
X98562619Y-170088571D01*
X98562619Y-170088571D02*
X98515000Y-169993333D01*
X98515000Y-169993333D02*
X98467380Y-169945714D01*
X98467380Y-169945714D02*
X98372142Y-169898095D01*
X98372142Y-169898095D02*
X98181666Y-169850476D01*
X98181666Y-169850476D02*
X97943571Y-169850476D01*
X97943571Y-169850476D02*
X97753095Y-169898095D01*
X97753095Y-169898095D02*
X97657857Y-169945714D01*
X97657857Y-169945714D02*
X97610238Y-169993333D01*
X97610238Y-169993333D02*
X97562619Y-170088571D01*
X98562619Y-170850476D02*
X97562619Y-170850476D01*
X98562619Y-171421904D02*
X97991190Y-170993333D01*
X97562619Y-171421904D02*
X98134047Y-170850476D01*
X96735237Y-171622619D02*
X96735237Y-170622619D01*
X96735237Y-170622619D02*
X96354285Y-170622619D01*
X96354285Y-170622619D02*
X96259047Y-170670238D01*
X96259047Y-170670238D02*
X96211428Y-170717857D01*
X96211428Y-170717857D02*
X96163809Y-170813095D01*
X96163809Y-170813095D02*
X96163809Y-170955952D01*
X96163809Y-170955952D02*
X96211428Y-171051190D01*
X96211428Y-171051190D02*
X96259047Y-171098809D01*
X96259047Y-171098809D02*
X96354285Y-171146428D01*
X96354285Y-171146428D02*
X96735237Y-171146428D01*
X95830475Y-170622619D02*
X95592380Y-171622619D01*
X95592380Y-171622619D02*
X95401904Y-170908333D01*
X95401904Y-170908333D02*
X95211428Y-171622619D01*
X95211428Y-171622619D02*
X94973333Y-170622619D01*
X94830476Y-171717857D02*
X94068571Y-171717857D01*
X93830475Y-171622619D02*
X93830475Y-170622619D01*
X93830475Y-170622619D02*
X93449523Y-170622619D01*
X93449523Y-170622619D02*
X93354285Y-170670238D01*
X93354285Y-170670238D02*
X93306666Y-170717857D01*
X93306666Y-170717857D02*
X93259047Y-170813095D01*
X93259047Y-170813095D02*
X93259047Y-170955952D01*
X93259047Y-170955952D02*
X93306666Y-171051190D01*
X93306666Y-171051190D02*
X93354285Y-171098809D01*
X93354285Y-171098809D02*
X93449523Y-171146428D01*
X93449523Y-171146428D02*
X93830475Y-171146428D01*
X92639999Y-170622619D02*
X92449523Y-170622619D01*
X92449523Y-170622619D02*
X92354285Y-170670238D01*
X92354285Y-170670238D02*
X92259047Y-170765476D01*
X92259047Y-170765476D02*
X92211428Y-170955952D01*
X92211428Y-170955952D02*
X92211428Y-171289285D01*
X92211428Y-171289285D02*
X92259047Y-171479761D01*
X92259047Y-171479761D02*
X92354285Y-171575000D01*
X92354285Y-171575000D02*
X92449523Y-171622619D01*
X92449523Y-171622619D02*
X92639999Y-171622619D01*
X92639999Y-171622619D02*
X92735237Y-171575000D01*
X92735237Y-171575000D02*
X92830475Y-171479761D01*
X92830475Y-171479761D02*
X92878094Y-171289285D01*
X92878094Y-171289285D02*
X92878094Y-170955952D01*
X92878094Y-170955952D02*
X92830475Y-170765476D01*
X92830475Y-170765476D02*
X92735237Y-170670238D01*
X92735237Y-170670238D02*
X92639999Y-170622619D01*
X91925713Y-170622619D02*
X91354285Y-170622619D01*
X91639999Y-171622619D02*
X91639999Y-170622619D01*
X90497142Y-171622619D02*
X91068570Y-171622619D01*
X90782856Y-171622619D02*
X90782856Y-170622619D01*
X90782856Y-170622619D02*
X90878094Y-170765476D01*
X90878094Y-170765476D02*
X90973332Y-170860714D01*
X90973332Y-170860714D02*
X91068570Y-170908333D01*
%TO.C,D3*%
X84008094Y-193422619D02*
X84008094Y-192422619D01*
X84008094Y-192422619D02*
X83769999Y-192422619D01*
X83769999Y-192422619D02*
X83627142Y-192470238D01*
X83627142Y-192470238D02*
X83531904Y-192565476D01*
X83531904Y-192565476D02*
X83484285Y-192660714D01*
X83484285Y-192660714D02*
X83436666Y-192851190D01*
X83436666Y-192851190D02*
X83436666Y-192994047D01*
X83436666Y-192994047D02*
X83484285Y-193184523D01*
X83484285Y-193184523D02*
X83531904Y-193279761D01*
X83531904Y-193279761D02*
X83627142Y-193375000D01*
X83627142Y-193375000D02*
X83769999Y-193422619D01*
X83769999Y-193422619D02*
X84008094Y-193422619D01*
X83103332Y-192422619D02*
X82484285Y-192422619D01*
X82484285Y-192422619D02*
X82817618Y-192803571D01*
X82817618Y-192803571D02*
X82674761Y-192803571D01*
X82674761Y-192803571D02*
X82579523Y-192851190D01*
X82579523Y-192851190D02*
X82531904Y-192898809D01*
X82531904Y-192898809D02*
X82484285Y-192994047D01*
X82484285Y-192994047D02*
X82484285Y-193232142D01*
X82484285Y-193232142D02*
X82531904Y-193327380D01*
X82531904Y-193327380D02*
X82579523Y-193375000D01*
X82579523Y-193375000D02*
X82674761Y-193422619D01*
X82674761Y-193422619D02*
X82960475Y-193422619D01*
X82960475Y-193422619D02*
X83055713Y-193375000D01*
X83055713Y-193375000D02*
X83103332Y-193327380D01*
X85008095Y-185502619D02*
X85484285Y-185502619D01*
X85484285Y-185502619D02*
X85484285Y-184502619D01*
X84674761Y-184978809D02*
X84341428Y-184978809D01*
X84198571Y-185502619D02*
X84674761Y-185502619D01*
X84674761Y-185502619D02*
X84674761Y-184502619D01*
X84674761Y-184502619D02*
X84198571Y-184502619D01*
X83769999Y-185502619D02*
X83769999Y-184502619D01*
X83769999Y-184502619D02*
X83531904Y-184502619D01*
X83531904Y-184502619D02*
X83389047Y-184550238D01*
X83389047Y-184550238D02*
X83293809Y-184645476D01*
X83293809Y-184645476D02*
X83246190Y-184740714D01*
X83246190Y-184740714D02*
X83198571Y-184931190D01*
X83198571Y-184931190D02*
X83198571Y-185074047D01*
X83198571Y-185074047D02*
X83246190Y-185264523D01*
X83246190Y-185264523D02*
X83293809Y-185359761D01*
X83293809Y-185359761D02*
X83389047Y-185455000D01*
X83389047Y-185455000D02*
X83531904Y-185502619D01*
X83531904Y-185502619D02*
X83769999Y-185502619D01*
X82769999Y-185121666D02*
X82008095Y-185121666D01*
X82389047Y-185502619D02*
X82389047Y-184740714D01*
X81055714Y-184502619D02*
X81531904Y-184502619D01*
X81531904Y-184502619D02*
X81579523Y-184978809D01*
X81579523Y-184978809D02*
X81531904Y-184931190D01*
X81531904Y-184931190D02*
X81436666Y-184883571D01*
X81436666Y-184883571D02*
X81198571Y-184883571D01*
X81198571Y-184883571D02*
X81103333Y-184931190D01*
X81103333Y-184931190D02*
X81055714Y-184978809D01*
X81055714Y-184978809D02*
X81008095Y-185074047D01*
X81008095Y-185074047D02*
X81008095Y-185312142D01*
X81008095Y-185312142D02*
X81055714Y-185407380D01*
X81055714Y-185407380D02*
X81103333Y-185455000D01*
X81103333Y-185455000D02*
X81198571Y-185502619D01*
X81198571Y-185502619D02*
X81436666Y-185502619D01*
X81436666Y-185502619D02*
X81531904Y-185455000D01*
X81531904Y-185455000D02*
X81579523Y-185407380D01*
D11*
X83840475Y-189370095D02*
X83840475Y-188570095D01*
X83840475Y-188570095D02*
X83649999Y-188570095D01*
X83649999Y-188570095D02*
X83535713Y-188608190D01*
X83535713Y-188608190D02*
X83459523Y-188684380D01*
X83459523Y-188684380D02*
X83421428Y-188760571D01*
X83421428Y-188760571D02*
X83383332Y-188912952D01*
X83383332Y-188912952D02*
X83383332Y-189027238D01*
X83383332Y-189027238D02*
X83421428Y-189179619D01*
X83421428Y-189179619D02*
X83459523Y-189255809D01*
X83459523Y-189255809D02*
X83535713Y-189332000D01*
X83535713Y-189332000D02*
X83649999Y-189370095D01*
X83649999Y-189370095D02*
X83840475Y-189370095D01*
X83116666Y-188570095D02*
X82621428Y-188570095D01*
X82621428Y-188570095D02*
X82888094Y-188874857D01*
X82888094Y-188874857D02*
X82773809Y-188874857D01*
X82773809Y-188874857D02*
X82697618Y-188912952D01*
X82697618Y-188912952D02*
X82659523Y-188951047D01*
X82659523Y-188951047D02*
X82621428Y-189027238D01*
X82621428Y-189027238D02*
X82621428Y-189217714D01*
X82621428Y-189217714D02*
X82659523Y-189293904D01*
X82659523Y-189293904D02*
X82697618Y-189332000D01*
X82697618Y-189332000D02*
X82773809Y-189370095D01*
X82773809Y-189370095D02*
X83002380Y-189370095D01*
X83002380Y-189370095D02*
X83078571Y-189332000D01*
X83078571Y-189332000D02*
X83116666Y-189293904D01*
D10*
%TO.C,D4*%
X94008094Y-193422619D02*
X94008094Y-192422619D01*
X94008094Y-192422619D02*
X93769999Y-192422619D01*
X93769999Y-192422619D02*
X93627142Y-192470238D01*
X93627142Y-192470238D02*
X93531904Y-192565476D01*
X93531904Y-192565476D02*
X93484285Y-192660714D01*
X93484285Y-192660714D02*
X93436666Y-192851190D01*
X93436666Y-192851190D02*
X93436666Y-192994047D01*
X93436666Y-192994047D02*
X93484285Y-193184523D01*
X93484285Y-193184523D02*
X93531904Y-193279761D01*
X93531904Y-193279761D02*
X93627142Y-193375000D01*
X93627142Y-193375000D02*
X93769999Y-193422619D01*
X93769999Y-193422619D02*
X94008094Y-193422619D01*
X92579523Y-192755952D02*
X92579523Y-193422619D01*
X92817618Y-192375000D02*
X93055713Y-193089285D01*
X93055713Y-193089285D02*
X92436666Y-193089285D01*
X95484285Y-185502619D02*
X95960475Y-185502619D01*
X95960475Y-185502619D02*
X95960475Y-184502619D01*
X95150951Y-184978809D02*
X94817618Y-184978809D01*
X94674761Y-185502619D02*
X95150951Y-185502619D01*
X95150951Y-185502619D02*
X95150951Y-184502619D01*
X95150951Y-184502619D02*
X94674761Y-184502619D01*
X94246189Y-185502619D02*
X94246189Y-184502619D01*
X94246189Y-184502619D02*
X94008094Y-184502619D01*
X94008094Y-184502619D02*
X93865237Y-184550238D01*
X93865237Y-184550238D02*
X93769999Y-184645476D01*
X93769999Y-184645476D02*
X93722380Y-184740714D01*
X93722380Y-184740714D02*
X93674761Y-184931190D01*
X93674761Y-184931190D02*
X93674761Y-185074047D01*
X93674761Y-185074047D02*
X93722380Y-185264523D01*
X93722380Y-185264523D02*
X93769999Y-185359761D01*
X93769999Y-185359761D02*
X93865237Y-185455000D01*
X93865237Y-185455000D02*
X94008094Y-185502619D01*
X94008094Y-185502619D02*
X94246189Y-185502619D01*
X93246189Y-185121666D02*
X92484285Y-185121666D01*
X92865237Y-185502619D02*
X92865237Y-184740714D01*
X91484285Y-185502619D02*
X92055713Y-185502619D01*
X91769999Y-185502619D02*
X91769999Y-184502619D01*
X91769999Y-184502619D02*
X91865237Y-184645476D01*
X91865237Y-184645476D02*
X91960475Y-184740714D01*
X91960475Y-184740714D02*
X92055713Y-184788333D01*
X91103332Y-184597857D02*
X91055713Y-184550238D01*
X91055713Y-184550238D02*
X90960475Y-184502619D01*
X90960475Y-184502619D02*
X90722380Y-184502619D01*
X90722380Y-184502619D02*
X90627142Y-184550238D01*
X90627142Y-184550238D02*
X90579523Y-184597857D01*
X90579523Y-184597857D02*
X90531904Y-184693095D01*
X90531904Y-184693095D02*
X90531904Y-184788333D01*
X90531904Y-184788333D02*
X90579523Y-184931190D01*
X90579523Y-184931190D02*
X91150951Y-185502619D01*
X91150951Y-185502619D02*
X90531904Y-185502619D01*
D11*
X93840475Y-189370095D02*
X93840475Y-188570095D01*
X93840475Y-188570095D02*
X93649999Y-188570095D01*
X93649999Y-188570095D02*
X93535713Y-188608190D01*
X93535713Y-188608190D02*
X93459523Y-188684380D01*
X93459523Y-188684380D02*
X93421428Y-188760571D01*
X93421428Y-188760571D02*
X93383332Y-188912952D01*
X93383332Y-188912952D02*
X93383332Y-189027238D01*
X93383332Y-189027238D02*
X93421428Y-189179619D01*
X93421428Y-189179619D02*
X93459523Y-189255809D01*
X93459523Y-189255809D02*
X93535713Y-189332000D01*
X93535713Y-189332000D02*
X93649999Y-189370095D01*
X93649999Y-189370095D02*
X93840475Y-189370095D01*
X92697618Y-188836761D02*
X92697618Y-189370095D01*
X92888094Y-188532000D02*
X93078571Y-189103428D01*
X93078571Y-189103428D02*
X92583332Y-189103428D01*
D10*
%TO.C,D5*%
X104008094Y-193422619D02*
X104008094Y-192422619D01*
X104008094Y-192422619D02*
X103769999Y-192422619D01*
X103769999Y-192422619D02*
X103627142Y-192470238D01*
X103627142Y-192470238D02*
X103531904Y-192565476D01*
X103531904Y-192565476D02*
X103484285Y-192660714D01*
X103484285Y-192660714D02*
X103436666Y-192851190D01*
X103436666Y-192851190D02*
X103436666Y-192994047D01*
X103436666Y-192994047D02*
X103484285Y-193184523D01*
X103484285Y-193184523D02*
X103531904Y-193279761D01*
X103531904Y-193279761D02*
X103627142Y-193375000D01*
X103627142Y-193375000D02*
X103769999Y-193422619D01*
X103769999Y-193422619D02*
X104008094Y-193422619D01*
X102531904Y-192422619D02*
X103008094Y-192422619D01*
X103008094Y-192422619D02*
X103055713Y-192898809D01*
X103055713Y-192898809D02*
X103008094Y-192851190D01*
X103008094Y-192851190D02*
X102912856Y-192803571D01*
X102912856Y-192803571D02*
X102674761Y-192803571D01*
X102674761Y-192803571D02*
X102579523Y-192851190D01*
X102579523Y-192851190D02*
X102531904Y-192898809D01*
X102531904Y-192898809D02*
X102484285Y-192994047D01*
X102484285Y-192994047D02*
X102484285Y-193232142D01*
X102484285Y-193232142D02*
X102531904Y-193327380D01*
X102531904Y-193327380D02*
X102579523Y-193375000D01*
X102579523Y-193375000D02*
X102674761Y-193422619D01*
X102674761Y-193422619D02*
X102912856Y-193422619D01*
X102912856Y-193422619D02*
X103008094Y-193375000D01*
X103008094Y-193375000D02*
X103055713Y-193327380D01*
X105484285Y-185502619D02*
X105960475Y-185502619D01*
X105960475Y-185502619D02*
X105960475Y-184502619D01*
X105150951Y-184978809D02*
X104817618Y-184978809D01*
X104674761Y-185502619D02*
X105150951Y-185502619D01*
X105150951Y-185502619D02*
X105150951Y-184502619D01*
X105150951Y-184502619D02*
X104674761Y-184502619D01*
X104246189Y-185502619D02*
X104246189Y-184502619D01*
X104246189Y-184502619D02*
X104008094Y-184502619D01*
X104008094Y-184502619D02*
X103865237Y-184550238D01*
X103865237Y-184550238D02*
X103769999Y-184645476D01*
X103769999Y-184645476D02*
X103722380Y-184740714D01*
X103722380Y-184740714D02*
X103674761Y-184931190D01*
X103674761Y-184931190D02*
X103674761Y-185074047D01*
X103674761Y-185074047D02*
X103722380Y-185264523D01*
X103722380Y-185264523D02*
X103769999Y-185359761D01*
X103769999Y-185359761D02*
X103865237Y-185455000D01*
X103865237Y-185455000D02*
X104008094Y-185502619D01*
X104008094Y-185502619D02*
X104246189Y-185502619D01*
X103246189Y-185121666D02*
X102484285Y-185121666D01*
X101484285Y-185502619D02*
X102055713Y-185502619D01*
X101769999Y-185502619D02*
X101769999Y-184502619D01*
X101769999Y-184502619D02*
X101865237Y-184645476D01*
X101865237Y-184645476D02*
X101960475Y-184740714D01*
X101960475Y-184740714D02*
X102055713Y-184788333D01*
X101103332Y-184597857D02*
X101055713Y-184550238D01*
X101055713Y-184550238D02*
X100960475Y-184502619D01*
X100960475Y-184502619D02*
X100722380Y-184502619D01*
X100722380Y-184502619D02*
X100627142Y-184550238D01*
X100627142Y-184550238D02*
X100579523Y-184597857D01*
X100579523Y-184597857D02*
X100531904Y-184693095D01*
X100531904Y-184693095D02*
X100531904Y-184788333D01*
X100531904Y-184788333D02*
X100579523Y-184931190D01*
X100579523Y-184931190D02*
X101150951Y-185502619D01*
X101150951Y-185502619D02*
X100531904Y-185502619D01*
D11*
X103840475Y-189370095D02*
X103840475Y-188570095D01*
X103840475Y-188570095D02*
X103649999Y-188570095D01*
X103649999Y-188570095D02*
X103535713Y-188608190D01*
X103535713Y-188608190D02*
X103459523Y-188684380D01*
X103459523Y-188684380D02*
X103421428Y-188760571D01*
X103421428Y-188760571D02*
X103383332Y-188912952D01*
X103383332Y-188912952D02*
X103383332Y-189027238D01*
X103383332Y-189027238D02*
X103421428Y-189179619D01*
X103421428Y-189179619D02*
X103459523Y-189255809D01*
X103459523Y-189255809D02*
X103535713Y-189332000D01*
X103535713Y-189332000D02*
X103649999Y-189370095D01*
X103649999Y-189370095D02*
X103840475Y-189370095D01*
X102659523Y-188570095D02*
X103040475Y-188570095D01*
X103040475Y-188570095D02*
X103078571Y-188951047D01*
X103078571Y-188951047D02*
X103040475Y-188912952D01*
X103040475Y-188912952D02*
X102964285Y-188874857D01*
X102964285Y-188874857D02*
X102773809Y-188874857D01*
X102773809Y-188874857D02*
X102697618Y-188912952D01*
X102697618Y-188912952D02*
X102659523Y-188951047D01*
X102659523Y-188951047D02*
X102621428Y-189027238D01*
X102621428Y-189027238D02*
X102621428Y-189217714D01*
X102621428Y-189217714D02*
X102659523Y-189293904D01*
X102659523Y-189293904D02*
X102697618Y-189332000D01*
X102697618Y-189332000D02*
X102773809Y-189370095D01*
X102773809Y-189370095D02*
X102964285Y-189370095D01*
X102964285Y-189370095D02*
X103040475Y-189332000D01*
X103040475Y-189332000D02*
X103078571Y-189293904D01*
D10*
%TO.C,D7*%
X74008094Y-193422619D02*
X74008094Y-192422619D01*
X74008094Y-192422619D02*
X73769999Y-192422619D01*
X73769999Y-192422619D02*
X73627142Y-192470238D01*
X73627142Y-192470238D02*
X73531904Y-192565476D01*
X73531904Y-192565476D02*
X73484285Y-192660714D01*
X73484285Y-192660714D02*
X73436666Y-192851190D01*
X73436666Y-192851190D02*
X73436666Y-192994047D01*
X73436666Y-192994047D02*
X73484285Y-193184523D01*
X73484285Y-193184523D02*
X73531904Y-193279761D01*
X73531904Y-193279761D02*
X73627142Y-193375000D01*
X73627142Y-193375000D02*
X73769999Y-193422619D01*
X73769999Y-193422619D02*
X74008094Y-193422619D01*
X73103332Y-192422619D02*
X72436666Y-192422619D01*
X72436666Y-192422619D02*
X72865237Y-193422619D01*
X75722380Y-185502619D02*
X76198570Y-185502619D01*
X76198570Y-185502619D02*
X76198570Y-184502619D01*
X75389046Y-184978809D02*
X75055713Y-184978809D01*
X74912856Y-185502619D02*
X75389046Y-185502619D01*
X75389046Y-185502619D02*
X75389046Y-184502619D01*
X75389046Y-184502619D02*
X74912856Y-184502619D01*
X74484284Y-185502619D02*
X74484284Y-184502619D01*
X74484284Y-184502619D02*
X74246189Y-184502619D01*
X74246189Y-184502619D02*
X74103332Y-184550238D01*
X74103332Y-184550238D02*
X74008094Y-184645476D01*
X74008094Y-184645476D02*
X73960475Y-184740714D01*
X73960475Y-184740714D02*
X73912856Y-184931190D01*
X73912856Y-184931190D02*
X73912856Y-185074047D01*
X73912856Y-185074047D02*
X73960475Y-185264523D01*
X73960475Y-185264523D02*
X74008094Y-185359761D01*
X74008094Y-185359761D02*
X74103332Y-185455000D01*
X74103332Y-185455000D02*
X74246189Y-185502619D01*
X74246189Y-185502619D02*
X74484284Y-185502619D01*
X73484284Y-185121666D02*
X72722380Y-185121666D01*
X73103332Y-185502619D02*
X73103332Y-184740714D01*
X72341427Y-184502619D02*
X71722380Y-184502619D01*
X71722380Y-184502619D02*
X72055713Y-184883571D01*
X72055713Y-184883571D02*
X71912856Y-184883571D01*
X71912856Y-184883571D02*
X71817618Y-184931190D01*
X71817618Y-184931190D02*
X71769999Y-184978809D01*
X71769999Y-184978809D02*
X71722380Y-185074047D01*
X71722380Y-185074047D02*
X71722380Y-185312142D01*
X71722380Y-185312142D02*
X71769999Y-185407380D01*
X71769999Y-185407380D02*
X71817618Y-185455000D01*
X71817618Y-185455000D02*
X71912856Y-185502619D01*
X71912856Y-185502619D02*
X72198570Y-185502619D01*
X72198570Y-185502619D02*
X72293808Y-185455000D01*
X72293808Y-185455000D02*
X72341427Y-185407380D01*
X71293808Y-185407380D02*
X71246189Y-185455000D01*
X71246189Y-185455000D02*
X71293808Y-185502619D01*
X71293808Y-185502619D02*
X71341427Y-185455000D01*
X71341427Y-185455000D02*
X71293808Y-185407380D01*
X71293808Y-185407380D02*
X71293808Y-185502619D01*
X70912856Y-184502619D02*
X70293809Y-184502619D01*
X70293809Y-184502619D02*
X70627142Y-184883571D01*
X70627142Y-184883571D02*
X70484285Y-184883571D01*
X70484285Y-184883571D02*
X70389047Y-184931190D01*
X70389047Y-184931190D02*
X70341428Y-184978809D01*
X70341428Y-184978809D02*
X70293809Y-185074047D01*
X70293809Y-185074047D02*
X70293809Y-185312142D01*
X70293809Y-185312142D02*
X70341428Y-185407380D01*
X70341428Y-185407380D02*
X70389047Y-185455000D01*
X70389047Y-185455000D02*
X70484285Y-185502619D01*
X70484285Y-185502619D02*
X70769999Y-185502619D01*
X70769999Y-185502619D02*
X70865237Y-185455000D01*
X70865237Y-185455000D02*
X70912856Y-185407380D01*
D11*
X73840475Y-189370095D02*
X73840475Y-188570095D01*
X73840475Y-188570095D02*
X73649999Y-188570095D01*
X73649999Y-188570095D02*
X73535713Y-188608190D01*
X73535713Y-188608190D02*
X73459523Y-188684380D01*
X73459523Y-188684380D02*
X73421428Y-188760571D01*
X73421428Y-188760571D02*
X73383332Y-188912952D01*
X73383332Y-188912952D02*
X73383332Y-189027238D01*
X73383332Y-189027238D02*
X73421428Y-189179619D01*
X73421428Y-189179619D02*
X73459523Y-189255809D01*
X73459523Y-189255809D02*
X73535713Y-189332000D01*
X73535713Y-189332000D02*
X73649999Y-189370095D01*
X73649999Y-189370095D02*
X73840475Y-189370095D01*
X73116666Y-188570095D02*
X72583332Y-188570095D01*
X72583332Y-188570095D02*
X72926190Y-189370095D01*
D10*
%TO.C,D6*%
X64433094Y-164820619D02*
X64433094Y-163820619D01*
X64433094Y-163820619D02*
X64194999Y-163820619D01*
X64194999Y-163820619D02*
X64052142Y-163868238D01*
X64052142Y-163868238D02*
X63956904Y-163963476D01*
X63956904Y-163963476D02*
X63909285Y-164058714D01*
X63909285Y-164058714D02*
X63861666Y-164249190D01*
X63861666Y-164249190D02*
X63861666Y-164392047D01*
X63861666Y-164392047D02*
X63909285Y-164582523D01*
X63909285Y-164582523D02*
X63956904Y-164677761D01*
X63956904Y-164677761D02*
X64052142Y-164773000D01*
X64052142Y-164773000D02*
X64194999Y-164820619D01*
X64194999Y-164820619D02*
X64433094Y-164820619D01*
X63004523Y-163820619D02*
X63194999Y-163820619D01*
X63194999Y-163820619D02*
X63290237Y-163868238D01*
X63290237Y-163868238D02*
X63337856Y-163915857D01*
X63337856Y-163915857D02*
X63433094Y-164058714D01*
X63433094Y-164058714D02*
X63480713Y-164249190D01*
X63480713Y-164249190D02*
X63480713Y-164630142D01*
X63480713Y-164630142D02*
X63433094Y-164725380D01*
X63433094Y-164725380D02*
X63385475Y-164773000D01*
X63385475Y-164773000D02*
X63290237Y-164820619D01*
X63290237Y-164820619D02*
X63099761Y-164820619D01*
X63099761Y-164820619D02*
X63004523Y-164773000D01*
X63004523Y-164773000D02*
X62956904Y-164725380D01*
X62956904Y-164725380D02*
X62909285Y-164630142D01*
X62909285Y-164630142D02*
X62909285Y-164392047D01*
X62909285Y-164392047D02*
X62956904Y-164296809D01*
X62956904Y-164296809D02*
X63004523Y-164249190D01*
X63004523Y-164249190D02*
X63099761Y-164201571D01*
X63099761Y-164201571D02*
X63290237Y-164201571D01*
X63290237Y-164201571D02*
X63385475Y-164249190D01*
X63385475Y-164249190D02*
X63433094Y-164296809D01*
X63433094Y-164296809D02*
X63480713Y-164392047D01*
X66722857Y-165009619D02*
X67199047Y-165009619D01*
X67199047Y-165009619D02*
X67199047Y-164009619D01*
X66389523Y-164485809D02*
X66056190Y-164485809D01*
X65913333Y-165009619D02*
X66389523Y-165009619D01*
X66389523Y-165009619D02*
X66389523Y-164009619D01*
X66389523Y-164009619D02*
X65913333Y-164009619D01*
X65484761Y-165009619D02*
X65484761Y-164009619D01*
X65484761Y-164009619D02*
X65246666Y-164009619D01*
X65246666Y-164009619D02*
X65103809Y-164057238D01*
X65103809Y-164057238D02*
X65008571Y-164152476D01*
X65008571Y-164152476D02*
X64960952Y-164247714D01*
X64960952Y-164247714D02*
X64913333Y-164438190D01*
X64913333Y-164438190D02*
X64913333Y-164581047D01*
X64913333Y-164581047D02*
X64960952Y-164771523D01*
X64960952Y-164771523D02*
X65008571Y-164866761D01*
X65008571Y-164866761D02*
X65103809Y-164962000D01*
X65103809Y-164962000D02*
X65246666Y-165009619D01*
X65246666Y-165009619D02*
X65484761Y-165009619D01*
D11*
X63930475Y-160800095D02*
X63930475Y-160000095D01*
X63930475Y-160000095D02*
X63739999Y-160000095D01*
X63739999Y-160000095D02*
X63625713Y-160038190D01*
X63625713Y-160038190D02*
X63549523Y-160114380D01*
X63549523Y-160114380D02*
X63511428Y-160190571D01*
X63511428Y-160190571D02*
X63473332Y-160342952D01*
X63473332Y-160342952D02*
X63473332Y-160457238D01*
X63473332Y-160457238D02*
X63511428Y-160609619D01*
X63511428Y-160609619D02*
X63549523Y-160685809D01*
X63549523Y-160685809D02*
X63625713Y-160762000D01*
X63625713Y-160762000D02*
X63739999Y-160800095D01*
X63739999Y-160800095D02*
X63930475Y-160800095D01*
X62787618Y-160000095D02*
X62939999Y-160000095D01*
X62939999Y-160000095D02*
X63016190Y-160038190D01*
X63016190Y-160038190D02*
X63054285Y-160076285D01*
X63054285Y-160076285D02*
X63130475Y-160190571D01*
X63130475Y-160190571D02*
X63168571Y-160342952D01*
X63168571Y-160342952D02*
X63168571Y-160647714D01*
X63168571Y-160647714D02*
X63130475Y-160723904D01*
X63130475Y-160723904D02*
X63092380Y-160762000D01*
X63092380Y-160762000D02*
X63016190Y-160800095D01*
X63016190Y-160800095D02*
X62863809Y-160800095D01*
X62863809Y-160800095D02*
X62787618Y-160762000D01*
X62787618Y-160762000D02*
X62749523Y-160723904D01*
X62749523Y-160723904D02*
X62711428Y-160647714D01*
X62711428Y-160647714D02*
X62711428Y-160457238D01*
X62711428Y-160457238D02*
X62749523Y-160381047D01*
X62749523Y-160381047D02*
X62787618Y-160342952D01*
X62787618Y-160342952D02*
X62863809Y-160304857D01*
X62863809Y-160304857D02*
X63016190Y-160304857D01*
X63016190Y-160304857D02*
X63092380Y-160342952D01*
X63092380Y-160342952D02*
X63130475Y-160381047D01*
X63130475Y-160381047D02*
X63168571Y-160457238D01*
D12*
%TO.C,PW_POT1*%
X85480000Y-168120000D02*
X85480000Y-164183000D01*
X87130000Y-168120000D02*
X85480000Y-168120000D01*
X89629000Y-168120000D02*
X88870000Y-168120000D01*
X92129000Y-168120000D02*
X91370000Y-168120000D01*
X95521000Y-168120000D02*
X93871000Y-168120000D01*
X95521000Y-168120000D02*
X95521000Y-164183000D01*
D13*
X85600000Y-168000000D02*
X85600000Y-156000000D01*
X95400000Y-168000000D02*
X85600000Y-168000000D01*
D12*
X85480000Y-159816000D02*
X85480000Y-155880000D01*
X95521000Y-159816000D02*
X95521000Y-155880000D01*
D13*
X85600000Y-156000000D02*
X95400000Y-156000000D01*
X95400000Y-156000000D02*
X95400000Y-168000000D01*
D12*
X95521000Y-155880000D02*
X85480000Y-155880000D01*
D13*
X93500000Y-161500000D02*
G75*
G03*
X93500000Y-161500000I-3000000J0D01*
G01*
D12*
%TO.C,D3*%
X80710000Y-190545000D02*
X80710000Y-187455000D01*
D13*
X80770000Y-190469694D02*
X80770000Y-187530306D01*
D12*
X86259999Y-189000462D02*
G75*
G03*
X80710001Y-187455170I-2989999J462D01*
G01*
D13*
X80770001Y-190469693D02*
G75*
G03*
X80769985Y-187530334I2499999J1469693D01*
G01*
D12*
X80710000Y-190544830D02*
G75*
G03*
X86260000Y-188999538I2560000J1544830D01*
G01*
D13*
X85770000Y-189000000D02*
G75*
G03*
X85770000Y-189000000I-2500000J0D01*
G01*
D12*
X85770000Y-189000000D02*
G75*
G03*
X85770000Y-189000000I-2500000J0D01*
G01*
%TO.C,D4*%
X90710000Y-190545000D02*
X90710000Y-187455000D01*
D13*
X90770000Y-190469694D02*
X90770000Y-187530306D01*
D12*
X96259999Y-189000462D02*
G75*
G03*
X90710001Y-187455170I-2989999J462D01*
G01*
D13*
X90770001Y-190469693D02*
G75*
G03*
X90769985Y-187530334I2499999J1469693D01*
G01*
D12*
X90710000Y-190544830D02*
G75*
G03*
X96260000Y-188999538I2560000J1544830D01*
G01*
D13*
X95770000Y-189000000D02*
G75*
G03*
X95770000Y-189000000I-2500000J0D01*
G01*
D12*
X95770000Y-189000000D02*
G75*
G03*
X95770000Y-189000000I-2500000J0D01*
G01*
%TO.C,D5*%
X100710000Y-190545000D02*
X100710000Y-187455000D01*
D13*
X100770000Y-190469694D02*
X100770000Y-187530306D01*
D12*
X106259999Y-189000462D02*
G75*
G03*
X100710001Y-187455170I-2989999J462D01*
G01*
D13*
X100770001Y-190469693D02*
G75*
G03*
X100769985Y-187530334I2499999J1469693D01*
G01*
D12*
X100710000Y-190544830D02*
G75*
G03*
X106260000Y-188999538I2560000J1544830D01*
G01*
D13*
X105770000Y-189000000D02*
G75*
G03*
X105770000Y-189000000I-2500000J0D01*
G01*
D12*
X105770000Y-189000000D02*
G75*
G03*
X105770000Y-189000000I-2500000J0D01*
G01*
%TO.C,D7*%
X70710000Y-190545000D02*
X70710000Y-187455000D01*
D13*
X70770000Y-190469694D02*
X70770000Y-187530306D01*
D12*
X76259999Y-189000462D02*
G75*
G03*
X70710001Y-187455170I-2989999J462D01*
G01*
D13*
X70770001Y-190469693D02*
G75*
G03*
X70769985Y-187530334I2499999J1469693D01*
G01*
D12*
X70710000Y-190544830D02*
G75*
G03*
X76260000Y-188999538I2560000J1544830D01*
G01*
D13*
X75770000Y-189000000D02*
G75*
G03*
X75770000Y-189000000I-2500000J0D01*
G01*
D12*
X75770000Y-189000000D02*
G75*
G03*
X75770000Y-189000000I-2500000J0D01*
G01*
%TO.C,D6*%
X65880000Y-158885000D02*
X65880000Y-161975000D01*
D13*
X65820000Y-158960306D02*
X65820000Y-161899694D01*
D12*
X60330001Y-160429538D02*
G75*
G03*
X65879999Y-161974830I2989999J-462D01*
G01*
D13*
X65819999Y-158960307D02*
G75*
G03*
X65820015Y-161899666I-2499999J-1469693D01*
G01*
D12*
X65880000Y-158885170D02*
G75*
G03*
X60330000Y-160430462I-2560000J-1544830D01*
G01*
D13*
X65820000Y-160430000D02*
G75*
G03*
X65820000Y-160430000I-2500000J0D01*
G01*
D12*
X65820000Y-160430000D02*
G75*
G03*
X65820000Y-160430000I-2500000J0D01*
G01*
%TD*%
M02*
