%TF.GenerationSoftware,KiCad,Pcbnew,(5.1.7)-1*%
%TF.CreationDate,2023-03-08T08:19:23+00:00*%
%TF.ProjectId,KOSMO-POLY6-PICO-DCO-MB,4b4f534d-4f2d-4504-9f4c-59362d504943,v0.1.1*%
%TF.SameCoordinates,Original*%
%TF.FileFunction,Legend,Bot*%
%TF.FilePolarity,Positive*%
%FSLAX46Y46*%
G04 Gerber Fmt 4.6, Leading zero omitted, Abs format (unit mm)*
G04 Created by KiCad (PCBNEW (5.1.7)-1) date 2023-03-08 08:19:23*
%MOMM*%
%LPD*%
G01*
G04 APERTURE LIST*
%ADD10C,0.100000*%
%ADD11C,0.120000*%
%ADD12C,0.150000*%
%ADD13C,0.200000*%
G04 APERTURE END LIST*
D10*
%TO.C,D7*%
X75770000Y-189000000D02*
G75*
G03*
X75770000Y-189000000I-2500000J0D01*
G01*
D11*
X75770000Y-189000000D02*
G75*
G03*
X75770000Y-189000000I-2500000J0D01*
G01*
D10*
X70770000Y-190469694D02*
X70770000Y-187530306D01*
D11*
X70710000Y-190545000D02*
X70710000Y-187455000D01*
X76260000Y-189000462D02*
G75*
G03*
X70710000Y-187455170I-2990000J462D01*
G01*
X76260000Y-188999538D02*
G75*
G02*
X70710000Y-190544830I-2990000J-462D01*
G01*
D10*
X70769984Y-187530334D02*
G75*
G02*
X70770000Y-190469694I2500016J-1469666D01*
G01*
%TO.C,D6*%
X65820000Y-160430000D02*
G75*
G03*
X65820000Y-160430000I-2500000J0D01*
G01*
D11*
X65820000Y-160430000D02*
G75*
G03*
X65820000Y-160430000I-2500000J0D01*
G01*
D10*
X65820000Y-158960306D02*
X65820000Y-161899694D01*
D11*
X65880000Y-158885000D02*
X65880000Y-161975000D01*
X60330000Y-160429538D02*
G75*
G03*
X65880000Y-161974830I2990000J-462D01*
G01*
X60330000Y-160430462D02*
G75*
G02*
X65880000Y-158885170I2990000J462D01*
G01*
D10*
X65820016Y-161899666D02*
G75*
G02*
X65820000Y-158960306I-2500016J1469666D01*
G01*
D11*
%TO.C,D5*%
X100710000Y-190545000D02*
X100710000Y-187455000D01*
D10*
X100770000Y-190469694D02*
X100770000Y-187530306D01*
D11*
X105770000Y-189000000D02*
G75*
G03*
X105770000Y-189000000I-2500000J0D01*
G01*
D10*
X105770000Y-189000000D02*
G75*
G03*
X105770000Y-189000000I-2500000J0D01*
G01*
D11*
X106260000Y-189000462D02*
G75*
G03*
X100710000Y-187455170I-2990000J462D01*
G01*
X106260000Y-188999538D02*
G75*
G02*
X100710000Y-190544830I-2990000J-462D01*
G01*
D10*
X100769984Y-187530334D02*
G75*
G02*
X100770000Y-190469694I2500016J-1469666D01*
G01*
D11*
%TO.C,D4*%
X90710000Y-190545000D02*
X90710000Y-187455000D01*
D10*
X90770000Y-190469694D02*
X90770000Y-187530306D01*
D11*
X95770000Y-189000000D02*
G75*
G03*
X95770000Y-189000000I-2500000J0D01*
G01*
D10*
X95770000Y-189000000D02*
G75*
G03*
X95770000Y-189000000I-2500000J0D01*
G01*
D11*
X96260000Y-189000462D02*
G75*
G03*
X90710000Y-187455170I-2990000J462D01*
G01*
X96260000Y-188999538D02*
G75*
G02*
X90710000Y-190544830I-2990000J-462D01*
G01*
D10*
X90769984Y-187530334D02*
G75*
G02*
X90770000Y-190469694I2500016J-1469666D01*
G01*
D11*
%TO.C,PW_POT1*%
X95521000Y-155880000D02*
X85480000Y-155880000D01*
X87130000Y-168120000D02*
X85480000Y-168120000D01*
X89629000Y-168120000D02*
X88870000Y-168120000D01*
X92129000Y-168120000D02*
X91370000Y-168120000D01*
X95521000Y-168120000D02*
X93871000Y-168120000D01*
X85480000Y-159816000D02*
X85480000Y-155880000D01*
X85480000Y-168120000D02*
X85480000Y-164183000D01*
X95521000Y-159816000D02*
X95521000Y-155880000D01*
X95521000Y-168120000D02*
X95521000Y-164183000D01*
D10*
X95400000Y-156000000D02*
X95400000Y-168000000D01*
X85600000Y-156000000D02*
X95400000Y-156000000D01*
X85600000Y-168000000D02*
X85600000Y-156000000D01*
X95400000Y-168000000D02*
X85600000Y-168000000D01*
X93500000Y-161500000D02*
G75*
G03*
X93500000Y-161500000I-3000000J0D01*
G01*
%TO.C,D3*%
X85770000Y-189000000D02*
G75*
G03*
X85770000Y-189000000I-2500000J0D01*
G01*
D11*
X85770000Y-189000000D02*
G75*
G03*
X85770000Y-189000000I-2500000J0D01*
G01*
D10*
X80770000Y-190469694D02*
X80770000Y-187530306D01*
D11*
X80710000Y-190545000D02*
X80710000Y-187455000D01*
X86260000Y-189000462D02*
G75*
G03*
X80710000Y-187455170I-2990000J462D01*
G01*
X86260000Y-188999538D02*
G75*
G02*
X80710000Y-190544830I-2990000J-462D01*
G01*
D10*
X80769984Y-187530334D02*
G75*
G02*
X80770000Y-190469694I2500016J-1469666D01*
G01*
%TO.C,D7*%
D12*
X74008095Y-193412380D02*
X74008095Y-192412380D01*
X73770000Y-192412380D01*
X73627142Y-192460000D01*
X73531904Y-192555238D01*
X73484285Y-192650476D01*
X73436666Y-192840952D01*
X73436666Y-192983809D01*
X73484285Y-193174285D01*
X73531904Y-193269523D01*
X73627142Y-193364761D01*
X73770000Y-193412380D01*
X74008095Y-193412380D01*
X73103333Y-192412380D02*
X72436666Y-192412380D01*
X72865238Y-193412380D01*
X75722380Y-185492380D02*
X76198571Y-185492380D01*
X76198571Y-184492380D01*
X75389047Y-184968571D02*
X75055714Y-184968571D01*
X74912857Y-185492380D02*
X75389047Y-185492380D01*
X75389047Y-184492380D01*
X74912857Y-184492380D01*
X74484285Y-185492380D02*
X74484285Y-184492380D01*
X74246190Y-184492380D01*
X74103333Y-184540000D01*
X74008095Y-184635238D01*
X73960476Y-184730476D01*
X73912857Y-184920952D01*
X73912857Y-185063809D01*
X73960476Y-185254285D01*
X74008095Y-185349523D01*
X74103333Y-185444761D01*
X74246190Y-185492380D01*
X74484285Y-185492380D01*
X73484285Y-185111428D02*
X72722380Y-185111428D01*
X73103333Y-185492380D02*
X73103333Y-184730476D01*
X72341428Y-184492380D02*
X71722380Y-184492380D01*
X72055714Y-184873333D01*
X71912857Y-184873333D01*
X71817619Y-184920952D01*
X71770000Y-184968571D01*
X71722380Y-185063809D01*
X71722380Y-185301904D01*
X71770000Y-185397142D01*
X71817619Y-185444761D01*
X71912857Y-185492380D01*
X72198571Y-185492380D01*
X72293809Y-185444761D01*
X72341428Y-185397142D01*
X71293809Y-185397142D02*
X71246190Y-185444761D01*
X71293809Y-185492380D01*
X71341428Y-185444761D01*
X71293809Y-185397142D01*
X71293809Y-185492380D01*
X70912857Y-184492380D02*
X70293809Y-184492380D01*
X70627142Y-184873333D01*
X70484285Y-184873333D01*
X70389047Y-184920952D01*
X70341428Y-184968571D01*
X70293809Y-185063809D01*
X70293809Y-185301904D01*
X70341428Y-185397142D01*
X70389047Y-185444761D01*
X70484285Y-185492380D01*
X70770000Y-185492380D01*
X70865238Y-185444761D01*
X70912857Y-185397142D01*
D13*
X73840476Y-189361904D02*
X73840476Y-188561904D01*
X73650000Y-188561904D01*
X73535714Y-188600000D01*
X73459523Y-188676190D01*
X73421428Y-188752380D01*
X73383333Y-188904761D01*
X73383333Y-189019047D01*
X73421428Y-189171428D01*
X73459523Y-189247619D01*
X73535714Y-189323809D01*
X73650000Y-189361904D01*
X73840476Y-189361904D01*
X73116666Y-188561904D02*
X72583333Y-188561904D01*
X72926190Y-189361904D01*
%TO.C,D6*%
D12*
X64433095Y-164810380D02*
X64433095Y-163810380D01*
X64195000Y-163810380D01*
X64052142Y-163858000D01*
X63956904Y-163953238D01*
X63909285Y-164048476D01*
X63861666Y-164238952D01*
X63861666Y-164381809D01*
X63909285Y-164572285D01*
X63956904Y-164667523D01*
X64052142Y-164762761D01*
X64195000Y-164810380D01*
X64433095Y-164810380D01*
X63004523Y-163810380D02*
X63195000Y-163810380D01*
X63290238Y-163858000D01*
X63337857Y-163905619D01*
X63433095Y-164048476D01*
X63480714Y-164238952D01*
X63480714Y-164619904D01*
X63433095Y-164715142D01*
X63385476Y-164762761D01*
X63290238Y-164810380D01*
X63099761Y-164810380D01*
X63004523Y-164762761D01*
X62956904Y-164715142D01*
X62909285Y-164619904D01*
X62909285Y-164381809D01*
X62956904Y-164286571D01*
X63004523Y-164238952D01*
X63099761Y-164191333D01*
X63290238Y-164191333D01*
X63385476Y-164238952D01*
X63433095Y-164286571D01*
X63480714Y-164381809D01*
X66722857Y-164999380D02*
X67199047Y-164999380D01*
X67199047Y-163999380D01*
X66389523Y-164475571D02*
X66056190Y-164475571D01*
X65913333Y-164999380D02*
X66389523Y-164999380D01*
X66389523Y-163999380D01*
X65913333Y-163999380D01*
X65484761Y-164999380D02*
X65484761Y-163999380D01*
X65246666Y-163999380D01*
X65103809Y-164047000D01*
X65008571Y-164142238D01*
X64960952Y-164237476D01*
X64913333Y-164427952D01*
X64913333Y-164570809D01*
X64960952Y-164761285D01*
X65008571Y-164856523D01*
X65103809Y-164951761D01*
X65246666Y-164999380D01*
X65484761Y-164999380D01*
D13*
X63930476Y-160791904D02*
X63930476Y-159991904D01*
X63740000Y-159991904D01*
X63625714Y-160030000D01*
X63549523Y-160106190D01*
X63511428Y-160182380D01*
X63473333Y-160334761D01*
X63473333Y-160449047D01*
X63511428Y-160601428D01*
X63549523Y-160677619D01*
X63625714Y-160753809D01*
X63740000Y-160791904D01*
X63930476Y-160791904D01*
X62787619Y-159991904D02*
X62940000Y-159991904D01*
X63016190Y-160030000D01*
X63054285Y-160068095D01*
X63130476Y-160182380D01*
X63168571Y-160334761D01*
X63168571Y-160639523D01*
X63130476Y-160715714D01*
X63092380Y-160753809D01*
X63016190Y-160791904D01*
X62863809Y-160791904D01*
X62787619Y-160753809D01*
X62749523Y-160715714D01*
X62711428Y-160639523D01*
X62711428Y-160449047D01*
X62749523Y-160372857D01*
X62787619Y-160334761D01*
X62863809Y-160296666D01*
X63016190Y-160296666D01*
X63092380Y-160334761D01*
X63130476Y-160372857D01*
X63168571Y-160449047D01*
%TO.C,D5*%
D12*
X104008095Y-193412380D02*
X104008095Y-192412380D01*
X103770000Y-192412380D01*
X103627142Y-192460000D01*
X103531904Y-192555238D01*
X103484285Y-192650476D01*
X103436666Y-192840952D01*
X103436666Y-192983809D01*
X103484285Y-193174285D01*
X103531904Y-193269523D01*
X103627142Y-193364761D01*
X103770000Y-193412380D01*
X104008095Y-193412380D01*
X102531904Y-192412380D02*
X103008095Y-192412380D01*
X103055714Y-192888571D01*
X103008095Y-192840952D01*
X102912857Y-192793333D01*
X102674761Y-192793333D01*
X102579523Y-192840952D01*
X102531904Y-192888571D01*
X102484285Y-192983809D01*
X102484285Y-193221904D01*
X102531904Y-193317142D01*
X102579523Y-193364761D01*
X102674761Y-193412380D01*
X102912857Y-193412380D01*
X103008095Y-193364761D01*
X103055714Y-193317142D01*
X105484285Y-185492380D02*
X105960476Y-185492380D01*
X105960476Y-184492380D01*
X105150952Y-184968571D02*
X104817619Y-184968571D01*
X104674761Y-185492380D02*
X105150952Y-185492380D01*
X105150952Y-184492380D01*
X104674761Y-184492380D01*
X104246190Y-185492380D02*
X104246190Y-184492380D01*
X104008095Y-184492380D01*
X103865238Y-184540000D01*
X103770000Y-184635238D01*
X103722380Y-184730476D01*
X103674761Y-184920952D01*
X103674761Y-185063809D01*
X103722380Y-185254285D01*
X103770000Y-185349523D01*
X103865238Y-185444761D01*
X104008095Y-185492380D01*
X104246190Y-185492380D01*
X103246190Y-185111428D02*
X102484285Y-185111428D01*
X101484285Y-185492380D02*
X102055714Y-185492380D01*
X101770000Y-185492380D02*
X101770000Y-184492380D01*
X101865238Y-184635238D01*
X101960476Y-184730476D01*
X102055714Y-184778095D01*
X101103333Y-184587619D02*
X101055714Y-184540000D01*
X100960476Y-184492380D01*
X100722380Y-184492380D01*
X100627142Y-184540000D01*
X100579523Y-184587619D01*
X100531904Y-184682857D01*
X100531904Y-184778095D01*
X100579523Y-184920952D01*
X101150952Y-185492380D01*
X100531904Y-185492380D01*
D13*
X103840476Y-189361904D02*
X103840476Y-188561904D01*
X103650000Y-188561904D01*
X103535714Y-188600000D01*
X103459523Y-188676190D01*
X103421428Y-188752380D01*
X103383333Y-188904761D01*
X103383333Y-189019047D01*
X103421428Y-189171428D01*
X103459523Y-189247619D01*
X103535714Y-189323809D01*
X103650000Y-189361904D01*
X103840476Y-189361904D01*
X102659523Y-188561904D02*
X103040476Y-188561904D01*
X103078571Y-188942857D01*
X103040476Y-188904761D01*
X102964285Y-188866666D01*
X102773809Y-188866666D01*
X102697619Y-188904761D01*
X102659523Y-188942857D01*
X102621428Y-189019047D01*
X102621428Y-189209523D01*
X102659523Y-189285714D01*
X102697619Y-189323809D01*
X102773809Y-189361904D01*
X102964285Y-189361904D01*
X103040476Y-189323809D01*
X103078571Y-189285714D01*
%TO.C,D4*%
D12*
X94008095Y-193412380D02*
X94008095Y-192412380D01*
X93770000Y-192412380D01*
X93627142Y-192460000D01*
X93531904Y-192555238D01*
X93484285Y-192650476D01*
X93436666Y-192840952D01*
X93436666Y-192983809D01*
X93484285Y-193174285D01*
X93531904Y-193269523D01*
X93627142Y-193364761D01*
X93770000Y-193412380D01*
X94008095Y-193412380D01*
X92579523Y-192745714D02*
X92579523Y-193412380D01*
X92817619Y-192364761D02*
X93055714Y-193079047D01*
X92436666Y-193079047D01*
X95484285Y-185492380D02*
X95960476Y-185492380D01*
X95960476Y-184492380D01*
X95150952Y-184968571D02*
X94817619Y-184968571D01*
X94674761Y-185492380D02*
X95150952Y-185492380D01*
X95150952Y-184492380D01*
X94674761Y-184492380D01*
X94246190Y-185492380D02*
X94246190Y-184492380D01*
X94008095Y-184492380D01*
X93865238Y-184540000D01*
X93770000Y-184635238D01*
X93722380Y-184730476D01*
X93674761Y-184920952D01*
X93674761Y-185063809D01*
X93722380Y-185254285D01*
X93770000Y-185349523D01*
X93865238Y-185444761D01*
X94008095Y-185492380D01*
X94246190Y-185492380D01*
X93246190Y-185111428D02*
X92484285Y-185111428D01*
X92865238Y-185492380D02*
X92865238Y-184730476D01*
X91484285Y-185492380D02*
X92055714Y-185492380D01*
X91770000Y-185492380D02*
X91770000Y-184492380D01*
X91865238Y-184635238D01*
X91960476Y-184730476D01*
X92055714Y-184778095D01*
X91103333Y-184587619D02*
X91055714Y-184540000D01*
X90960476Y-184492380D01*
X90722380Y-184492380D01*
X90627142Y-184540000D01*
X90579523Y-184587619D01*
X90531904Y-184682857D01*
X90531904Y-184778095D01*
X90579523Y-184920952D01*
X91150952Y-185492380D01*
X90531904Y-185492380D01*
D13*
X93840476Y-189361904D02*
X93840476Y-188561904D01*
X93650000Y-188561904D01*
X93535714Y-188600000D01*
X93459523Y-188676190D01*
X93421428Y-188752380D01*
X93383333Y-188904761D01*
X93383333Y-189019047D01*
X93421428Y-189171428D01*
X93459523Y-189247619D01*
X93535714Y-189323809D01*
X93650000Y-189361904D01*
X93840476Y-189361904D01*
X92697619Y-188828571D02*
X92697619Y-189361904D01*
X92888095Y-188523809D02*
X93078571Y-189095238D01*
X92583333Y-189095238D01*
%TO.C,PW_POT1*%
D12*
X98602380Y-159854761D02*
X97602380Y-159854761D01*
X97602380Y-160235714D01*
X97650000Y-160330952D01*
X97697619Y-160378571D01*
X97792857Y-160426190D01*
X97935714Y-160426190D01*
X98030952Y-160378571D01*
X98078571Y-160330952D01*
X98126190Y-160235714D01*
X98126190Y-159854761D01*
X97602380Y-160759523D02*
X98602380Y-160997619D01*
X97888095Y-161188095D01*
X98602380Y-161378571D01*
X97602380Y-161616666D01*
X98697619Y-161759523D02*
X98697619Y-162521428D01*
X98602380Y-162759523D02*
X97602380Y-162759523D01*
X97602380Y-163140476D01*
X97650000Y-163235714D01*
X97697619Y-163283333D01*
X97792857Y-163330952D01*
X97935714Y-163330952D01*
X98030952Y-163283333D01*
X98078571Y-163235714D01*
X98126190Y-163140476D01*
X98126190Y-162759523D01*
X97602380Y-163950000D02*
X97602380Y-164140476D01*
X97650000Y-164235714D01*
X97745238Y-164330952D01*
X97935714Y-164378571D01*
X98269047Y-164378571D01*
X98459523Y-164330952D01*
X98554761Y-164235714D01*
X98602380Y-164140476D01*
X98602380Y-163950000D01*
X98554761Y-163854761D01*
X98459523Y-163759523D01*
X98269047Y-163711904D01*
X97935714Y-163711904D01*
X97745238Y-163759523D01*
X97650000Y-163854761D01*
X97602380Y-163950000D01*
X97602380Y-164664285D02*
X97602380Y-165235714D01*
X98602380Y-164950000D02*
X97602380Y-164950000D01*
X98602380Y-166092857D02*
X98602380Y-165521428D01*
X98602380Y-165807142D02*
X97602380Y-165807142D01*
X97745238Y-165711904D01*
X97840476Y-165616666D01*
X97888095Y-165521428D01*
X98552380Y-169469523D02*
X98552380Y-168898095D01*
X98552380Y-169183809D02*
X97552380Y-169183809D01*
X97695238Y-169088571D01*
X97790476Y-168993333D01*
X97838095Y-168898095D01*
X97552380Y-170088571D02*
X97552380Y-170183809D01*
X97600000Y-170279047D01*
X97647619Y-170326666D01*
X97742857Y-170374285D01*
X97933333Y-170421904D01*
X98171428Y-170421904D01*
X98361904Y-170374285D01*
X98457142Y-170326666D01*
X98504761Y-170279047D01*
X98552380Y-170183809D01*
X98552380Y-170088571D01*
X98504761Y-169993333D01*
X98457142Y-169945714D01*
X98361904Y-169898095D01*
X98171428Y-169850476D01*
X97933333Y-169850476D01*
X97742857Y-169898095D01*
X97647619Y-169945714D01*
X97600000Y-169993333D01*
X97552380Y-170088571D01*
X98552380Y-170850476D02*
X97552380Y-170850476D01*
X98552380Y-171421904D02*
X97980952Y-170993333D01*
X97552380Y-171421904D02*
X98123809Y-170850476D01*
X96735238Y-171612380D02*
X96735238Y-170612380D01*
X96354285Y-170612380D01*
X96259047Y-170660000D01*
X96211428Y-170707619D01*
X96163809Y-170802857D01*
X96163809Y-170945714D01*
X96211428Y-171040952D01*
X96259047Y-171088571D01*
X96354285Y-171136190D01*
X96735238Y-171136190D01*
X95830476Y-170612380D02*
X95592380Y-171612380D01*
X95401904Y-170898095D01*
X95211428Y-171612380D01*
X94973333Y-170612380D01*
X94830476Y-171707619D02*
X94068571Y-171707619D01*
X93830476Y-171612380D02*
X93830476Y-170612380D01*
X93449523Y-170612380D01*
X93354285Y-170660000D01*
X93306666Y-170707619D01*
X93259047Y-170802857D01*
X93259047Y-170945714D01*
X93306666Y-171040952D01*
X93354285Y-171088571D01*
X93449523Y-171136190D01*
X93830476Y-171136190D01*
X92640000Y-170612380D02*
X92449523Y-170612380D01*
X92354285Y-170660000D01*
X92259047Y-170755238D01*
X92211428Y-170945714D01*
X92211428Y-171279047D01*
X92259047Y-171469523D01*
X92354285Y-171564761D01*
X92449523Y-171612380D01*
X92640000Y-171612380D01*
X92735238Y-171564761D01*
X92830476Y-171469523D01*
X92878095Y-171279047D01*
X92878095Y-170945714D01*
X92830476Y-170755238D01*
X92735238Y-170660000D01*
X92640000Y-170612380D01*
X91925714Y-170612380D02*
X91354285Y-170612380D01*
X91640000Y-171612380D02*
X91640000Y-170612380D01*
X90497142Y-171612380D02*
X91068571Y-171612380D01*
X90782857Y-171612380D02*
X90782857Y-170612380D01*
X90878095Y-170755238D01*
X90973333Y-170850476D01*
X91068571Y-170898095D01*
%TO.C,D3*%
X84008095Y-193412380D02*
X84008095Y-192412380D01*
X83770000Y-192412380D01*
X83627142Y-192460000D01*
X83531904Y-192555238D01*
X83484285Y-192650476D01*
X83436666Y-192840952D01*
X83436666Y-192983809D01*
X83484285Y-193174285D01*
X83531904Y-193269523D01*
X83627142Y-193364761D01*
X83770000Y-193412380D01*
X84008095Y-193412380D01*
X83103333Y-192412380D02*
X82484285Y-192412380D01*
X82817619Y-192793333D01*
X82674761Y-192793333D01*
X82579523Y-192840952D01*
X82531904Y-192888571D01*
X82484285Y-192983809D01*
X82484285Y-193221904D01*
X82531904Y-193317142D01*
X82579523Y-193364761D01*
X82674761Y-193412380D01*
X82960476Y-193412380D01*
X83055714Y-193364761D01*
X83103333Y-193317142D01*
X85008095Y-185492380D02*
X85484285Y-185492380D01*
X85484285Y-184492380D01*
X84674761Y-184968571D02*
X84341428Y-184968571D01*
X84198571Y-185492380D02*
X84674761Y-185492380D01*
X84674761Y-184492380D01*
X84198571Y-184492380D01*
X83770000Y-185492380D02*
X83770000Y-184492380D01*
X83531904Y-184492380D01*
X83389047Y-184540000D01*
X83293809Y-184635238D01*
X83246190Y-184730476D01*
X83198571Y-184920952D01*
X83198571Y-185063809D01*
X83246190Y-185254285D01*
X83293809Y-185349523D01*
X83389047Y-185444761D01*
X83531904Y-185492380D01*
X83770000Y-185492380D01*
X82770000Y-185111428D02*
X82008095Y-185111428D01*
X82389047Y-185492380D02*
X82389047Y-184730476D01*
X81055714Y-184492380D02*
X81531904Y-184492380D01*
X81579523Y-184968571D01*
X81531904Y-184920952D01*
X81436666Y-184873333D01*
X81198571Y-184873333D01*
X81103333Y-184920952D01*
X81055714Y-184968571D01*
X81008095Y-185063809D01*
X81008095Y-185301904D01*
X81055714Y-185397142D01*
X81103333Y-185444761D01*
X81198571Y-185492380D01*
X81436666Y-185492380D01*
X81531904Y-185444761D01*
X81579523Y-185397142D01*
D13*
X83840476Y-189361904D02*
X83840476Y-188561904D01*
X83650000Y-188561904D01*
X83535714Y-188600000D01*
X83459523Y-188676190D01*
X83421428Y-188752380D01*
X83383333Y-188904761D01*
X83383333Y-189019047D01*
X83421428Y-189171428D01*
X83459523Y-189247619D01*
X83535714Y-189323809D01*
X83650000Y-189361904D01*
X83840476Y-189361904D01*
X83116666Y-188561904D02*
X82621428Y-188561904D01*
X82888095Y-188866666D01*
X82773809Y-188866666D01*
X82697619Y-188904761D01*
X82659523Y-188942857D01*
X82621428Y-189019047D01*
X82621428Y-189209523D01*
X82659523Y-189285714D01*
X82697619Y-189323809D01*
X82773809Y-189361904D01*
X83002380Y-189361904D01*
X83078571Y-189323809D01*
X83116666Y-189285714D01*
%TD*%
M02*
