%TF.GenerationSoftware,KiCad,Pcbnew,(5.1.7)-1*%
%TF.CreationDate,2023-03-07T08:06:47+00:00*%
%TF.ProjectId,KOSMO-POLY6-PICO-DCO-MB,4b4f534d-4f2d-4504-9f4c-59362d504943,v0.1.1*%
%TF.SameCoordinates,Original*%
%TF.FileFunction,Other,Fab,Top*%
%FSLAX46Y46*%
G04 Gerber Fmt 4.6, Leading zero omitted, Abs format (unit mm)*
G04 Created by KiCad (PCBNEW (5.1.7)-1) date 2023-03-07 08:06:47*
%MOMM*%
%LPD*%
G01*
G04 APERTURE LIST*
%ADD10C,0.100000*%
%ADD11C,0.150000*%
G04 APERTURE END LIST*
D10*
%TO.C,C41*%
X82863000Y-109765000D02*
X82863000Y-114265000D01*
X82863000Y-114265000D02*
X90063000Y-114265000D01*
X90063000Y-114265000D02*
X90063000Y-109765000D01*
X90063000Y-109765000D02*
X82863000Y-109765000D01*
%TO.C,C40*%
X122444000Y-109166000D02*
X122444000Y-113666000D01*
X122444000Y-113666000D02*
X129644000Y-113666000D01*
X129644000Y-113666000D02*
X129644000Y-109166000D01*
X129644000Y-109166000D02*
X122444000Y-109166000D01*
%TO.C,C39*%
X82561000Y-77693000D02*
X82561000Y-82193000D01*
X82561000Y-82193000D02*
X89761000Y-82193000D01*
X89761000Y-82193000D02*
X89761000Y-77693000D01*
X89761000Y-77693000D02*
X82561000Y-77693000D01*
%TO.C,C38*%
X122031000Y-77670000D02*
X122031000Y-82170000D01*
X122031000Y-82170000D02*
X129231000Y-82170000D01*
X129231000Y-82170000D02*
X129231000Y-77670000D01*
X129231000Y-77670000D02*
X122031000Y-77670000D01*
%TO.C,C37*%
X82611000Y-46638000D02*
X82611000Y-51138000D01*
X82611000Y-51138000D02*
X89811000Y-51138000D01*
X89811000Y-51138000D02*
X89811000Y-46638000D01*
X89811000Y-46638000D02*
X82611000Y-46638000D01*
%TO.C,C36*%
X122475000Y-46398000D02*
X122475000Y-50898000D01*
X122475000Y-50898000D02*
X129675000Y-50898000D01*
X129675000Y-50898000D02*
X129675000Y-46398000D01*
X129675000Y-46398000D02*
X122475000Y-46398000D01*
%TD*%
%TO.C,C41*%
D11*
X83308952Y-115701380D02*
X82737523Y-115701380D01*
X83023238Y-115701380D02*
X83023238Y-114701380D01*
X82928000Y-114844238D01*
X82832761Y-114939476D01*
X82737523Y-114987095D01*
X83928000Y-114701380D02*
X84023238Y-114701380D01*
X84118476Y-114749000D01*
X84166095Y-114796619D01*
X84213714Y-114891857D01*
X84261333Y-115082333D01*
X84261333Y-115320428D01*
X84213714Y-115510904D01*
X84166095Y-115606142D01*
X84118476Y-115653761D01*
X84023238Y-115701380D01*
X83928000Y-115701380D01*
X83832761Y-115653761D01*
X83785142Y-115606142D01*
X83737523Y-115510904D01*
X83689904Y-115320428D01*
X83689904Y-115082333D01*
X83737523Y-114891857D01*
X83785142Y-114796619D01*
X83832761Y-114749000D01*
X83928000Y-114701380D01*
X84880380Y-114701380D02*
X84975619Y-114701380D01*
X85070857Y-114749000D01*
X85118476Y-114796619D01*
X85166095Y-114891857D01*
X85213714Y-115082333D01*
X85213714Y-115320428D01*
X85166095Y-115510904D01*
X85118476Y-115606142D01*
X85070857Y-115653761D01*
X84975619Y-115701380D01*
X84880380Y-115701380D01*
X84785142Y-115653761D01*
X84737523Y-115606142D01*
X84689904Y-115510904D01*
X84642285Y-115320428D01*
X84642285Y-115082333D01*
X84689904Y-114891857D01*
X84737523Y-114796619D01*
X84785142Y-114749000D01*
X84880380Y-114701380D01*
X85642285Y-115034714D02*
X85642285Y-115701380D01*
X85642285Y-115129952D02*
X85689904Y-115082333D01*
X85785142Y-115034714D01*
X85928000Y-115034714D01*
X86023238Y-115082333D01*
X86070857Y-115177571D01*
X86070857Y-115701380D01*
X88577142Y-115548142D02*
X88529523Y-115595761D01*
X88386666Y-115643380D01*
X88291428Y-115643380D01*
X88148571Y-115595761D01*
X88053333Y-115500523D01*
X88005714Y-115405285D01*
X87958095Y-115214809D01*
X87958095Y-115071952D01*
X88005714Y-114881476D01*
X88053333Y-114786238D01*
X88148571Y-114691000D01*
X88291428Y-114643380D01*
X88386666Y-114643380D01*
X88529523Y-114691000D01*
X88577142Y-114738619D01*
X89434285Y-114976714D02*
X89434285Y-115643380D01*
X89196190Y-114595761D02*
X88958095Y-115310047D01*
X89577142Y-115310047D01*
X90481904Y-115643380D02*
X89910476Y-115643380D01*
X90196190Y-115643380D02*
X90196190Y-114643380D01*
X90100952Y-114786238D01*
X90005714Y-114881476D01*
X89910476Y-114929095D01*
%TO.C,C40*%
X122977952Y-115203380D02*
X122406523Y-115203380D01*
X122692238Y-115203380D02*
X122692238Y-114203380D01*
X122597000Y-114346238D01*
X122501761Y-114441476D01*
X122406523Y-114489095D01*
X123597000Y-114203380D02*
X123692238Y-114203380D01*
X123787476Y-114251000D01*
X123835095Y-114298619D01*
X123882714Y-114393857D01*
X123930333Y-114584333D01*
X123930333Y-114822428D01*
X123882714Y-115012904D01*
X123835095Y-115108142D01*
X123787476Y-115155761D01*
X123692238Y-115203380D01*
X123597000Y-115203380D01*
X123501761Y-115155761D01*
X123454142Y-115108142D01*
X123406523Y-115012904D01*
X123358904Y-114822428D01*
X123358904Y-114584333D01*
X123406523Y-114393857D01*
X123454142Y-114298619D01*
X123501761Y-114251000D01*
X123597000Y-114203380D01*
X124549380Y-114203380D02*
X124644619Y-114203380D01*
X124739857Y-114251000D01*
X124787476Y-114298619D01*
X124835095Y-114393857D01*
X124882714Y-114584333D01*
X124882714Y-114822428D01*
X124835095Y-115012904D01*
X124787476Y-115108142D01*
X124739857Y-115155761D01*
X124644619Y-115203380D01*
X124549380Y-115203380D01*
X124454142Y-115155761D01*
X124406523Y-115108142D01*
X124358904Y-115012904D01*
X124311285Y-114822428D01*
X124311285Y-114584333D01*
X124358904Y-114393857D01*
X124406523Y-114298619D01*
X124454142Y-114251000D01*
X124549380Y-114203380D01*
X125311285Y-114536714D02*
X125311285Y-115203380D01*
X125311285Y-114631952D02*
X125358904Y-114584333D01*
X125454142Y-114536714D01*
X125597000Y-114536714D01*
X125692238Y-114584333D01*
X125739857Y-114679571D01*
X125739857Y-115203380D01*
X128002142Y-115010142D02*
X127954523Y-115057761D01*
X127811666Y-115105380D01*
X127716428Y-115105380D01*
X127573571Y-115057761D01*
X127478333Y-114962523D01*
X127430714Y-114867285D01*
X127383095Y-114676809D01*
X127383095Y-114533952D01*
X127430714Y-114343476D01*
X127478333Y-114248238D01*
X127573571Y-114153000D01*
X127716428Y-114105380D01*
X127811666Y-114105380D01*
X127954523Y-114153000D01*
X128002142Y-114200619D01*
X128859285Y-114438714D02*
X128859285Y-115105380D01*
X128621190Y-114057761D02*
X128383095Y-114772047D01*
X129002142Y-114772047D01*
X129573571Y-114105380D02*
X129668809Y-114105380D01*
X129764047Y-114153000D01*
X129811666Y-114200619D01*
X129859285Y-114295857D01*
X129906904Y-114486333D01*
X129906904Y-114724428D01*
X129859285Y-114914904D01*
X129811666Y-115010142D01*
X129764047Y-115057761D01*
X129668809Y-115105380D01*
X129573571Y-115105380D01*
X129478333Y-115057761D01*
X129430714Y-115010142D01*
X129383095Y-114914904D01*
X129335476Y-114724428D01*
X129335476Y-114486333D01*
X129383095Y-114295857D01*
X129430714Y-114200619D01*
X129478333Y-114153000D01*
X129573571Y-114105380D01*
%TO.C,C39*%
X83155952Y-83772380D02*
X82584523Y-83772380D01*
X82870238Y-83772380D02*
X82870238Y-82772380D01*
X82775000Y-82915238D01*
X82679761Y-83010476D01*
X82584523Y-83058095D01*
X83775000Y-82772380D02*
X83870238Y-82772380D01*
X83965476Y-82820000D01*
X84013095Y-82867619D01*
X84060714Y-82962857D01*
X84108333Y-83153333D01*
X84108333Y-83391428D01*
X84060714Y-83581904D01*
X84013095Y-83677142D01*
X83965476Y-83724761D01*
X83870238Y-83772380D01*
X83775000Y-83772380D01*
X83679761Y-83724761D01*
X83632142Y-83677142D01*
X83584523Y-83581904D01*
X83536904Y-83391428D01*
X83536904Y-83153333D01*
X83584523Y-82962857D01*
X83632142Y-82867619D01*
X83679761Y-82820000D01*
X83775000Y-82772380D01*
X84727380Y-82772380D02*
X84822619Y-82772380D01*
X84917857Y-82820000D01*
X84965476Y-82867619D01*
X85013095Y-82962857D01*
X85060714Y-83153333D01*
X85060714Y-83391428D01*
X85013095Y-83581904D01*
X84965476Y-83677142D01*
X84917857Y-83724761D01*
X84822619Y-83772380D01*
X84727380Y-83772380D01*
X84632142Y-83724761D01*
X84584523Y-83677142D01*
X84536904Y-83581904D01*
X84489285Y-83391428D01*
X84489285Y-83153333D01*
X84536904Y-82962857D01*
X84584523Y-82867619D01*
X84632142Y-82820000D01*
X84727380Y-82772380D01*
X85489285Y-83105714D02*
X85489285Y-83772380D01*
X85489285Y-83200952D02*
X85536904Y-83153333D01*
X85632142Y-83105714D01*
X85775000Y-83105714D01*
X85870238Y-83153333D01*
X85917857Y-83248571D01*
X85917857Y-83772380D01*
X88074142Y-83738142D02*
X88026523Y-83785761D01*
X87883666Y-83833380D01*
X87788428Y-83833380D01*
X87645571Y-83785761D01*
X87550333Y-83690523D01*
X87502714Y-83595285D01*
X87455095Y-83404809D01*
X87455095Y-83261952D01*
X87502714Y-83071476D01*
X87550333Y-82976238D01*
X87645571Y-82881000D01*
X87788428Y-82833380D01*
X87883666Y-82833380D01*
X88026523Y-82881000D01*
X88074142Y-82928619D01*
X88407476Y-82833380D02*
X89026523Y-82833380D01*
X88693190Y-83214333D01*
X88836047Y-83214333D01*
X88931285Y-83261952D01*
X88978904Y-83309571D01*
X89026523Y-83404809D01*
X89026523Y-83642904D01*
X88978904Y-83738142D01*
X88931285Y-83785761D01*
X88836047Y-83833380D01*
X88550333Y-83833380D01*
X88455095Y-83785761D01*
X88407476Y-83738142D01*
X89502714Y-83833380D02*
X89693190Y-83833380D01*
X89788428Y-83785761D01*
X89836047Y-83738142D01*
X89931285Y-83595285D01*
X89978904Y-83404809D01*
X89978904Y-83023857D01*
X89931285Y-82928619D01*
X89883666Y-82881000D01*
X89788428Y-82833380D01*
X89597952Y-82833380D01*
X89502714Y-82881000D01*
X89455095Y-82928619D01*
X89407476Y-83023857D01*
X89407476Y-83261952D01*
X89455095Y-83357190D01*
X89502714Y-83404809D01*
X89597952Y-83452428D01*
X89788428Y-83452428D01*
X89883666Y-83404809D01*
X89931285Y-83357190D01*
X89978904Y-83261952D01*
%TO.C,C38*%
X126435952Y-83762380D02*
X125864523Y-83762380D01*
X126150238Y-83762380D02*
X126150238Y-82762380D01*
X126055000Y-82905238D01*
X125959761Y-83000476D01*
X125864523Y-83048095D01*
X127055000Y-82762380D02*
X127150238Y-82762380D01*
X127245476Y-82810000D01*
X127293095Y-82857619D01*
X127340714Y-82952857D01*
X127388333Y-83143333D01*
X127388333Y-83381428D01*
X127340714Y-83571904D01*
X127293095Y-83667142D01*
X127245476Y-83714761D01*
X127150238Y-83762380D01*
X127055000Y-83762380D01*
X126959761Y-83714761D01*
X126912142Y-83667142D01*
X126864523Y-83571904D01*
X126816904Y-83381428D01*
X126816904Y-83143333D01*
X126864523Y-82952857D01*
X126912142Y-82857619D01*
X126959761Y-82810000D01*
X127055000Y-82762380D01*
X128007380Y-82762380D02*
X128102619Y-82762380D01*
X128197857Y-82810000D01*
X128245476Y-82857619D01*
X128293095Y-82952857D01*
X128340714Y-83143333D01*
X128340714Y-83381428D01*
X128293095Y-83571904D01*
X128245476Y-83667142D01*
X128197857Y-83714761D01*
X128102619Y-83762380D01*
X128007380Y-83762380D01*
X127912142Y-83714761D01*
X127864523Y-83667142D01*
X127816904Y-83571904D01*
X127769285Y-83381428D01*
X127769285Y-83143333D01*
X127816904Y-82952857D01*
X127864523Y-82857619D01*
X127912142Y-82810000D01*
X128007380Y-82762380D01*
X128769285Y-83095714D02*
X128769285Y-83762380D01*
X128769285Y-83190952D02*
X128816904Y-83143333D01*
X128912142Y-83095714D01*
X129055000Y-83095714D01*
X129150238Y-83143333D01*
X129197857Y-83238571D01*
X129197857Y-83762380D01*
X124988142Y-80277142D02*
X124940523Y-80324761D01*
X124797666Y-80372380D01*
X124702428Y-80372380D01*
X124559571Y-80324761D01*
X124464333Y-80229523D01*
X124416714Y-80134285D01*
X124369095Y-79943809D01*
X124369095Y-79800952D01*
X124416714Y-79610476D01*
X124464333Y-79515238D01*
X124559571Y-79420000D01*
X124702428Y-79372380D01*
X124797666Y-79372380D01*
X124940523Y-79420000D01*
X124988142Y-79467619D01*
X125321476Y-79372380D02*
X125940523Y-79372380D01*
X125607190Y-79753333D01*
X125750047Y-79753333D01*
X125845285Y-79800952D01*
X125892904Y-79848571D01*
X125940523Y-79943809D01*
X125940523Y-80181904D01*
X125892904Y-80277142D01*
X125845285Y-80324761D01*
X125750047Y-80372380D01*
X125464333Y-80372380D01*
X125369095Y-80324761D01*
X125321476Y-80277142D01*
X126511952Y-79800952D02*
X126416714Y-79753333D01*
X126369095Y-79705714D01*
X126321476Y-79610476D01*
X126321476Y-79562857D01*
X126369095Y-79467619D01*
X126416714Y-79420000D01*
X126511952Y-79372380D01*
X126702428Y-79372380D01*
X126797666Y-79420000D01*
X126845285Y-79467619D01*
X126892904Y-79562857D01*
X126892904Y-79610476D01*
X126845285Y-79705714D01*
X126797666Y-79753333D01*
X126702428Y-79800952D01*
X126511952Y-79800952D01*
X126416714Y-79848571D01*
X126369095Y-79896190D01*
X126321476Y-79991428D01*
X126321476Y-80181904D01*
X126369095Y-80277142D01*
X126416714Y-80324761D01*
X126511952Y-80372380D01*
X126702428Y-80372380D01*
X126797666Y-80324761D01*
X126845285Y-80277142D01*
X126892904Y-80181904D01*
X126892904Y-79991428D01*
X126845285Y-79896190D01*
X126797666Y-79848571D01*
X126702428Y-79800952D01*
%TO.C,C37*%
X87190952Y-52553380D02*
X86619523Y-52553380D01*
X86905238Y-52553380D02*
X86905238Y-51553380D01*
X86810000Y-51696238D01*
X86714761Y-51791476D01*
X86619523Y-51839095D01*
X87810000Y-51553380D02*
X87905238Y-51553380D01*
X88000476Y-51601000D01*
X88048095Y-51648619D01*
X88095714Y-51743857D01*
X88143333Y-51934333D01*
X88143333Y-52172428D01*
X88095714Y-52362904D01*
X88048095Y-52458142D01*
X88000476Y-52505761D01*
X87905238Y-52553380D01*
X87810000Y-52553380D01*
X87714761Y-52505761D01*
X87667142Y-52458142D01*
X87619523Y-52362904D01*
X87571904Y-52172428D01*
X87571904Y-51934333D01*
X87619523Y-51743857D01*
X87667142Y-51648619D01*
X87714761Y-51601000D01*
X87810000Y-51553380D01*
X88762380Y-51553380D02*
X88857619Y-51553380D01*
X88952857Y-51601000D01*
X89000476Y-51648619D01*
X89048095Y-51743857D01*
X89095714Y-51934333D01*
X89095714Y-52172428D01*
X89048095Y-52362904D01*
X89000476Y-52458142D01*
X88952857Y-52505761D01*
X88857619Y-52553380D01*
X88762380Y-52553380D01*
X88667142Y-52505761D01*
X88619523Y-52458142D01*
X88571904Y-52362904D01*
X88524285Y-52172428D01*
X88524285Y-51934333D01*
X88571904Y-51743857D01*
X88619523Y-51648619D01*
X88667142Y-51601000D01*
X88762380Y-51553380D01*
X89524285Y-51886714D02*
X89524285Y-52553380D01*
X89524285Y-51981952D02*
X89571904Y-51934333D01*
X89667142Y-51886714D01*
X89810000Y-51886714D01*
X89905238Y-51934333D01*
X89952857Y-52029571D01*
X89952857Y-52553380D01*
X83433142Y-52604142D02*
X83385523Y-52651761D01*
X83242666Y-52699380D01*
X83147428Y-52699380D01*
X83004571Y-52651761D01*
X82909333Y-52556523D01*
X82861714Y-52461285D01*
X82814095Y-52270809D01*
X82814095Y-52127952D01*
X82861714Y-51937476D01*
X82909333Y-51842238D01*
X83004571Y-51747000D01*
X83147428Y-51699380D01*
X83242666Y-51699380D01*
X83385523Y-51747000D01*
X83433142Y-51794619D01*
X83766476Y-51699380D02*
X84385523Y-51699380D01*
X84052190Y-52080333D01*
X84195047Y-52080333D01*
X84290285Y-52127952D01*
X84337904Y-52175571D01*
X84385523Y-52270809D01*
X84385523Y-52508904D01*
X84337904Y-52604142D01*
X84290285Y-52651761D01*
X84195047Y-52699380D01*
X83909333Y-52699380D01*
X83814095Y-52651761D01*
X83766476Y-52604142D01*
X84718857Y-51699380D02*
X85385523Y-51699380D01*
X84956952Y-52699380D01*
%TO.C,C36*%
X123032952Y-52404380D02*
X122461523Y-52404380D01*
X122747238Y-52404380D02*
X122747238Y-51404380D01*
X122652000Y-51547238D01*
X122556761Y-51642476D01*
X122461523Y-51690095D01*
X123652000Y-51404380D02*
X123747238Y-51404380D01*
X123842476Y-51452000D01*
X123890095Y-51499619D01*
X123937714Y-51594857D01*
X123985333Y-51785333D01*
X123985333Y-52023428D01*
X123937714Y-52213904D01*
X123890095Y-52309142D01*
X123842476Y-52356761D01*
X123747238Y-52404380D01*
X123652000Y-52404380D01*
X123556761Y-52356761D01*
X123509142Y-52309142D01*
X123461523Y-52213904D01*
X123413904Y-52023428D01*
X123413904Y-51785333D01*
X123461523Y-51594857D01*
X123509142Y-51499619D01*
X123556761Y-51452000D01*
X123652000Y-51404380D01*
X124604380Y-51404380D02*
X124699619Y-51404380D01*
X124794857Y-51452000D01*
X124842476Y-51499619D01*
X124890095Y-51594857D01*
X124937714Y-51785333D01*
X124937714Y-52023428D01*
X124890095Y-52213904D01*
X124842476Y-52309142D01*
X124794857Y-52356761D01*
X124699619Y-52404380D01*
X124604380Y-52404380D01*
X124509142Y-52356761D01*
X124461523Y-52309142D01*
X124413904Y-52213904D01*
X124366285Y-52023428D01*
X124366285Y-51785333D01*
X124413904Y-51594857D01*
X124461523Y-51499619D01*
X124509142Y-51452000D01*
X124604380Y-51404380D01*
X125366285Y-51737714D02*
X125366285Y-52404380D01*
X125366285Y-51832952D02*
X125413904Y-51785333D01*
X125509142Y-51737714D01*
X125652000Y-51737714D01*
X125747238Y-51785333D01*
X125794857Y-51880571D01*
X125794857Y-52404380D01*
X128083142Y-52275142D02*
X128035523Y-52322761D01*
X127892666Y-52370380D01*
X127797428Y-52370380D01*
X127654571Y-52322761D01*
X127559333Y-52227523D01*
X127511714Y-52132285D01*
X127464095Y-51941809D01*
X127464095Y-51798952D01*
X127511714Y-51608476D01*
X127559333Y-51513238D01*
X127654571Y-51418000D01*
X127797428Y-51370380D01*
X127892666Y-51370380D01*
X128035523Y-51418000D01*
X128083142Y-51465619D01*
X128416476Y-51370380D02*
X129035523Y-51370380D01*
X128702190Y-51751333D01*
X128845047Y-51751333D01*
X128940285Y-51798952D01*
X128987904Y-51846571D01*
X129035523Y-51941809D01*
X129035523Y-52179904D01*
X128987904Y-52275142D01*
X128940285Y-52322761D01*
X128845047Y-52370380D01*
X128559333Y-52370380D01*
X128464095Y-52322761D01*
X128416476Y-52275142D01*
X129892666Y-51370380D02*
X129702190Y-51370380D01*
X129606952Y-51418000D01*
X129559333Y-51465619D01*
X129464095Y-51608476D01*
X129416476Y-51798952D01*
X129416476Y-52179904D01*
X129464095Y-52275142D01*
X129511714Y-52322761D01*
X129606952Y-52370380D01*
X129797428Y-52370380D01*
X129892666Y-52322761D01*
X129940285Y-52275142D01*
X129987904Y-52179904D01*
X129987904Y-51941809D01*
X129940285Y-51846571D01*
X129892666Y-51798952D01*
X129797428Y-51751333D01*
X129606952Y-51751333D01*
X129511714Y-51798952D01*
X129464095Y-51846571D01*
X129416476Y-51941809D01*
%TD*%
M02*
