M48
; DRILL file {KiCad (5.1.7)-1} date 03/06/23 20:39:11
; FORMAT={-:-/ absolute / inch / decimal}
; #@! TF.CreationDate,2023-03-06T20:39:11+00:00
; #@! TF.GenerationSoftware,Kicad,Pcbnew,(5.1.7)-1
; #@! TF.FileFunction,Plated,1,2,PTH
FMAT,2
INCH
T1C0.1260
T2C0.1378
T3C0.2008
T4C0.2756
T5C0.3937
T6C0.6102
%
G90
G05
T1
X2.7289Y-0.5333
X6.1541Y-0.5333
X6.1536Y-7.1079
X2.729Y-7.1078
T2
X4.9975Y-6.6372
X5.903Y-6.6372
T3
X5.0669Y-7.0604
X4.6731Y-7.0604
X3.8845Y-7.0648
X5.4573Y-5.9357
X4.2788Y-7.0652
T4
X4.3859Y-5.9807
T5
X3.4149Y-6.6763
T6
X5.4503Y-6.6372
T1
G00X2.612Y-0.0219
M15
G01X2.8089Y-0.0219
M16
G05
G00X2.612Y-7.6203
M15
G01X2.8089Y-7.6203
M16
G05
G00X6.0766Y-7.6203
M15
G01X6.2734Y-7.6203
M16
G05
G00X6.0766Y-0.0219
M15
G01X6.2734Y-0.0219
M16
G05
T0
M30
