G04 #@! TF.GenerationSoftware,KiCad,Pcbnew,(5.1.7)-1*
G04 #@! TF.CreationDate,2023-03-06T20:39:05+00:00*
G04 #@! TF.ProjectId,KOSMO-POLY6-PICO-DCO-FP,4b4f534d-4f2d-4504-9f4c-59362d504943,V0.1.0*
G04 #@! TF.SameCoordinates,Original*
G04 #@! TF.FileFunction,Legend,Top*
G04 #@! TF.FilePolarity,Positive*
%FSLAX46Y46*%
G04 Gerber Fmt 4.6, Leading zero omitted, Abs format (unit mm)*
G04 Created by KiCad (PCBNEW (5.1.7)-1) date 2023-03-06 20:39:05*
%MOMM*%
%LPD*%
G01*
G04 APERTURE LIST*
%ADD10C,1.000000*%
%ADD11C,0.300000*%
%ADD12C,0.750000*%
%ADD13C,1.500000*%
%ADD14C,0.500000*%
%ADD15C,0.150000*%
%ADD16C,0.100000*%
%ADD17C,0.120000*%
G04 APERTURE END LIST*
D10*
X82289857Y-7440285D02*
X82289857Y-1440285D01*
X85718428Y-7440285D02*
X83147000Y-4011714D01*
X85718428Y-1440285D02*
X82289857Y-4868857D01*
X89432714Y-1440285D02*
X90575571Y-1440285D01*
X91147000Y-1726000D01*
X91718428Y-2297428D01*
X92004142Y-3440285D01*
X92004142Y-5440285D01*
X91718428Y-6583142D01*
X91147000Y-7154571D01*
X90575571Y-7440285D01*
X89432714Y-7440285D01*
X88861285Y-7154571D01*
X88289857Y-6583142D01*
X88004142Y-5440285D01*
X88004142Y-3440285D01*
X88289857Y-2297428D01*
X88861285Y-1726000D01*
X89432714Y-1440285D01*
X94289857Y-7154571D02*
X95147000Y-7440285D01*
X96575571Y-7440285D01*
X97147000Y-7154571D01*
X97432714Y-6868857D01*
X97718428Y-6297428D01*
X97718428Y-5726000D01*
X97432714Y-5154571D01*
X97147000Y-4868857D01*
X96575571Y-4583142D01*
X95432714Y-4297428D01*
X94861285Y-4011714D01*
X94575571Y-3726000D01*
X94289857Y-3154571D01*
X94289857Y-2583142D01*
X94575571Y-2011714D01*
X94861285Y-1726000D01*
X95432714Y-1440285D01*
X96861285Y-1440285D01*
X97718428Y-1726000D01*
X100289857Y-7440285D02*
X100289857Y-1440285D01*
X102289857Y-5726000D01*
X104289857Y-1440285D01*
X104289857Y-7440285D01*
X108289857Y-1440285D02*
X109432714Y-1440285D01*
X110004142Y-1726000D01*
X110575571Y-2297428D01*
X110861285Y-3440285D01*
X110861285Y-5440285D01*
X110575571Y-6583142D01*
X110004142Y-7154571D01*
X109432714Y-7440285D01*
X108289857Y-7440285D01*
X107718428Y-7154571D01*
X107147000Y-6583142D01*
X106861285Y-5440285D01*
X106861285Y-3440285D01*
X107147000Y-2297428D01*
X107718428Y-1726000D01*
X108289857Y-1440285D01*
X113432714Y-5154571D02*
X118004142Y-5154571D01*
X120861285Y-7440285D02*
X120861285Y-1440285D01*
X123147000Y-1440285D01*
X123718428Y-1726000D01*
X124004142Y-2011714D01*
X124289857Y-2583142D01*
X124289857Y-3440285D01*
X124004142Y-4011714D01*
X123718428Y-4297428D01*
X123147000Y-4583142D01*
X120861285Y-4583142D01*
X128004142Y-1440285D02*
X129147000Y-1440285D01*
X129718428Y-1726000D01*
X130289857Y-2297428D01*
X130575571Y-3440285D01*
X130575571Y-5440285D01*
X130289857Y-6583142D01*
X129718428Y-7154571D01*
X129147000Y-7440285D01*
X128004142Y-7440285D01*
X127432714Y-7154571D01*
X126861285Y-6583142D01*
X126575571Y-5440285D01*
X126575571Y-3440285D01*
X126861285Y-2297428D01*
X127432714Y-1726000D01*
X128004142Y-1440285D01*
X136004142Y-7440285D02*
X133147000Y-7440285D01*
X133147000Y-1440285D01*
X139147000Y-4583142D02*
X139147000Y-7440285D01*
X137147000Y-1440285D02*
X139147000Y-4583142D01*
X141147000Y-1440285D01*
X145718428Y-1440285D02*
X144575571Y-1440285D01*
X144004142Y-1726000D01*
X143718428Y-2011714D01*
X143147000Y-2868857D01*
X142861285Y-4011714D01*
X142861285Y-6297428D01*
X143147000Y-6868857D01*
X143432714Y-7154571D01*
X144004142Y-7440285D01*
X145147000Y-7440285D01*
X145718428Y-7154571D01*
X146004142Y-6868857D01*
X146289857Y-6297428D01*
X146289857Y-4868857D01*
X146004142Y-4297428D01*
X145718428Y-4011714D01*
X145147000Y-3726000D01*
X144004142Y-3726000D01*
X143432714Y-4011714D01*
X143147000Y-4297428D01*
X142861285Y-4868857D01*
X92147000Y-17440285D02*
X92147000Y-11440285D01*
X94432714Y-11440285D01*
X95004142Y-11726000D01*
X95289857Y-12011714D01*
X95575571Y-12583142D01*
X95575571Y-13440285D01*
X95289857Y-14011714D01*
X95004142Y-14297428D01*
X94432714Y-14583142D01*
X92147000Y-14583142D01*
X98147000Y-17440285D02*
X98147000Y-11440285D01*
X104432714Y-16868857D02*
X104147000Y-17154571D01*
X103289857Y-17440285D01*
X102718428Y-17440285D01*
X101861285Y-17154571D01*
X101289857Y-16583142D01*
X101004142Y-16011714D01*
X100718428Y-14868857D01*
X100718428Y-14011714D01*
X101004142Y-12868857D01*
X101289857Y-12297428D01*
X101861285Y-11726000D01*
X102718428Y-11440285D01*
X103289857Y-11440285D01*
X104147000Y-11726000D01*
X104432714Y-12011714D01*
X108147000Y-11440285D02*
X109289857Y-11440285D01*
X109861285Y-11726000D01*
X110432714Y-12297428D01*
X110718428Y-13440285D01*
X110718428Y-15440285D01*
X110432714Y-16583142D01*
X109861285Y-17154571D01*
X109289857Y-17440285D01*
X108147000Y-17440285D01*
X107575571Y-17154571D01*
X107004142Y-16583142D01*
X106718428Y-15440285D01*
X106718428Y-13440285D01*
X107004142Y-12297428D01*
X107575571Y-11726000D01*
X108147000Y-11440285D01*
X113289857Y-15154571D02*
X117861285Y-15154571D01*
X120718428Y-17440285D02*
X120718428Y-11440285D01*
X122147000Y-11440285D01*
X123004142Y-11726000D01*
X123575571Y-12297428D01*
X123861285Y-12868857D01*
X124147000Y-14011714D01*
X124147000Y-14868857D01*
X123861285Y-16011714D01*
X123575571Y-16583142D01*
X123004142Y-17154571D01*
X122147000Y-17440285D01*
X120718428Y-17440285D01*
X130147000Y-16868857D02*
X129861285Y-17154571D01*
X129004142Y-17440285D01*
X128432714Y-17440285D01*
X127575571Y-17154571D01*
X127004142Y-16583142D01*
X126718428Y-16011714D01*
X126432714Y-14868857D01*
X126432714Y-14011714D01*
X126718428Y-12868857D01*
X127004142Y-12297428D01*
X127575571Y-11726000D01*
X128432714Y-11440285D01*
X129004142Y-11440285D01*
X129861285Y-11726000D01*
X130147000Y-12011714D01*
X133861285Y-11440285D02*
X135004142Y-11440285D01*
X135575571Y-11726000D01*
X136147000Y-12297428D01*
X136432714Y-13440285D01*
X136432714Y-15440285D01*
X136147000Y-16583142D01*
X135575571Y-17154571D01*
X135004142Y-17440285D01*
X133861285Y-17440285D01*
X133289857Y-17154571D01*
X132718428Y-16583142D01*
X132432714Y-15440285D01*
X132432714Y-13440285D01*
X132718428Y-12297428D01*
X133289857Y-11726000D01*
X133861285Y-11440285D01*
D11*
X137956571Y-36576857D02*
X138170857Y-36648285D01*
X138242285Y-36719714D01*
X138313714Y-36862571D01*
X138313714Y-37076857D01*
X138242285Y-37219714D01*
X138170857Y-37291142D01*
X138028000Y-37362571D01*
X137456571Y-37362571D01*
X137456571Y-35862571D01*
X137956571Y-35862571D01*
X138099428Y-35934000D01*
X138170857Y-36005428D01*
X138242285Y-36148285D01*
X138242285Y-36291142D01*
X138170857Y-36434000D01*
X138099428Y-36505428D01*
X137956571Y-36576857D01*
X137456571Y-36576857D01*
X138813714Y-36362571D02*
X139170857Y-37362571D01*
X139528000Y-36362571D02*
X139170857Y-37362571D01*
X139028000Y-37719714D01*
X138956571Y-37791142D01*
X138813714Y-37862571D01*
X141028000Y-35862571D02*
X141885142Y-35862571D01*
X141456571Y-37362571D02*
X141456571Y-35862571D01*
X142242285Y-36362571D02*
X142528000Y-37362571D01*
X142813714Y-36648285D01*
X143099428Y-37362571D01*
X143385142Y-36362571D01*
X143956571Y-37362571D02*
X143956571Y-36362571D01*
X143956571Y-35862571D02*
X143885142Y-35934000D01*
X143956571Y-36005428D01*
X144028000Y-35934000D01*
X143956571Y-35862571D01*
X143956571Y-36005428D01*
X144670857Y-36362571D02*
X144670857Y-37362571D01*
X144670857Y-36505428D02*
X144742285Y-36434000D01*
X144885142Y-36362571D01*
X145099428Y-36362571D01*
X145242285Y-36434000D01*
X145313714Y-36576857D01*
X145313714Y-37362571D01*
X145813714Y-35862571D02*
X146670857Y-35862571D01*
X146242285Y-37362571D02*
X146242285Y-35862571D01*
X147813714Y-36362571D02*
X147813714Y-37362571D01*
X147170857Y-36362571D02*
X147170857Y-37148285D01*
X147242285Y-37291142D01*
X147385142Y-37362571D01*
X147599428Y-37362571D01*
X147742285Y-37291142D01*
X147813714Y-37219714D01*
X148528000Y-37362571D02*
X148528000Y-36362571D01*
X148528000Y-36648285D02*
X148599428Y-36505428D01*
X148670857Y-36434000D01*
X148813714Y-36362571D01*
X148956571Y-36362571D01*
X149456571Y-37362571D02*
X149456571Y-35862571D01*
X149456571Y-36434000D02*
X149599428Y-36362571D01*
X149885142Y-36362571D01*
X150028000Y-36434000D01*
X150099428Y-36505428D01*
X150170857Y-36648285D01*
X150170857Y-37076857D01*
X150099428Y-37219714D01*
X150028000Y-37291142D01*
X149885142Y-37362571D01*
X149599428Y-37362571D01*
X149456571Y-37291142D01*
X151028000Y-37362571D02*
X150885142Y-37291142D01*
X150813714Y-37219714D01*
X150742285Y-37076857D01*
X150742285Y-36648285D01*
X150813714Y-36505428D01*
X150885142Y-36434000D01*
X151028000Y-36362571D01*
X151242285Y-36362571D01*
X151385142Y-36434000D01*
X151456571Y-36505428D01*
X151528000Y-36648285D01*
X151528000Y-37076857D01*
X151456571Y-37219714D01*
X151385142Y-37291142D01*
X151242285Y-37362571D01*
X151028000Y-37362571D01*
X128956571Y-39126857D02*
X129170857Y-39198285D01*
X129242285Y-39269714D01*
X129313714Y-39412571D01*
X129313714Y-39626857D01*
X129242285Y-39769714D01*
X129170857Y-39841142D01*
X129028000Y-39912571D01*
X128456571Y-39912571D01*
X128456571Y-38412571D01*
X128956571Y-38412571D01*
X129099428Y-38484000D01*
X129170857Y-38555428D01*
X129242285Y-38698285D01*
X129242285Y-38841142D01*
X129170857Y-38984000D01*
X129099428Y-39055428D01*
X128956571Y-39126857D01*
X128456571Y-39126857D01*
X130599428Y-39912571D02*
X130599428Y-39126857D01*
X130528000Y-38984000D01*
X130385142Y-38912571D01*
X130099428Y-38912571D01*
X129956571Y-38984000D01*
X130599428Y-39841142D02*
X130456571Y-39912571D01*
X130099428Y-39912571D01*
X129956571Y-39841142D01*
X129885142Y-39698285D01*
X129885142Y-39555428D01*
X129956571Y-39412571D01*
X130099428Y-39341142D01*
X130456571Y-39341142D01*
X130599428Y-39269714D01*
X131242285Y-39841142D02*
X131385142Y-39912571D01*
X131670857Y-39912571D01*
X131813714Y-39841142D01*
X131885142Y-39698285D01*
X131885142Y-39626857D01*
X131813714Y-39484000D01*
X131670857Y-39412571D01*
X131456571Y-39412571D01*
X131313714Y-39341142D01*
X131242285Y-39198285D01*
X131242285Y-39126857D01*
X131313714Y-38984000D01*
X131456571Y-38912571D01*
X131670857Y-38912571D01*
X131813714Y-38984000D01*
X133099428Y-39841142D02*
X132956571Y-39912571D01*
X132670857Y-39912571D01*
X132528000Y-39841142D01*
X132456571Y-39698285D01*
X132456571Y-39126857D01*
X132528000Y-38984000D01*
X132670857Y-38912571D01*
X132956571Y-38912571D01*
X133099428Y-38984000D01*
X133170857Y-39126857D01*
X133170857Y-39269714D01*
X132456571Y-39412571D01*
X134456571Y-39912571D02*
X134456571Y-38412571D01*
X134456571Y-39841142D02*
X134313714Y-39912571D01*
X134028000Y-39912571D01*
X133885142Y-39841142D01*
X133813714Y-39769714D01*
X133742285Y-39626857D01*
X133742285Y-39198285D01*
X133813714Y-39055428D01*
X133885142Y-38984000D01*
X134028000Y-38912571D01*
X134313714Y-38912571D01*
X134456571Y-38984000D01*
X136528000Y-39912571D02*
X136385142Y-39841142D01*
X136313714Y-39769714D01*
X136242285Y-39626857D01*
X136242285Y-39198285D01*
X136313714Y-39055428D01*
X136385142Y-38984000D01*
X136528000Y-38912571D01*
X136742285Y-38912571D01*
X136885142Y-38984000D01*
X136956571Y-39055428D01*
X137028000Y-39198285D01*
X137028000Y-39626857D01*
X136956571Y-39769714D01*
X136885142Y-39841142D01*
X136742285Y-39912571D01*
X136528000Y-39912571D01*
X137670857Y-38912571D02*
X137670857Y-39912571D01*
X137670857Y-39055428D02*
X137742285Y-38984000D01*
X137885142Y-38912571D01*
X138099428Y-38912571D01*
X138242285Y-38984000D01*
X138313714Y-39126857D01*
X138313714Y-39912571D01*
X140813714Y-39912571D02*
X140813714Y-39126857D01*
X140742285Y-38984000D01*
X140599428Y-38912571D01*
X140313714Y-38912571D01*
X140170857Y-38984000D01*
X140813714Y-39841142D02*
X140670857Y-39912571D01*
X140313714Y-39912571D01*
X140170857Y-39841142D01*
X140099428Y-39698285D01*
X140099428Y-39555428D01*
X140170857Y-39412571D01*
X140313714Y-39341142D01*
X140670857Y-39341142D01*
X140813714Y-39269714D01*
X143313714Y-39912571D02*
X143313714Y-38412571D01*
X143313714Y-39841142D02*
X143170857Y-39912571D01*
X142885142Y-39912571D01*
X142742285Y-39841142D01*
X142670857Y-39769714D01*
X142599428Y-39626857D01*
X142599428Y-39198285D01*
X142670857Y-39055428D01*
X142742285Y-38984000D01*
X142885142Y-38912571D01*
X143170857Y-38912571D01*
X143313714Y-38984000D01*
X144599428Y-39841142D02*
X144456571Y-39912571D01*
X144170857Y-39912571D01*
X144028000Y-39841142D01*
X143956571Y-39698285D01*
X143956571Y-39126857D01*
X144028000Y-38984000D01*
X144170857Y-38912571D01*
X144456571Y-38912571D01*
X144599428Y-38984000D01*
X144670857Y-39126857D01*
X144670857Y-39269714D01*
X143956571Y-39412571D01*
X145242285Y-39841142D02*
X145385142Y-39912571D01*
X145670857Y-39912571D01*
X145813714Y-39841142D01*
X145885142Y-39698285D01*
X145885142Y-39626857D01*
X145813714Y-39484000D01*
X145670857Y-39412571D01*
X145456571Y-39412571D01*
X145313714Y-39341142D01*
X145242285Y-39198285D01*
X145242285Y-39126857D01*
X145313714Y-38984000D01*
X145456571Y-38912571D01*
X145670857Y-38912571D01*
X145813714Y-38984000D01*
X146528000Y-39912571D02*
X146528000Y-38912571D01*
X146528000Y-38412571D02*
X146456571Y-38484000D01*
X146528000Y-38555428D01*
X146599428Y-38484000D01*
X146528000Y-38412571D01*
X146528000Y-38555428D01*
X147885142Y-38912571D02*
X147885142Y-40126857D01*
X147813714Y-40269714D01*
X147742285Y-40341142D01*
X147599428Y-40412571D01*
X147385142Y-40412571D01*
X147242285Y-40341142D01*
X147885142Y-39841142D02*
X147742285Y-39912571D01*
X147456571Y-39912571D01*
X147313714Y-39841142D01*
X147242285Y-39769714D01*
X147170857Y-39626857D01*
X147170857Y-39198285D01*
X147242285Y-39055428D01*
X147313714Y-38984000D01*
X147456571Y-38912571D01*
X147742285Y-38912571D01*
X147885142Y-38984000D01*
X148599428Y-38912571D02*
X148599428Y-39912571D01*
X148599428Y-39055428D02*
X148670857Y-38984000D01*
X148813714Y-38912571D01*
X149028000Y-38912571D01*
X149170857Y-38984000D01*
X149242285Y-39126857D01*
X149242285Y-39912571D01*
X151099428Y-39912571D02*
X151099428Y-38412571D01*
X151099428Y-38984000D02*
X151242285Y-38912571D01*
X151528000Y-38912571D01*
X151670857Y-38984000D01*
X151742285Y-39055428D01*
X151813714Y-39198285D01*
X151813714Y-39626857D01*
X151742285Y-39769714D01*
X151670857Y-39841142D01*
X151528000Y-39912571D01*
X151242285Y-39912571D01*
X151099428Y-39841142D01*
X152313714Y-38912571D02*
X152670857Y-39912571D01*
X153028000Y-38912571D02*
X152670857Y-39912571D01*
X152528000Y-40269714D01*
X152456571Y-40341142D01*
X152313714Y-40412571D01*
X154742285Y-39912571D02*
X154742285Y-38412571D01*
X155313714Y-38412571D01*
X155456571Y-38484000D01*
X155528000Y-38555428D01*
X155599428Y-38698285D01*
X155599428Y-38912571D01*
X155528000Y-39055428D01*
X155456571Y-39126857D01*
X155313714Y-39198285D01*
X154742285Y-39198285D01*
X156456571Y-39912571D02*
X156313714Y-39841142D01*
X156242285Y-39769714D01*
X156170857Y-39626857D01*
X156170857Y-39198285D01*
X156242285Y-39055428D01*
X156313714Y-38984000D01*
X156456571Y-38912571D01*
X156670857Y-38912571D01*
X156813714Y-38984000D01*
X156885142Y-39055428D01*
X156956571Y-39198285D01*
X156956571Y-39626857D01*
X156885142Y-39769714D01*
X156813714Y-39841142D01*
X156670857Y-39912571D01*
X156456571Y-39912571D01*
X157813714Y-39912571D02*
X157670857Y-39841142D01*
X157599428Y-39698285D01*
X157599428Y-38412571D01*
X158242285Y-38912571D02*
X158599428Y-39912571D01*
X158956571Y-38912571D02*
X158599428Y-39912571D01*
X158456571Y-40269714D01*
X158385142Y-40341142D01*
X158242285Y-40412571D01*
X159528000Y-39912571D02*
X159528000Y-38412571D01*
X159670857Y-39341142D02*
X160099428Y-39912571D01*
X160099428Y-38912571D02*
X159528000Y-39484000D01*
X160742285Y-39912571D02*
X160742285Y-38912571D01*
X160742285Y-38412571D02*
X160670857Y-38484000D01*
X160742285Y-38555428D01*
X160813714Y-38484000D01*
X160742285Y-38412571D01*
X160742285Y-38555428D01*
X161242285Y-38912571D02*
X161813714Y-38912571D01*
X161456571Y-38412571D02*
X161456571Y-39698285D01*
X161528000Y-39841142D01*
X161670857Y-39912571D01*
X161813714Y-39912571D01*
D12*
X102153571Y-164530142D02*
X102153571Y-161530142D01*
X103296428Y-161530142D01*
X103582142Y-161673000D01*
X103725000Y-161815857D01*
X103867857Y-162101571D01*
X103867857Y-162530142D01*
X103725000Y-162815857D01*
X103582142Y-162958714D01*
X103296428Y-163101571D01*
X102153571Y-163101571D01*
X104867857Y-161530142D02*
X105582142Y-164530142D01*
X106153571Y-162387285D01*
X106725000Y-164530142D01*
X107439285Y-161530142D01*
X108582142Y-164530142D02*
X108582142Y-161530142D01*
X109582142Y-163673000D01*
X110582142Y-161530142D01*
X110582142Y-164530142D01*
X114296428Y-164530142D02*
X114296428Y-161530142D01*
X115439285Y-161530142D01*
X115725000Y-161673000D01*
X115867857Y-161815857D01*
X116010714Y-162101571D01*
X116010714Y-162530142D01*
X115867857Y-162815857D01*
X115725000Y-162958714D01*
X115439285Y-163101571D01*
X114296428Y-163101571D01*
X117867857Y-161530142D02*
X118439285Y-161530142D01*
X118725000Y-161673000D01*
X119010714Y-161958714D01*
X119153571Y-162530142D01*
X119153571Y-163530142D01*
X119010714Y-164101571D01*
X118725000Y-164387285D01*
X118439285Y-164530142D01*
X117867857Y-164530142D01*
X117582142Y-164387285D01*
X117296428Y-164101571D01*
X117153571Y-163530142D01*
X117153571Y-162530142D01*
X117296428Y-161958714D01*
X117582142Y-161673000D01*
X117867857Y-161530142D01*
X120010714Y-161530142D02*
X121725000Y-161530142D01*
X120867857Y-164530142D02*
X120867857Y-161530142D01*
D13*
X167431000Y-157020000D02*
X152784000Y-157020000D01*
X82378000Y-141822000D02*
X82378000Y-64136000D01*
X100651000Y-141801000D02*
X100651000Y-88337000D01*
X117502000Y-141781000D02*
X117502000Y-111225000D01*
X135013000Y-141811000D02*
X135013000Y-134166000D01*
X82354000Y-64029000D02*
X72825000Y-41886000D01*
X100576000Y-88153000D02*
X79565000Y-41814000D01*
X117520000Y-111062000D02*
X85671000Y-41814000D01*
X134957000Y-134059000D02*
X92345000Y-41778000D01*
D14*
X124567000Y-184394857D02*
X126090809Y-184394857D01*
X125328904Y-185156761D02*
X125328904Y-183632952D01*
X126852714Y-183156761D02*
X128090809Y-183156761D01*
X127424142Y-183918666D01*
X127709857Y-183918666D01*
X127900333Y-184013904D01*
X127995571Y-184109142D01*
X128090809Y-184299619D01*
X128090809Y-184775809D01*
X127995571Y-184966285D01*
X127900333Y-185061523D01*
X127709857Y-185156761D01*
X127138428Y-185156761D01*
X126947952Y-185061523D01*
X126852714Y-184966285D01*
X128947952Y-184966285D02*
X129043190Y-185061523D01*
X128947952Y-185156761D01*
X128852714Y-185061523D01*
X128947952Y-184966285D01*
X128947952Y-185156761D01*
X129709857Y-183156761D02*
X130947952Y-183156761D01*
X130281285Y-183918666D01*
X130567000Y-183918666D01*
X130757476Y-184013904D01*
X130852714Y-184109142D01*
X130947952Y-184299619D01*
X130947952Y-184775809D01*
X130852714Y-184966285D01*
X130757476Y-185061523D01*
X130567000Y-185156761D01*
X129995571Y-185156761D01*
X129805095Y-185061523D01*
X129709857Y-184966285D01*
X131519380Y-183156761D02*
X132186047Y-185156761D01*
X132852714Y-183156761D01*
X115700571Y-184394857D02*
X117224380Y-184394857D01*
X116462476Y-185156761D02*
X116462476Y-183632952D01*
X119129142Y-183156761D02*
X118176761Y-183156761D01*
X118081523Y-184109142D01*
X118176761Y-184013904D01*
X118367238Y-183918666D01*
X118843428Y-183918666D01*
X119033904Y-184013904D01*
X119129142Y-184109142D01*
X119224380Y-184299619D01*
X119224380Y-184775809D01*
X119129142Y-184966285D01*
X119033904Y-185061523D01*
X118843428Y-185156761D01*
X118367238Y-185156761D01*
X118176761Y-185061523D01*
X118081523Y-184966285D01*
X119795809Y-183156761D02*
X120462476Y-185156761D01*
X121129142Y-183156761D01*
X104643190Y-184394857D02*
X106167000Y-184394857D01*
X105405095Y-185156761D02*
X105405095Y-183632952D01*
X108167000Y-185156761D02*
X107024142Y-185156761D01*
X107595571Y-185156761D02*
X107595571Y-183156761D01*
X107405095Y-183442476D01*
X107214619Y-183632952D01*
X107024142Y-183728190D01*
X108928904Y-183347238D02*
X109024142Y-183252000D01*
X109214619Y-183156761D01*
X109690809Y-183156761D01*
X109881285Y-183252000D01*
X109976523Y-183347238D01*
X110071761Y-183537714D01*
X110071761Y-183728190D01*
X109976523Y-184013904D01*
X108833666Y-185156761D01*
X110071761Y-185156761D01*
X110643190Y-183156761D02*
X111309857Y-185156761D01*
X111976523Y-183156761D01*
X94728190Y-184394857D02*
X96252000Y-184394857D01*
X98252000Y-185156761D02*
X97109142Y-185156761D01*
X97680571Y-185156761D02*
X97680571Y-183156761D01*
X97490095Y-183442476D01*
X97299619Y-183632952D01*
X97109142Y-183728190D01*
X99013904Y-183347238D02*
X99109142Y-183252000D01*
X99299619Y-183156761D01*
X99775809Y-183156761D01*
X99966285Y-183252000D01*
X100061523Y-183347238D01*
X100156761Y-183537714D01*
X100156761Y-183728190D01*
X100061523Y-184013904D01*
X98918666Y-185156761D01*
X100156761Y-185156761D01*
X100728190Y-183156761D02*
X101394857Y-185156761D01*
X102061523Y-183156761D01*
D12*
X131206857Y-157666142D02*
X131206857Y-154666142D01*
X132206857Y-156809000D01*
X133206857Y-154666142D01*
X133206857Y-157666142D01*
X134635428Y-157666142D02*
X134635428Y-154666142D01*
X136064000Y-157666142D02*
X136064000Y-154666142D01*
X136778285Y-154666142D01*
X137206857Y-154809000D01*
X137492571Y-155094714D01*
X137635428Y-155380428D01*
X137778285Y-155951857D01*
X137778285Y-156380428D01*
X137635428Y-156951857D01*
X137492571Y-157237571D01*
X137206857Y-157523285D01*
X136778285Y-157666142D01*
X136064000Y-157666142D01*
X139064000Y-157666142D02*
X139064000Y-154666142D01*
X142778285Y-157666142D02*
X142778285Y-154666142D01*
X144206857Y-157666142D02*
X144206857Y-154666142D01*
X145921142Y-157666142D01*
X145921142Y-154666142D01*
X79012142Y-159889142D02*
X79012142Y-156889142D01*
X80155000Y-156889142D01*
X80440714Y-157032000D01*
X80583571Y-157174857D01*
X80726428Y-157460571D01*
X80726428Y-157889142D01*
X80583571Y-158174857D01*
X80440714Y-158317714D01*
X80155000Y-158460571D01*
X79012142Y-158460571D01*
X81726428Y-156889142D02*
X82440714Y-159889142D01*
X83012142Y-157746285D01*
X83583571Y-159889142D01*
X84297857Y-156889142D01*
X85440714Y-159889142D02*
X85440714Y-156889142D01*
X86440714Y-159032000D01*
X87440714Y-156889142D01*
X87440714Y-159889142D01*
X91155000Y-159889142D02*
X91155000Y-156889142D01*
X92583571Y-159889142D02*
X92583571Y-156889142D01*
X94297857Y-159889142D01*
X94297857Y-156889142D01*
D13*
X162015000Y-177576000D02*
X99310000Y-41713000D01*
X165213000Y-133757000D02*
X141950000Y-133757000D01*
X165095000Y-110903000D02*
X131411000Y-110903000D01*
X165109000Y-87882000D02*
X120702000Y-87882000D01*
X164050000Y-64701000D02*
X110000000Y-64701000D01*
X165748000Y-41713000D02*
X63508000Y-41713000D01*
D15*
X75359142Y-97101000D02*
G75*
G03*
X75359142Y-97101000I-14142J0D01*
G01*
D16*
X126198000Y-177863306D02*
X126198000Y-180802694D01*
D17*
X131198000Y-179333000D02*
G75*
G03*
X131198000Y-179333000I-2500000J0D01*
G01*
D16*
X131198000Y-179333000D02*
G75*
G03*
X131198000Y-179333000I-2500000J0D01*
G01*
X126197984Y-180802666D02*
G75*
G03*
X126198000Y-177863306I2500016J1469666D01*
G01*
X111182000Y-179456000D02*
G75*
G03*
X111182000Y-179456000I-2500000J0D01*
G01*
D17*
X111182000Y-179456000D02*
G75*
G03*
X111182000Y-179456000I-2500000J0D01*
G01*
D16*
X106182000Y-177986306D02*
X106182000Y-180925694D01*
X106181984Y-180925666D02*
G75*
G03*
X106182000Y-177986306I2500016J1469666D01*
G01*
X141116000Y-150767000D02*
G75*
G03*
X141116000Y-150767000I-2500000J0D01*
G01*
D17*
X141116000Y-150767000D02*
G75*
G03*
X141116000Y-150767000I-2500000J0D01*
G01*
D16*
X136116000Y-149297306D02*
X136116000Y-152236694D01*
X136115984Y-152236666D02*
G75*
G03*
X136116000Y-149297306I2500016J1469666D01*
G01*
X121198000Y-179333000D02*
G75*
G03*
X121198000Y-179333000I-2500000J0D01*
G01*
D17*
X121198000Y-179333000D02*
G75*
G03*
X121198000Y-179333000I-2500000J0D01*
G01*
D16*
X116198000Y-177863306D02*
X116198000Y-180802694D01*
X116197984Y-180802666D02*
G75*
G03*
X116198000Y-177863306I2500016J1469666D01*
G01*
X96166000Y-177976306D02*
X96166000Y-180915694D01*
D17*
X101166000Y-179446000D02*
G75*
G03*
X101166000Y-179446000I-2500000J0D01*
G01*
D16*
X101166000Y-179446000D02*
G75*
G03*
X101166000Y-179446000I-2500000J0D01*
G01*
X96165984Y-180915666D02*
G75*
G03*
X96166000Y-177976306I2500016J1469666D01*
G01*
D17*
X146865980Y-168585000D02*
G75*
G03*
X146865980Y-168585000I-8428980J0D01*
G01*
D16*
X114401000Y-151911000D02*
G75*
G03*
X114401000Y-151911000I-3000000J0D01*
G01*
D15*
X140614952Y-209702380D02*
X140138761Y-209702380D01*
X140138761Y-208702380D01*
X140948285Y-209178571D02*
X141281619Y-209178571D01*
X141424476Y-209702380D02*
X140948285Y-209702380D01*
X140948285Y-208702380D01*
X141424476Y-208702380D01*
X141853047Y-209702380D02*
X141853047Y-208702380D01*
X142091142Y-208702380D01*
X142234000Y-208750000D01*
X142329238Y-208845238D01*
X142376857Y-208940476D01*
X142424476Y-209130952D01*
X142424476Y-209273809D01*
X142376857Y-209464285D01*
X142329238Y-209559523D01*
X142234000Y-209654761D01*
X142091142Y-209702380D01*
X141853047Y-209702380D01*
X142995904Y-209130952D02*
X142900666Y-209083333D01*
X142853047Y-209035714D01*
X142805428Y-208940476D01*
X142805428Y-208892857D01*
X142853047Y-208797619D01*
X142900666Y-208750000D01*
X142995904Y-208702380D01*
X143186380Y-208702380D01*
X143281619Y-208750000D01*
X143329238Y-208797619D01*
X143376857Y-208892857D01*
X143376857Y-208940476D01*
X143329238Y-209035714D01*
X143281619Y-209083333D01*
X143186380Y-209130952D01*
X142995904Y-209130952D01*
X142900666Y-209178571D01*
X142853047Y-209226190D01*
X142805428Y-209321428D01*
X142805428Y-209511904D01*
X142853047Y-209607142D01*
X142900666Y-209654761D01*
X142995904Y-209702380D01*
X143186380Y-209702380D01*
X143281619Y-209654761D01*
X143329238Y-209607142D01*
X143376857Y-209511904D01*
X143376857Y-209321428D01*
X143329238Y-209226190D01*
X143281619Y-209178571D01*
X143186380Y-209130952D01*
X136153142Y-212294380D02*
X135676952Y-212294380D01*
X135676952Y-211294380D01*
X136486476Y-211770571D02*
X136819809Y-211770571D01*
X136962666Y-212294380D02*
X136486476Y-212294380D01*
X136486476Y-211294380D01*
X136962666Y-211294380D01*
X137391238Y-212294380D02*
X137391238Y-211294380D01*
X137629333Y-211294380D01*
X137772190Y-211342000D01*
X137867428Y-211437238D01*
X137915047Y-211532476D01*
X137962666Y-211722952D01*
X137962666Y-211865809D01*
X137915047Y-212056285D01*
X137867428Y-212151523D01*
X137772190Y-212246761D01*
X137629333Y-212294380D01*
X137391238Y-212294380D01*
X121973952Y-207727380D02*
X121497761Y-207727380D01*
X121497761Y-206727380D01*
X122307285Y-207203571D02*
X122640619Y-207203571D01*
X122783476Y-207727380D02*
X122307285Y-207727380D01*
X122307285Y-206727380D01*
X122783476Y-206727380D01*
X123212047Y-207727380D02*
X123212047Y-206727380D01*
X123450142Y-206727380D01*
X123593000Y-206775000D01*
X123688238Y-206870238D01*
X123735857Y-206965476D01*
X123783476Y-207155952D01*
X123783476Y-207298809D01*
X123735857Y-207489285D01*
X123688238Y-207584523D01*
X123593000Y-207679761D01*
X123450142Y-207727380D01*
X123212047Y-207727380D01*
X124354904Y-207155952D02*
X124259666Y-207108333D01*
X124212047Y-207060714D01*
X124164428Y-206965476D01*
X124164428Y-206917857D01*
X124212047Y-206822619D01*
X124259666Y-206775000D01*
X124354904Y-206727380D01*
X124545380Y-206727380D01*
X124640619Y-206775000D01*
X124688238Y-206822619D01*
X124735857Y-206917857D01*
X124735857Y-206965476D01*
X124688238Y-207060714D01*
X124640619Y-207108333D01*
X124545380Y-207155952D01*
X124354904Y-207155952D01*
X124259666Y-207203571D01*
X124212047Y-207251190D01*
X124164428Y-207346428D01*
X124164428Y-207536904D01*
X124212047Y-207632142D01*
X124259666Y-207679761D01*
X124354904Y-207727380D01*
X124545380Y-207727380D01*
X124640619Y-207679761D01*
X124688238Y-207632142D01*
X124735857Y-207536904D01*
X124735857Y-207346428D01*
X124688238Y-207251190D01*
X124640619Y-207203571D01*
X124545380Y-207155952D01*
X120722142Y-211430380D02*
X120245952Y-211430380D01*
X120245952Y-210430380D01*
X121055476Y-210906571D02*
X121388809Y-210906571D01*
X121531666Y-211430380D02*
X121055476Y-211430380D01*
X121055476Y-210430380D01*
X121531666Y-210430380D01*
X121960238Y-211430380D02*
X121960238Y-210430380D01*
X122198333Y-210430380D01*
X122341190Y-210478000D01*
X122436428Y-210573238D01*
X122484047Y-210668476D01*
X122531666Y-210858952D01*
X122531666Y-211001809D01*
X122484047Y-211192285D01*
X122436428Y-211287523D01*
X122341190Y-211382761D01*
X122198333Y-211430380D01*
X121960238Y-211430380D01*
X126220952Y-201925380D02*
X125744761Y-201925380D01*
X125744761Y-200925380D01*
X126554285Y-201401571D02*
X126887619Y-201401571D01*
X127030476Y-201925380D02*
X126554285Y-201925380D01*
X126554285Y-200925380D01*
X127030476Y-200925380D01*
X127459047Y-201925380D02*
X127459047Y-200925380D01*
X127697142Y-200925380D01*
X127840000Y-200973000D01*
X127935238Y-201068238D01*
X127982857Y-201163476D01*
X128030476Y-201353952D01*
X128030476Y-201496809D01*
X127982857Y-201687285D01*
X127935238Y-201782523D01*
X127840000Y-201877761D01*
X127697142Y-201925380D01*
X127459047Y-201925380D01*
X128601904Y-201353952D02*
X128506666Y-201306333D01*
X128459047Y-201258714D01*
X128411428Y-201163476D01*
X128411428Y-201115857D01*
X128459047Y-201020619D01*
X128506666Y-200973000D01*
X128601904Y-200925380D01*
X128792380Y-200925380D01*
X128887619Y-200973000D01*
X128935238Y-201020619D01*
X128982857Y-201115857D01*
X128982857Y-201163476D01*
X128935238Y-201258714D01*
X128887619Y-201306333D01*
X128792380Y-201353952D01*
X128601904Y-201353952D01*
X128506666Y-201401571D01*
X128459047Y-201449190D01*
X128411428Y-201544428D01*
X128411428Y-201734904D01*
X128459047Y-201830142D01*
X128506666Y-201877761D01*
X128601904Y-201925380D01*
X128792380Y-201925380D01*
X128887619Y-201877761D01*
X128935238Y-201830142D01*
X128982857Y-201734904D01*
X128982857Y-201544428D01*
X128935238Y-201449190D01*
X128887619Y-201401571D01*
X128792380Y-201353952D01*
X123364142Y-204023380D02*
X122887952Y-204023380D01*
X122887952Y-203023380D01*
X123697476Y-203499571D02*
X124030809Y-203499571D01*
X124173666Y-204023380D02*
X123697476Y-204023380D01*
X123697476Y-203023380D01*
X124173666Y-203023380D01*
X124602238Y-204023380D02*
X124602238Y-203023380D01*
X124840333Y-203023380D01*
X124983190Y-203071000D01*
X125078428Y-203166238D01*
X125126047Y-203261476D01*
X125173666Y-203451952D01*
X125173666Y-203594809D01*
X125126047Y-203785285D01*
X125078428Y-203880523D01*
X124983190Y-203975761D01*
X124840333Y-204023380D01*
X124602238Y-204023380D01*
X130614952Y-209702380D02*
X130138761Y-209702380D01*
X130138761Y-208702380D01*
X130948285Y-209178571D02*
X131281619Y-209178571D01*
X131424476Y-209702380D02*
X130948285Y-209702380D01*
X130948285Y-208702380D01*
X131424476Y-208702380D01*
X131853047Y-209702380D02*
X131853047Y-208702380D01*
X132091142Y-208702380D01*
X132234000Y-208750000D01*
X132329238Y-208845238D01*
X132376857Y-208940476D01*
X132424476Y-209130952D01*
X132424476Y-209273809D01*
X132376857Y-209464285D01*
X132329238Y-209559523D01*
X132234000Y-209654761D01*
X132091142Y-209702380D01*
X131853047Y-209702380D01*
X132995904Y-209130952D02*
X132900666Y-209083333D01*
X132853047Y-209035714D01*
X132805428Y-208940476D01*
X132805428Y-208892857D01*
X132853047Y-208797619D01*
X132900666Y-208750000D01*
X132995904Y-208702380D01*
X133186380Y-208702380D01*
X133281619Y-208750000D01*
X133329238Y-208797619D01*
X133376857Y-208892857D01*
X133376857Y-208940476D01*
X133329238Y-209035714D01*
X133281619Y-209083333D01*
X133186380Y-209130952D01*
X132995904Y-209130952D01*
X132900666Y-209178571D01*
X132853047Y-209226190D01*
X132805428Y-209321428D01*
X132805428Y-209511904D01*
X132853047Y-209607142D01*
X132900666Y-209654761D01*
X132995904Y-209702380D01*
X133186380Y-209702380D01*
X133281619Y-209654761D01*
X133329238Y-209607142D01*
X133376857Y-209511904D01*
X133376857Y-209321428D01*
X133329238Y-209226190D01*
X133281619Y-209178571D01*
X133186380Y-209130952D01*
X126153142Y-212294380D02*
X125676952Y-212294380D01*
X125676952Y-211294380D01*
X126486476Y-211770571D02*
X126819809Y-211770571D01*
X126962666Y-212294380D02*
X126486476Y-212294380D01*
X126486476Y-211294380D01*
X126962666Y-211294380D01*
X127391238Y-212294380D02*
X127391238Y-211294380D01*
X127629333Y-211294380D01*
X127772190Y-211342000D01*
X127867428Y-211437238D01*
X127915047Y-211532476D01*
X127962666Y-211722952D01*
X127962666Y-211865809D01*
X127915047Y-212056285D01*
X127867428Y-212151523D01*
X127772190Y-212246761D01*
X127629333Y-212294380D01*
X127391238Y-212294380D01*
X117899952Y-208097380D02*
X117423761Y-208097380D01*
X117423761Y-207097380D01*
X118233285Y-207573571D02*
X118566619Y-207573571D01*
X118709476Y-208097380D02*
X118233285Y-208097380D01*
X118233285Y-207097380D01*
X118709476Y-207097380D01*
X119138047Y-208097380D02*
X119138047Y-207097380D01*
X119376142Y-207097380D01*
X119519000Y-207145000D01*
X119614238Y-207240238D01*
X119661857Y-207335476D01*
X119709476Y-207525952D01*
X119709476Y-207668809D01*
X119661857Y-207859285D01*
X119614238Y-207954523D01*
X119519000Y-208049761D01*
X119376142Y-208097380D01*
X119138047Y-208097380D01*
X120280904Y-207525952D02*
X120185666Y-207478333D01*
X120138047Y-207430714D01*
X120090428Y-207335476D01*
X120090428Y-207287857D01*
X120138047Y-207192619D01*
X120185666Y-207145000D01*
X120280904Y-207097380D01*
X120471380Y-207097380D01*
X120566619Y-207145000D01*
X120614238Y-207192619D01*
X120661857Y-207287857D01*
X120661857Y-207335476D01*
X120614238Y-207430714D01*
X120566619Y-207478333D01*
X120471380Y-207525952D01*
X120280904Y-207525952D01*
X120185666Y-207573571D01*
X120138047Y-207621190D01*
X120090428Y-207716428D01*
X120090428Y-207906904D01*
X120138047Y-208002142D01*
X120185666Y-208049761D01*
X120280904Y-208097380D01*
X120471380Y-208097380D01*
X120566619Y-208049761D01*
X120614238Y-208002142D01*
X120661857Y-207906904D01*
X120661857Y-207716428D01*
X120614238Y-207621190D01*
X120566619Y-207573571D01*
X120471380Y-207525952D01*
X125783142Y-208468380D02*
X125306952Y-208468380D01*
X125306952Y-207468380D01*
X126116476Y-207944571D02*
X126449809Y-207944571D01*
X126592666Y-208468380D02*
X126116476Y-208468380D01*
X126116476Y-207468380D01*
X126592666Y-207468380D01*
X127021238Y-208468380D02*
X127021238Y-207468380D01*
X127259333Y-207468380D01*
X127402190Y-207516000D01*
X127497428Y-207611238D01*
X127545047Y-207706476D01*
X127592666Y-207896952D01*
X127592666Y-208039809D01*
X127545047Y-208230285D01*
X127497428Y-208325523D01*
X127402190Y-208420761D01*
X127259333Y-208468380D01*
X127021238Y-208468380D01*
X135375095Y-175237380D02*
X135375095Y-174237380D01*
X135375095Y-175189761D02*
X135279857Y-175237380D01*
X135089380Y-175237380D01*
X134994142Y-175189761D01*
X134946523Y-175142142D01*
X134898904Y-175046904D01*
X134898904Y-174761190D01*
X134946523Y-174665952D01*
X134994142Y-174618333D01*
X135089380Y-174570714D01*
X135279857Y-174570714D01*
X135375095Y-174618333D01*
X135851285Y-175237380D02*
X135851285Y-174570714D01*
X135851285Y-174237380D02*
X135803666Y-174285000D01*
X135851285Y-174332619D01*
X135898904Y-174285000D01*
X135851285Y-174237380D01*
X135851285Y-174332619D01*
X136327476Y-174570714D02*
X136327476Y-175237380D01*
X136327476Y-174665952D02*
X136375095Y-174618333D01*
X136470333Y-174570714D01*
X136613190Y-174570714D01*
X136708428Y-174618333D01*
X136756047Y-174713571D01*
X136756047Y-175237380D01*
X136994142Y-175332619D02*
X137756047Y-175332619D01*
X137946523Y-175189761D02*
X138041761Y-175237380D01*
X138232238Y-175237380D01*
X138327476Y-175189761D01*
X138375095Y-175094523D01*
X138375095Y-175046904D01*
X138327476Y-174951666D01*
X138232238Y-174904047D01*
X138089380Y-174904047D01*
X137994142Y-174856428D01*
X137946523Y-174761190D01*
X137946523Y-174713571D01*
X137994142Y-174618333D01*
X138089380Y-174570714D01*
X138232238Y-174570714D01*
X138327476Y-174618333D01*
X138946523Y-175237380D02*
X138851285Y-175189761D01*
X138803666Y-175142142D01*
X138756047Y-175046904D01*
X138756047Y-174761190D01*
X138803666Y-174665952D01*
X138851285Y-174618333D01*
X138946523Y-174570714D01*
X139089380Y-174570714D01*
X139184619Y-174618333D01*
X139232238Y-174665952D01*
X139279857Y-174761190D01*
X139279857Y-175046904D01*
X139232238Y-175142142D01*
X139184619Y-175189761D01*
X139089380Y-175237380D01*
X138946523Y-175237380D01*
X140137000Y-175189761D02*
X140041761Y-175237380D01*
X139851285Y-175237380D01*
X139756047Y-175189761D01*
X139708428Y-175142142D01*
X139660809Y-175046904D01*
X139660809Y-174761190D01*
X139708428Y-174665952D01*
X139756047Y-174618333D01*
X139851285Y-174570714D01*
X140041761Y-174570714D01*
X140137000Y-174618333D01*
X140565571Y-175237380D02*
X140565571Y-174237380D01*
X140660809Y-174856428D02*
X140946523Y-175237380D01*
X140946523Y-174570714D02*
X140565571Y-174951666D01*
X141756047Y-175189761D02*
X141660809Y-175237380D01*
X141470333Y-175237380D01*
X141375095Y-175189761D01*
X141327476Y-175094523D01*
X141327476Y-174713571D01*
X141375095Y-174618333D01*
X141470333Y-174570714D01*
X141660809Y-174570714D01*
X141756047Y-174618333D01*
X141803666Y-174713571D01*
X141803666Y-174808809D01*
X141327476Y-174904047D01*
X142089380Y-174570714D02*
X142470333Y-174570714D01*
X142232238Y-174237380D02*
X142232238Y-175094523D01*
X142279857Y-175189761D01*
X142375095Y-175237380D01*
X142470333Y-175237380D01*
X141246047Y-166707380D02*
X141150809Y-166659761D01*
X141103190Y-166564523D01*
X141103190Y-165707380D01*
X120468619Y-204951761D02*
X120944809Y-204618428D01*
X120468619Y-204380333D02*
X121468619Y-204380333D01*
X121468619Y-204761285D01*
X121421000Y-204856523D01*
X121373380Y-204904142D01*
X121278142Y-204951761D01*
X121135285Y-204951761D01*
X121040047Y-204904142D01*
X120992428Y-204856523D01*
X120944809Y-204761285D01*
X120944809Y-204380333D01*
X121468619Y-205237476D02*
X120468619Y-205570809D01*
X121468619Y-205904142D01*
X121373380Y-206189857D02*
X121421000Y-206237476D01*
X121468619Y-206332714D01*
X121468619Y-206570809D01*
X121421000Y-206666047D01*
X121373380Y-206713666D01*
X121278142Y-206761285D01*
X121182904Y-206761285D01*
X121040047Y-206713666D01*
X120468619Y-206142238D01*
X120468619Y-206761285D01*
X86003000Y-169517380D02*
X86003000Y-168517380D01*
X86479190Y-169517380D02*
X86479190Y-168517380D01*
X87050619Y-169517380D01*
X87050619Y-168517380D01*
X87479190Y-168612619D02*
X87526809Y-168565000D01*
X87622047Y-168517380D01*
X87860142Y-168517380D01*
X87955380Y-168565000D01*
X88003000Y-168612619D01*
X88050619Y-168707857D01*
X88050619Y-168803095D01*
X88003000Y-168945952D01*
X87431571Y-169517380D01*
X88050619Y-169517380D01*
X46081571Y973619D02*
X46081571Y1973619D01*
X46414904Y1259333D01*
X46748238Y1973619D01*
X46748238Y973619D01*
X47367285Y973619D02*
X47272047Y1021238D01*
X47224428Y1068857D01*
X47176809Y1164095D01*
X47176809Y1449809D01*
X47224428Y1545047D01*
X47272047Y1592666D01*
X47367285Y1640285D01*
X47510142Y1640285D01*
X47605380Y1592666D01*
X47652999Y1545047D01*
X47700619Y1449809D01*
X47700619Y1164095D01*
X47652999Y1068857D01*
X47605380Y1021238D01*
X47510142Y973619D01*
X47367285Y973619D01*
X48557761Y1640285D02*
X48557761Y973619D01*
X48129190Y1640285D02*
X48129190Y1116476D01*
X48176809Y1021238D01*
X48272047Y973619D01*
X48414904Y973619D01*
X48510142Y1021238D01*
X48557761Y1068857D01*
X49033952Y1640285D02*
X49033952Y973619D01*
X49033952Y1545047D02*
X49081571Y1592666D01*
X49176809Y1640285D01*
X49319666Y1640285D01*
X49414904Y1592666D01*
X49462523Y1497428D01*
X49462523Y973619D01*
X49795857Y1640285D02*
X50176809Y1640285D01*
X49938714Y1973619D02*
X49938714Y1116476D01*
X49986333Y1021238D01*
X50081571Y973619D01*
X50176809Y973619D01*
X50510142Y973619D02*
X50510142Y1640285D01*
X50510142Y1973619D02*
X50462523Y1926000D01*
X50510142Y1878380D01*
X50557761Y1926000D01*
X50510142Y1973619D01*
X50510142Y1878380D01*
X50986333Y1640285D02*
X50986333Y973619D01*
X50986333Y1545047D02*
X51033952Y1592666D01*
X51129190Y1640285D01*
X51272047Y1640285D01*
X51367285Y1592666D01*
X51414904Y1497428D01*
X51414904Y973619D01*
X52319666Y1640285D02*
X52319666Y830761D01*
X52272047Y735523D01*
X52224428Y687904D01*
X52129190Y640285D01*
X51986333Y640285D01*
X51891095Y687904D01*
X52319666Y1021238D02*
X52224428Y973619D01*
X52033952Y973619D01*
X51938714Y1021238D01*
X51891095Y1068857D01*
X51843476Y1164095D01*
X51843476Y1449809D01*
X51891095Y1545047D01*
X51938714Y1592666D01*
X52033952Y1640285D01*
X52224428Y1640285D01*
X52319666Y1592666D01*
X52795857Y973619D02*
X52795857Y1973619D01*
X52795857Y1497428D02*
X53367285Y1497428D01*
X53367285Y973619D02*
X53367285Y1973619D01*
X53986333Y973619D02*
X53891095Y1021238D01*
X53843476Y1068857D01*
X53795857Y1164095D01*
X53795857Y1449809D01*
X53843476Y1545047D01*
X53891095Y1592666D01*
X53986333Y1640285D01*
X54129190Y1640285D01*
X54224428Y1592666D01*
X54272047Y1545047D01*
X54319666Y1449809D01*
X54319666Y1164095D01*
X54272047Y1068857D01*
X54224428Y1021238D01*
X54129190Y973619D01*
X53986333Y973619D01*
X54891095Y973619D02*
X54795857Y1021238D01*
X54748238Y1116476D01*
X54748238Y1973619D01*
X55652999Y1021238D02*
X55557761Y973619D01*
X55367285Y973619D01*
X55272047Y1021238D01*
X55224428Y1116476D01*
X55224428Y1497428D01*
X55272047Y1592666D01*
X55367285Y1640285D01*
X55557761Y1640285D01*
X55652999Y1592666D01*
X55700619Y1497428D01*
X55700619Y1402190D01*
X55224428Y1306952D01*
X55891095Y878380D02*
X56652999Y878380D01*
X56891095Y973619D02*
X56891095Y1973619D01*
X57272047Y1973619D01*
X57367285Y1926000D01*
X57414904Y1878380D01*
X57462523Y1783142D01*
X57462523Y1640285D01*
X57414904Y1545047D01*
X57367285Y1497428D01*
X57272047Y1449809D01*
X56891095Y1449809D01*
X58319666Y973619D02*
X58319666Y1497428D01*
X58272047Y1592666D01*
X58176809Y1640285D01*
X57986333Y1640285D01*
X57891095Y1592666D01*
X58319666Y1021238D02*
X58224428Y973619D01*
X57986333Y973619D01*
X57891095Y1021238D01*
X57843476Y1116476D01*
X57843476Y1211714D01*
X57891095Y1306952D01*
X57986333Y1354571D01*
X58224428Y1354571D01*
X58319666Y1402190D01*
X59224428Y973619D02*
X59224428Y1973619D01*
X59224428Y1021238D02*
X59129190Y973619D01*
X58938714Y973619D01*
X58843476Y1021238D01*
X58795857Y1068857D01*
X58748238Y1164095D01*
X58748238Y1449809D01*
X58795857Y1545047D01*
X58843476Y1592666D01*
X58938714Y1640285D01*
X59129190Y1640285D01*
X59224428Y1592666D01*
X68383095Y-1008380D02*
X68383095Y-8380D01*
X68383095Y-484571D02*
X68954523Y-484571D01*
X68954523Y-1008380D02*
X68954523Y-8380D01*
X69954523Y-1008380D02*
X69383095Y-1008380D01*
X69668809Y-1008380D02*
X69668809Y-8380D01*
X69573571Y-151238D01*
X69478333Y-246476D01*
X69383095Y-294095D01*
X141050571Y5693619D02*
X141050571Y6693619D01*
X141383904Y5979333D01*
X141717238Y6693619D01*
X141717238Y5693619D01*
X142336285Y5693619D02*
X142241047Y5741238D01*
X142193428Y5788857D01*
X142145809Y5884095D01*
X142145809Y6169809D01*
X142193428Y6265047D01*
X142241047Y6312666D01*
X142336285Y6360285D01*
X142479142Y6360285D01*
X142574380Y6312666D01*
X142622000Y6265047D01*
X142669619Y6169809D01*
X142669619Y5884095D01*
X142622000Y5788857D01*
X142574380Y5741238D01*
X142479142Y5693619D01*
X142336285Y5693619D01*
X143526761Y6360285D02*
X143526761Y5693619D01*
X143098190Y6360285D02*
X143098190Y5836476D01*
X143145809Y5741238D01*
X143241047Y5693619D01*
X143383904Y5693619D01*
X143479142Y5741238D01*
X143526761Y5788857D01*
X144002952Y6360285D02*
X144002952Y5693619D01*
X144002952Y6265047D02*
X144050571Y6312666D01*
X144145809Y6360285D01*
X144288666Y6360285D01*
X144383904Y6312666D01*
X144431523Y6217428D01*
X144431523Y5693619D01*
X144764857Y6360285D02*
X145145809Y6360285D01*
X144907714Y6693619D02*
X144907714Y5836476D01*
X144955333Y5741238D01*
X145050571Y5693619D01*
X145145809Y5693619D01*
X145479142Y5693619D02*
X145479142Y6360285D01*
X145479142Y6693619D02*
X145431523Y6646000D01*
X145479142Y6598380D01*
X145526761Y6646000D01*
X145479142Y6693619D01*
X145479142Y6598380D01*
X145955333Y6360285D02*
X145955333Y5693619D01*
X145955333Y6265047D02*
X146002952Y6312666D01*
X146098190Y6360285D01*
X146241047Y6360285D01*
X146336285Y6312666D01*
X146383904Y6217428D01*
X146383904Y5693619D01*
X147288666Y6360285D02*
X147288666Y5550761D01*
X147241047Y5455523D01*
X147193428Y5407904D01*
X147098190Y5360285D01*
X146955333Y5360285D01*
X146860095Y5407904D01*
X147288666Y5741238D02*
X147193428Y5693619D01*
X147002952Y5693619D01*
X146907714Y5741238D01*
X146860095Y5788857D01*
X146812476Y5884095D01*
X146812476Y6169809D01*
X146860095Y6265047D01*
X146907714Y6312666D01*
X147002952Y6360285D01*
X147193428Y6360285D01*
X147288666Y6312666D01*
X147764857Y5693619D02*
X147764857Y6693619D01*
X147764857Y6217428D02*
X148336285Y6217428D01*
X148336285Y5693619D02*
X148336285Y6693619D01*
X148955333Y5693619D02*
X148860095Y5741238D01*
X148812476Y5788857D01*
X148764857Y5884095D01*
X148764857Y6169809D01*
X148812476Y6265047D01*
X148860095Y6312666D01*
X148955333Y6360285D01*
X149098190Y6360285D01*
X149193428Y6312666D01*
X149241047Y6265047D01*
X149288666Y6169809D01*
X149288666Y5884095D01*
X149241047Y5788857D01*
X149193428Y5741238D01*
X149098190Y5693619D01*
X148955333Y5693619D01*
X149860095Y5693619D02*
X149764857Y5741238D01*
X149717238Y5836476D01*
X149717238Y6693619D01*
X150622000Y5741238D02*
X150526761Y5693619D01*
X150336285Y5693619D01*
X150241047Y5741238D01*
X150193428Y5836476D01*
X150193428Y6217428D01*
X150241047Y6312666D01*
X150336285Y6360285D01*
X150526761Y6360285D01*
X150622000Y6312666D01*
X150669619Y6217428D01*
X150669619Y6122190D01*
X150193428Y6026952D01*
X150860095Y5598380D02*
X151622000Y5598380D01*
X151860095Y5693619D02*
X151860095Y6693619D01*
X152241047Y6693619D01*
X152336285Y6646000D01*
X152383904Y6598380D01*
X152431523Y6503142D01*
X152431523Y6360285D01*
X152383904Y6265047D01*
X152336285Y6217428D01*
X152241047Y6169809D01*
X151860095Y6169809D01*
X153288666Y5693619D02*
X153288666Y6217428D01*
X153241047Y6312666D01*
X153145809Y6360285D01*
X152955333Y6360285D01*
X152860095Y6312666D01*
X153288666Y5741238D02*
X153193428Y5693619D01*
X152955333Y5693619D01*
X152860095Y5741238D01*
X152812476Y5836476D01*
X152812476Y5931714D01*
X152860095Y6026952D01*
X152955333Y6074571D01*
X153193428Y6074571D01*
X153288666Y6122190D01*
X154193428Y5693619D02*
X154193428Y6693619D01*
X154193428Y5741238D02*
X154098190Y5693619D01*
X153907714Y5693619D01*
X153812476Y5741238D01*
X153764857Y5788857D01*
X153717238Y5884095D01*
X153717238Y6169809D01*
X153764857Y6265047D01*
X153812476Y6312666D01*
X153907714Y6360285D01*
X154098190Y6360285D01*
X154193428Y6312666D01*
X156383095Y-1008380D02*
X156383095Y-8380D01*
X156383095Y-484571D02*
X156954523Y-484571D01*
X156954523Y-1008380D02*
X156954523Y-8380D01*
X157954523Y-1008380D02*
X157383095Y-1008380D01*
X157668809Y-1008380D02*
X157668809Y-8380D01*
X157573571Y-151238D01*
X157478333Y-246476D01*
X157383095Y-294095D01*
X131077571Y-203881380D02*
X131077571Y-202881380D01*
X131410904Y-203595666D01*
X131744238Y-202881380D01*
X131744238Y-203881380D01*
X132363285Y-203881380D02*
X132268047Y-203833761D01*
X132220428Y-203786142D01*
X132172809Y-203690904D01*
X132172809Y-203405190D01*
X132220428Y-203309952D01*
X132268047Y-203262333D01*
X132363285Y-203214714D01*
X132506142Y-203214714D01*
X132601380Y-203262333D01*
X132649000Y-203309952D01*
X132696619Y-203405190D01*
X132696619Y-203690904D01*
X132649000Y-203786142D01*
X132601380Y-203833761D01*
X132506142Y-203881380D01*
X132363285Y-203881380D01*
X133553761Y-203214714D02*
X133553761Y-203881380D01*
X133125190Y-203214714D02*
X133125190Y-203738523D01*
X133172809Y-203833761D01*
X133268047Y-203881380D01*
X133410904Y-203881380D01*
X133506142Y-203833761D01*
X133553761Y-203786142D01*
X134029952Y-203214714D02*
X134029952Y-203881380D01*
X134029952Y-203309952D02*
X134077571Y-203262333D01*
X134172809Y-203214714D01*
X134315666Y-203214714D01*
X134410904Y-203262333D01*
X134458523Y-203357571D01*
X134458523Y-203881380D01*
X134791857Y-203214714D02*
X135172809Y-203214714D01*
X134934714Y-202881380D02*
X134934714Y-203738523D01*
X134982333Y-203833761D01*
X135077571Y-203881380D01*
X135172809Y-203881380D01*
X135506142Y-203881380D02*
X135506142Y-203214714D01*
X135506142Y-202881380D02*
X135458523Y-202929000D01*
X135506142Y-202976619D01*
X135553761Y-202929000D01*
X135506142Y-202881380D01*
X135506142Y-202976619D01*
X135982333Y-203214714D02*
X135982333Y-203881380D01*
X135982333Y-203309952D02*
X136029952Y-203262333D01*
X136125190Y-203214714D01*
X136268047Y-203214714D01*
X136363285Y-203262333D01*
X136410904Y-203357571D01*
X136410904Y-203881380D01*
X137315666Y-203214714D02*
X137315666Y-204024238D01*
X137268047Y-204119476D01*
X137220428Y-204167095D01*
X137125190Y-204214714D01*
X136982333Y-204214714D01*
X136887095Y-204167095D01*
X137315666Y-203833761D02*
X137220428Y-203881380D01*
X137029952Y-203881380D01*
X136934714Y-203833761D01*
X136887095Y-203786142D01*
X136839476Y-203690904D01*
X136839476Y-203405190D01*
X136887095Y-203309952D01*
X136934714Y-203262333D01*
X137029952Y-203214714D01*
X137220428Y-203214714D01*
X137315666Y-203262333D01*
X137791857Y-203881380D02*
X137791857Y-202881380D01*
X137791857Y-203357571D02*
X138363285Y-203357571D01*
X138363285Y-203881380D02*
X138363285Y-202881380D01*
X138982333Y-203881380D02*
X138887095Y-203833761D01*
X138839476Y-203786142D01*
X138791857Y-203690904D01*
X138791857Y-203405190D01*
X138839476Y-203309952D01*
X138887095Y-203262333D01*
X138982333Y-203214714D01*
X139125190Y-203214714D01*
X139220428Y-203262333D01*
X139268047Y-203309952D01*
X139315666Y-203405190D01*
X139315666Y-203690904D01*
X139268047Y-203786142D01*
X139220428Y-203833761D01*
X139125190Y-203881380D01*
X138982333Y-203881380D01*
X139887095Y-203881380D02*
X139791857Y-203833761D01*
X139744238Y-203738523D01*
X139744238Y-202881380D01*
X140649000Y-203833761D02*
X140553761Y-203881380D01*
X140363285Y-203881380D01*
X140268047Y-203833761D01*
X140220428Y-203738523D01*
X140220428Y-203357571D01*
X140268047Y-203262333D01*
X140363285Y-203214714D01*
X140553761Y-203214714D01*
X140649000Y-203262333D01*
X140696619Y-203357571D01*
X140696619Y-203452809D01*
X140220428Y-203548047D01*
X140887095Y-203976619D02*
X141649000Y-203976619D01*
X141887095Y-203881380D02*
X141887095Y-202881380D01*
X142268047Y-202881380D01*
X142363285Y-202929000D01*
X142410904Y-202976619D01*
X142458523Y-203071857D01*
X142458523Y-203214714D01*
X142410904Y-203309952D01*
X142363285Y-203357571D01*
X142268047Y-203405190D01*
X141887095Y-203405190D01*
X143315666Y-203881380D02*
X143315666Y-203357571D01*
X143268047Y-203262333D01*
X143172809Y-203214714D01*
X142982333Y-203214714D01*
X142887095Y-203262333D01*
X143315666Y-203833761D02*
X143220428Y-203881380D01*
X142982333Y-203881380D01*
X142887095Y-203833761D01*
X142839476Y-203738523D01*
X142839476Y-203643285D01*
X142887095Y-203548047D01*
X142982333Y-203500428D01*
X143220428Y-203500428D01*
X143315666Y-203452809D01*
X144220428Y-203881380D02*
X144220428Y-202881380D01*
X144220428Y-203833761D02*
X144125190Y-203881380D01*
X143934714Y-203881380D01*
X143839476Y-203833761D01*
X143791857Y-203786142D01*
X143744238Y-203690904D01*
X143744238Y-203405190D01*
X143791857Y-203309952D01*
X143839476Y-203262333D01*
X143934714Y-203214714D01*
X144125190Y-203214714D01*
X144220428Y-203262333D01*
X156383095Y-194008380D02*
X156383095Y-193008380D01*
X156383095Y-193484571D02*
X156954523Y-193484571D01*
X156954523Y-194008380D02*
X156954523Y-193008380D01*
X157954523Y-194008380D02*
X157383095Y-194008380D01*
X157668809Y-194008380D02*
X157668809Y-193008380D01*
X157573571Y-193151238D01*
X157478333Y-193246476D01*
X157383095Y-193294095D01*
X46081571Y-192026380D02*
X46081571Y-191026380D01*
X46414904Y-191740666D01*
X46748238Y-191026380D01*
X46748238Y-192026380D01*
X47367285Y-192026380D02*
X47272047Y-191978761D01*
X47224428Y-191931142D01*
X47176809Y-191835904D01*
X47176809Y-191550190D01*
X47224428Y-191454952D01*
X47272047Y-191407333D01*
X47367285Y-191359714D01*
X47510142Y-191359714D01*
X47605380Y-191407333D01*
X47652999Y-191454952D01*
X47700619Y-191550190D01*
X47700619Y-191835904D01*
X47652999Y-191931142D01*
X47605380Y-191978761D01*
X47510142Y-192026380D01*
X47367285Y-192026380D01*
X48557761Y-191359714D02*
X48557761Y-192026380D01*
X48129190Y-191359714D02*
X48129190Y-191883523D01*
X48176809Y-191978761D01*
X48272047Y-192026380D01*
X48414904Y-192026380D01*
X48510142Y-191978761D01*
X48557761Y-191931142D01*
X49033952Y-191359714D02*
X49033952Y-192026380D01*
X49033952Y-191454952D02*
X49081571Y-191407333D01*
X49176809Y-191359714D01*
X49319666Y-191359714D01*
X49414904Y-191407333D01*
X49462523Y-191502571D01*
X49462523Y-192026380D01*
X49795857Y-191359714D02*
X50176809Y-191359714D01*
X49938714Y-191026380D02*
X49938714Y-191883523D01*
X49986333Y-191978761D01*
X50081571Y-192026380D01*
X50176809Y-192026380D01*
X50510142Y-192026380D02*
X50510142Y-191359714D01*
X50510142Y-191026380D02*
X50462523Y-191074000D01*
X50510142Y-191121619D01*
X50557761Y-191074000D01*
X50510142Y-191026380D01*
X50510142Y-191121619D01*
X50986333Y-191359714D02*
X50986333Y-192026380D01*
X50986333Y-191454952D02*
X51033952Y-191407333D01*
X51129190Y-191359714D01*
X51272047Y-191359714D01*
X51367285Y-191407333D01*
X51414904Y-191502571D01*
X51414904Y-192026380D01*
X52319666Y-191359714D02*
X52319666Y-192169238D01*
X52272047Y-192264476D01*
X52224428Y-192312095D01*
X52129190Y-192359714D01*
X51986333Y-192359714D01*
X51891095Y-192312095D01*
X52319666Y-191978761D02*
X52224428Y-192026380D01*
X52033952Y-192026380D01*
X51938714Y-191978761D01*
X51891095Y-191931142D01*
X51843476Y-191835904D01*
X51843476Y-191550190D01*
X51891095Y-191454952D01*
X51938714Y-191407333D01*
X52033952Y-191359714D01*
X52224428Y-191359714D01*
X52319666Y-191407333D01*
X52795857Y-192026380D02*
X52795857Y-191026380D01*
X52795857Y-191502571D02*
X53367285Y-191502571D01*
X53367285Y-192026380D02*
X53367285Y-191026380D01*
X53986333Y-192026380D02*
X53891095Y-191978761D01*
X53843476Y-191931142D01*
X53795857Y-191835904D01*
X53795857Y-191550190D01*
X53843476Y-191454952D01*
X53891095Y-191407333D01*
X53986333Y-191359714D01*
X54129190Y-191359714D01*
X54224428Y-191407333D01*
X54272047Y-191454952D01*
X54319666Y-191550190D01*
X54319666Y-191835904D01*
X54272047Y-191931142D01*
X54224428Y-191978761D01*
X54129190Y-192026380D01*
X53986333Y-192026380D01*
X54891095Y-192026380D02*
X54795857Y-191978761D01*
X54748238Y-191883523D01*
X54748238Y-191026380D01*
X55652999Y-191978761D02*
X55557761Y-192026380D01*
X55367285Y-192026380D01*
X55272047Y-191978761D01*
X55224428Y-191883523D01*
X55224428Y-191502571D01*
X55272047Y-191407333D01*
X55367285Y-191359714D01*
X55557761Y-191359714D01*
X55652999Y-191407333D01*
X55700619Y-191502571D01*
X55700619Y-191597809D01*
X55224428Y-191693047D01*
X55891095Y-192121619D02*
X56652999Y-192121619D01*
X56891095Y-192026380D02*
X56891095Y-191026380D01*
X57272047Y-191026380D01*
X57367285Y-191074000D01*
X57414904Y-191121619D01*
X57462523Y-191216857D01*
X57462523Y-191359714D01*
X57414904Y-191454952D01*
X57367285Y-191502571D01*
X57272047Y-191550190D01*
X56891095Y-191550190D01*
X58319666Y-192026380D02*
X58319666Y-191502571D01*
X58272047Y-191407333D01*
X58176809Y-191359714D01*
X57986333Y-191359714D01*
X57891095Y-191407333D01*
X58319666Y-191978761D02*
X58224428Y-192026380D01*
X57986333Y-192026380D01*
X57891095Y-191978761D01*
X57843476Y-191883523D01*
X57843476Y-191788285D01*
X57891095Y-191693047D01*
X57986333Y-191645428D01*
X58224428Y-191645428D01*
X58319666Y-191597809D01*
X59224428Y-192026380D02*
X59224428Y-191026380D01*
X59224428Y-191978761D02*
X59129190Y-192026380D01*
X58938714Y-192026380D01*
X58843476Y-191978761D01*
X58795857Y-191931142D01*
X58748238Y-191835904D01*
X58748238Y-191550190D01*
X58795857Y-191454952D01*
X58843476Y-191407333D01*
X58938714Y-191359714D01*
X59129190Y-191359714D01*
X59224428Y-191407333D01*
X68383095Y-194008380D02*
X68383095Y-193008380D01*
X68383095Y-193484571D02*
X68954523Y-193484571D01*
X68954523Y-194008380D02*
X68954523Y-193008380D01*
X69954523Y-194008380D02*
X69383095Y-194008380D01*
X69668809Y-194008380D02*
X69668809Y-193008380D01*
X69573571Y-193151238D01*
X69478333Y-193246476D01*
X69383095Y-193294095D01*
M02*
